<?xml version="1.0" encoding="UTF-8"?>
<svg version="1.1" xmlns="http://www.w3.org/2000/svg" width="900" height="700">
<path d="M0 0 C297 0 594 0 900 0 C900 231 900 462 900 700 C603 700 306 700 0 700 C0 469 0 238 0 0 Z " fill="#B2B4B8" transform="translate(0,0)"/>
<path d="M0 0 C39.59319788 -0.09177058 79.18638177 -0.16214749 118.77966496 -0.20426132 C123.46541484 -0.2092635 128.1511645 -0.21444085 132.83691406 -0.21972656 C133.76967165 -0.2207758 134.70242924 -0.22182505 135.66345221 -0.22290608 C150.72074456 -0.24026043 165.77797516 -0.27177038 180.83523101 -0.30861118 C196.31199288 -0.34615955 211.78872265 -0.36826505 227.2655282 -0.37635398 C236.79775269 -0.3818131 246.32980256 -0.39898673 255.86197323 -0.43166587 C262.41909488 -0.45298581 268.97612768 -0.45916104 275.53328139 -0.45400551 C279.30337004 -0.45147055 283.07315594 -0.45505469 286.84318924 -0.4768219 C315.73057002 -0.63505478 343.57219899 2.6022011 370 15 C370.89549561 15.41306396 370.89549561 15.41306396 371.80908203 15.83447266 C403.01758154 30.33784514 426.35265832 52.89103388 438.69677734 85.390625 C444.71738595 101.90590479 446.42401275 119.04527276 446.375 136.5 C446.37418427 137.60518478 446.37418427 137.60518478 446.37335205 138.73269653 C446.32930508 151.80143138 445.18578433 164.2839025 442 177 C441.79632812 177.8245166 441.59265625 178.6490332 441.3828125 179.49853516 C435.91807672 200.72920234 425.07905745 220.00680098 409 235 C407.824375 236.2065625 407.824375 236.2065625 406.625 237.4375 C382.68455974 260.80792978 352.84837398 271.87840029 320.59765625 278.38671875 C318.08515701 278.73960526 318.08515701 278.73960526 317 280 C317.92039062 280.30292969 318.84078125 280.60585938 319.7890625 280.91796875 C323.17700041 282.03614181 326.55864444 283.1724912 329.93945312 284.31201172 C331.79372879 284.93112888 333.6543298 285.53122368 335.515625 286.12890625 C346.61640508 289.83346891 357.64944393 294.89013018 367 302 C367.99 302.33 368.98 302.66 370 303 C370.598125 303.825 371.19625 304.65 371.8125 305.5 C374.47594217 308.54393391 376.05278869 308.73087196 380 309 C380.33 310.98 380.66 312.96 381 315 C381.61488281 315.04898437 382.22976563 315.09796875 382.86328125 315.1484375 C385 316 385 316 386.16796875 318.4140625 C386.50441406 319.47367187 386.84085938 320.53328125 387.1875 321.625 C390.10268976 329.77508845 394.38205577 336.71411065 399 344 C400.73140051 346.74859831 402.45966056 349.49916214 404.1875 352.25 C404.61087646 352.92144043 405.03425293 353.59288086 405.47045898 354.28466797 C408.3923773 358.94529106 411.06212429 363.69855449 413.640625 368.55859375 C415.41265531 371.74111944 417.45205304 374.69937284 419.5078125 377.703125 C421.67491213 381.03886998 423.49580288 384.53925356 425.3671875 388.046875 C427.71175552 392.28728989 430.28811896 396.37285502 432.875 400.46875 C434.64624737 403.34173225 436.26089313 406.28579918 437.8671875 409.25390625 C440.82904695 414.72545413 443.94431212 420.09085222 447.125 425.4375 C447.69065674 426.39140625 448.25631348 427.3453125 448.83911133 428.328125 C453.93489903 436.91229952 459.06901948 445.47329702 464.21435547 454.02783203 C466.30343225 457.50505664 468.38819938 460.98484854 470.47265625 464.46484375 C471.66991346 466.46292615 472.86724612 468.46096332 474.06460571 470.45898438 C474.84005648 471.75327226 475.61527351 473.04770023 476.39022827 474.34228516 C477.49379739 476.18565978 478.59829736 478.02847319 479.703125 479.87109375 C480.05752151 480.46300507 480.41191803 481.05491638 480.77705383 481.6647644 C482.60122642 484.70330693 484.44624116 487.72654778 486.32617188 490.73095703 C486.8855545 491.62742699 486.8855545 491.62742699 487.45623779 492.54200745 C488.48613769 494.18808073 489.52170245 495.83060575 490.55761719 497.47290039 C492 500 492 500 492 502 C492.99 502 493.98 502 495 502 C495.33 503.32 495.66 504.64 496 506 C438.25 506 380.5 506 321 506 C317.04 498.41 313.08 490.82 309 483 C306.91031897 479.13558437 304.81680336 475.27927735 302.6875 471.4375 C298.85774992 464.47690909 295.20161645 457.47659664 291.703125 450.34375 C289.76441674 446.53747873 287.6806615 442.83334337 285.5625 439.125 C282.25000356 433.32291854 279.17923024 427.45040238 276.24609375 421.44873047 C272.71577821 414.2921669 268.84011577 407.32580599 264.94799805 400.36083984 C264.45082275 399.46316895 263.95364746 398.56549805 263.44140625 397.640625 C262.77153687 396.44228027 262.77153687 396.44228027 262.08813477 395.21972656 C261.06692839 393.13652971 260.46034826 391.2658322 260 389 C259.16597656 389.26554687 258.33195312 389.53109375 257.47265625 389.8046875 C251.68414188 391.62147208 245.96260651 393.36653235 240 394.5078125 C237.91753883 394.96612363 237.91753883 394.96612363 235.72290039 395.94970703 C230.79660291 397.84990713 225.59894577 398.69354146 220.4375 399.75 C219.1798584 400.0080542 217.9222168 400.2661084 216.62646484 400.53198242 C206.15965437 402.651601 195.65341099 404.52693571 185.125 406.3125 C184.37894501 406.4412854 183.63289001 406.5700708 182.86422729 406.70275879 C180.68423886 407.07715275 178.50268084 407.44054643 176.3203125 407.80078125 C174.45270264 408.11269409 174.45270264 408.11269409 172.54736328 408.4309082 C166.06121255 409.24263468 159.52226836 409.56518211 153 410 C153 441.68 153 473.36 153 506 C114.67181446 505.7895286 114.67181446 505.7895286 98.66210938 505.69335938 C87.58945123 505.62689354 76.51679369 505.56148005 65.4440918 505.50268555 C57.38141381 505.45986917 49.31876445 505.41359771 41.25613064 505.36312145 C36.9843316 505.33649992 32.71253832 505.31164643 28.44070625 505.29092598 C24.42461261 505.27139151 20.40857357 505.24725751 16.39252853 505.21950912 C14.91424357 505.21012172 13.43594661 505.20245256 11.95764351 505.19658089 C9.94798058 505.18834839 7.93834801 505.17348277 5.9287262 505.15821838 C4.23769697 505.14853956 4.23769697 505.14853956 2.51250553 505.1386652 C0 505 0 505 -1 504 C-1.09858664 502.38148061 -1.12632128 500.75861923 -1.12698364 499.13710022 C-1.12980598 498.07044443 -1.13262833 497.00378864 -1.13553619 495.90480995 C-1.13350945 494.71169386 -1.1314827 493.51857777 -1.12939453 492.28930664 C-1.13112419 491.02445623 -1.13285385 489.75960583 -1.13463593 488.45642662 C-1.13923461 484.87801689 -1.13727476 481.29963489 -1.13422441 477.72122455 C-1.13230133 474.57345273 -1.1339451 471.42568651 -1.13556135 468.27791482 C-1.14005995 459.41012694 -1.13682754 450.54235463 -1.13056505 441.67456847 C-1.12589261 434.9778492 -1.12350883 428.28113236 -1.12231445 421.58441162 C-1.10278747 329.06596458 -0.77953363 236.54782748 0 0 Z " fill="#2166B7" transform="translate(372,188)"/>
<path d="M0 0 C297 0 594 0 900 0 C900 231 900 462 900 700 C603 700 306 700 0 700 C0 469 0 238 0 0 Z M367.82128906 7.53173828 C361.60697392 8.9236087 355.42296891 9.85559016 349.1015625 10.60546875 C346.09311431 10.94474863 346.09311431 10.94474863 343.53515625 11.5234375 C339.09877976 12.35739425 334.58402862 12.39952948 330.08203125 12.62109375 C326.89807358 12.69156611 326.89807358 12.69156611 325 15 C322.66666667 15.33333333 320.33333333 15.66666667 318 16 C317.34 16.66 316.68 17.32 316 18 C315.01 17.67 314.02 17.34 313 17 C310.20565125 17.52466507 307.50175451 18.11868155 304.75 18.8125 C304.01136719 18.99103516 303.27273438 19.16957031 302.51171875 19.35351562 C297.97418649 20.46188991 293.48987115 21.71119761 289 23 C286.94751597 23.55542504 284.89401894 24.10711254 282.83984375 24.65625 C281.71642578 24.95660156 280.59300781 25.25695312 279.43554688 25.56640625 C277.09986891 26.18977535 274.7639302 26.81216826 272.42773438 27.43359375 C271.30560547 27.73394531 270.18347656 28.03429687 269.02734375 28.34375 C268.01406006 28.61380859 267.00077637 28.88386719 265.95678711 29.16210938 C262.9355102 30.01827504 259.97312649 30.9902542 257 32 C253.92073347 32.99203858 250.83510062 33.96377083 247.75 34.9375 C246.90969238 35.20401367 246.06938477 35.47052734 245.20361328 35.74511719 C240.03343401 37.37948997 234.85302696 38.94624186 229.6171875 40.359375 C227.7831685 40.87795169 227.7831685 40.87795169 227 43 C224.59248657 43.99414734 222.2055379 44.89132014 219.75 45.75 C208.55343608 49.81003214 197.97836309 54.97135533 187.359375 60.33984375 C184.30949107 61.84705383 181.23765607 63.25353966 178.125 64.625 C174.99259715 66.02323199 172.1103402 67.48447472 169.25 69.375 C163.24959212 73.32064636 156.52752957 76.05071255 150 79 C150 79.66 150 80.32 150 81 C149.48953125 81.2371875 148.9790625 81.474375 148.453125 81.71875 C145.10212593 83.46895333 141.93827751 85.47168524 138.75 87.5 C138.1003125 87.90347656 137.450625 88.30695313 136.78125 88.72265625 C135.15124981 89.76024041 133.57060934 90.87453662 132 92 C132 92.66 132 93.32 132 94 C131.40703125 94.11730469 130.8140625 94.23460938 130.203125 94.35546875 C127.33034945 95.19590841 125.3096193 96.8939916 122.9375 98.66796875 C120.36092133 100.43936658 117.64067366 101.72241551 114.796875 103.0078125 C112.80152839 104.10959084 111.46367039 105.25624454 110 107 C110 107.66 110 108.32 110 109 C109.278125 109.226875 108.55625 109.45375 107.8125 109.6875 C104.41110023 111.27481989 102.63158405 113.31608331 100 116 C98.89628627 117.02189557 97.78527012 118.0359473 96.66796875 119.04296875 C96.09755859 119.55923828 95.52714844 120.07550781 94.93945312 120.60742188 C93.75488121 121.67578161 92.56729166 122.74080345 91.37695312 123.80273438 C89.88084669 125.16205394 88.43564221 126.57696958 87 128 C87 128.66 87 129.32 87 130 C86.42870361 130.2460498 85.85740723 130.49209961 85.26879883 130.74560547 C82.62007757 132.21005504 80.83314406 133.9243843 78.69921875 136.0703125 C77.88646484 136.885 77.07371094 137.6996875 76.23632812 138.5390625 C74.9746582 139.81910156 74.9746582 139.81910156 73.6875 141.125 C72.85798828 141.95515625 72.02847656 142.7853125 71.17382812 143.640625 C64.39538069 150.46722242 58.0806001 157.42302412 52.41015625 165.1953125 C51 167 51 167 48.3125 169.5625 C45.99797696 172.00213239 45.14211163 174.05028939 43.88598633 177.11157227 C42.40331067 180.27180821 40.29378541 182.92069869 38.1875 185.6875 C34.4005072 190.83074242 31.28241609 195.93437956 28.5703125 201.73828125 C27.35964141 204.25298363 26.09829467 206.6704109 24.7421875 209.10546875 C20.18354821 217.3198462 16.82679148 224.70398854 15 234 C14.34370484 236.00342734 13.68239354 238.00531118 13 240 C13 240.66 13 241.32 13 242 C12.21844249 243.22857379 11.40006419 244.43390306 10.5625 245.625 C8.26137099 249.19593969 7.52127735 251.8058398 7.2421875 255.9921875 C6.89660112 258.85721003 5.85097742 261.30722262 4.71875 263.9453125 C2.83833863 269.3208363 2.71998873 275.04935047 2.4375 280.6875 C2.3957666 281.50895508 2.3540332 282.33041016 2.31103516 283.17675781 C2.03053613 289.20118995 1.89464418 295.21923695 1.875 301.25 C1.87040771 302.02303467 1.86581543 302.79606934 1.86108398 303.5925293 C1.8735635 308.16352764 2.33060905 312.46982604 3 317 C3.48120174 322.42116878 3.85855181 327.85101138 4.25 333.27929688 C4.3325 334.36919922 4.415 335.45910156 4.5 336.58203125 C4.5721875 337.57436768 4.644375 338.5667041 4.71875 339.58911133 C4.86226744 342.00833635 4.86226744 342.00833635 6 344 C6.29245395 345.83000888 6.55935952 347.66414006 6.8125 349.5 C7.62285287 354.5616817 8.95062845 358.90697661 10.98046875 363.59765625 C12.55937006 367.31805588 13.77308141 371.15193714 15 375 C15.66 375 16.32 375 17 375 C17.185625 376.6396875 17.185625 376.6396875 17.375 378.3125 C17.75464801 382.07381802 17.75464801 382.07381802 20 385 C20.309375 386.093125 20.61875 387.18625 20.9375 388.3125 C21.95021561 391.82721889 23.27550284 394.78616439 25 398 C25.66 398 26.32 398 27 398 C27.09410156 398.70253906 27.18820313 399.40507812 27.28515625 400.12890625 C28.13361882 403.53666576 29.59128122 405.95514659 31.4375 408.9375 C33.38415605 412.08710008 34.92954845 414.77428917 36.03515625 418.31640625 C36.35355469 419.20199219 36.67195313 420.08757812 37 421 C37.99 421.33 38.98 421.66 40 422 C40.34342449 423.33076989 40.67619874 424.66431979 41 426 C41.99 426.66 42.98 427.32 44 428 C44.268125 428.886875 44.53625 429.77375 44.8125 430.6875 C46.7661076 436.137037 50.70937646 439.70937646 54.75 443.75 C57 446 57 446 59 449 C59.66 449 60.32 449 61 449 C61 449.99 61 450.98 61 452 C61.99 452 62.98 452 64 452 C64.226875 452.9075 64.45375 453.815 64.6875 454.75 C66.21600961 458.53488095 67.76350788 459.61116058 71 462 C72.35386936 463.65002828 73.68678142 465.3174387 75 467 C78.28289505 470.46034884 81.76745314 473.54979526 85.44921875 476.5703125 C87 478 87 478 89 481 C89.66 481 90.32 481 91 481 C91.495 482.485 91.495 482.485 92 484 C93.65 484.33 95.3 484.66 97 485 C97.061875 485.598125 97.12375 486.19625 97.1875 486.8125 C98.32434588 489.8732389 100.2127103 490.43639846 103 492 C103.99 493.485 103.99 493.485 105 495 C105.66 495.33 106.32 495.66 107 496 C109 497 109 497 111 500 C111.721875 500.433125 112.44375 500.86625 113.1875 501.3125 C116.20350888 503.12210533 118.5858447 505.21518153 121.15625 507.59765625 C122.97880004 509.11473239 122.97880004 509.11473239 125.3671875 509.9375 C128.50762221 511.20485644 130.90483939 512.92548037 133.625 514.9375 C134.56601563 515.62714844 135.50703125 516.31679688 136.4765625 517.02734375 C139 519 139 519 140.51953125 520.5859375 C142.49214673 522.47007155 144.61879971 523.48904315 147.0625 524.6875 C147.94035156 525.12449219 148.81820312 525.56148437 149.72265625 526.01171875 C151.89202536 527.13269771 151.89202536 527.13269771 154 527 C154 527.66 154 528.32 154 529 C154.95003906 529.38800781 155.90007812 529.77601563 156.87890625 530.17578125 C161.70513577 532.24554944 166.30390646 534.72323792 170.9375 537.1875 C179.89767912 541.91926228 188.91711979 546.50920793 198 551 C199.11181641 551.60134766 199.11181641 551.60134766 200.24609375 552.21484375 C202.13608778 553.20429446 202.13608778 553.20429446 205 553 C205 553.66 205 554.32 205 555 C205.67466309 555.25168945 206.34932617 555.50337891 207.04443359 555.76269531 C210.15507216 556.92392942 213.26503827 558.08695452 216.375 559.25 C217.96634766 559.84361328 217.96634766 559.84361328 219.58984375 560.44921875 C224.46322056 562.2729978 229.32005256 564.11683928 234.13671875 566.0859375 C239.16019979 568.11065647 244.26701116 569.76949597 249.4375 571.375 C251.38418214 571.98415914 253.33079558 572.59353788 255.27734375 573.203125 C256.24140137 573.50412109 257.20545898 573.80511719 258.19873047 574.11523438 C260.76612646 574.92613232 263.32370329 575.76097393 265.87890625 576.609375 C276.81171643 580.21534077 287.8048103 582.90951043 299.05175781 585.34375 C302.07277936 586.01619998 305.07914208 586.73543184 308.0859375 587.46875 C320.11955121 590.38545231 332.15496615 592.84320508 344.375 594.8125 C345.65173584 595.01939453 346.92847168 595.22628906 348.24389648 595.43945312 C355.82032169 596.62182332 363.35667581 597.40757296 371 598 C370.99777939 599.17541855 370.99555878 600.3508371 370.99327087 601.56187439 C370.97304098 612.61338677 370.9580286 623.66489542 370.94818783 634.71642208 C370.94295861 640.39876512 370.93586027 646.08109327 370.92456055 651.76342773 C370.91373304 657.24229136 370.90772346 662.72114062 370.90512276 668.20001411 C370.90326826 670.29529611 370.89964718 672.39057728 370.89426994 674.4858532 C370.88706132 677.40977584 370.88600898 680.33363833 370.88647461 683.25756836 C370.88287933 684.1329425 370.87928406 685.00831665 370.87557983 685.91021729 C370.5010137 689.76522709 370.5010137 689.76522709 372 693 C373.9739417 693.10894186 375.95181292 693.14690326 377.9287262 693.15821838 C379.21746643 693.1680072 380.50620667 693.17779602 381.83399963 693.18788147 C383.27548181 693.19378644 384.71696437 693.19959684 386.15844727 693.20532227 C387.66596753 693.21489532 389.17348508 693.22490505 390.68099976 693.23532104 C394.7861642 693.26243831 398.89134021 693.28341081 402.99654508 693.30332303 C407.28205572 693.32514066 411.56753041 693.35254994 415.85301208 693.37937927 C423.97384044 693.42936345 432.0946887 693.47428096 440.21555609 693.51740164 C451.18529086 693.57594011 462.15497839 693.64225761 473.12467098 693.70815182 C490.41641552 693.81181603 507.70820036 693.90504561 525 694 C525 662.32 525 630.64 525 598 C529.95 597.67 534.9 597.34 540 597 C543.60278423 596.50203878 547.1454738 595.97093548 550.71875 595.328125 C551.65756012 595.16537079 552.59637024 595.00261658 553.56362915 594.83493042 C556.54401495 594.31525458 559.5220601 593.78349812 562.5 593.25 C564.55711723 592.8864899 566.61424619 592.5230462 568.67138672 592.15966797 C579.18458001 590.29023071 589.68598145 588.37703675 600.125 586.125 C601.45241211 585.83931152 601.45241211 585.83931152 602.80664062 585.54785156 C606.48763167 584.71564059 609.64919484 583.69330309 613 582 C614.73986582 581.63527657 616.49198482 581.32620228 618.25 581.0625 C623.15884842 580.23886771 627.40956927 578.90546181 632 577 C632.38285156 578.28777344 632.38285156 578.28777344 632.7734375 579.6015625 C634.05948919 583.16482673 635.68634317 586.12330866 637.625 589.375 C640.45576409 594.20857281 643.1036525 599.08999611 645.5625 604.125 C649.27789823 611.70147969 653.2494258 619.13346734 657.25 626.5625 C661.95609884 635.30268952 666.62008623 644.06119987 671.1875 652.875 C675.67457302 661.52950647 680.28704684 670.10847263 684.99291992 678.64599609 C685.45931885 679.49371582 685.92571777 680.34143555 686.40625 681.21484375 C686.81166016 681.94823975 687.21707031 682.68163574 687.63476562 683.43725586 C689.49150295 686.92262276 691.23391643 690.46783285 693 694 C750.75 694 808.5 694 868 694 C867.67 692.68 867.34 691.36 867 690 C866.01 690 865.02 690 864 690 C863.72397949 689.26982666 863.44795898 688.53965332 863.16357422 687.78735352 C862.06914019 685.165626 860.83535812 682.83986971 859.3828125 680.40234375 C858.86452881 679.52884277 858.34624512 678.6553418 857.81225586 677.75537109 C856.97706421 676.3605249 856.97706421 676.3605249 856.125 674.9375 C855.54564697 673.96377441 854.96629395 672.99004883 854.36938477 671.98681641 C852.58376943 668.98869225 850.79273895 665.99386907 849 663 C848.47486816 662.1219873 847.94973633 661.24397461 847.40869141 660.33935547 C842.97798156 652.93388332 838.53101423 645.53823595 834.07421875 638.1484375 C827.92852759 627.94673289 821.87530028 617.69516154 815.89501953 607.39550781 C810.99256235 598.95645216 805.98885756 590.58606835 800.8659668 582.27905273 C796.83069184 575.73101675 792.93373333 569.16608251 789.32421875 562.37109375 C787.56398793 559.21929402 785.53764592 556.28546709 783.5 553.30859375 C781.28782915 549.90392454 779.41377751 546.33617774 777.5 542.7578125 C774.62715655 537.47597012 771.47121485 532.35797448 768.2890625 527.2578125 C767.73992188 526.36835937 767.19078125 525.47890625 766.625 524.5625 C766.12226562 523.75941406 765.61953125 522.95632813 765.1015625 522.12890625 C764 520 764 520 764 517 C765.9140625 515.52734375 765.9140625 515.52734375 768.625 513.9375 C774.07972205 510.62494447 779.24337141 507.03486877 784.40283203 503.28881836 C788.82262814 500.08868593 788.82262814 500.08868593 791 499 C791 498.34 791 497.68 791 497 C791.56203125 496.75636719 792.1240625 496.51273437 792.703125 496.26171875 C795.44019785 494.75819064 797.45795941 492.93300252 799.75 490.8125 C800.62269531 490.01457031 801.49539063 489.21664063 802.39453125 488.39453125 C803.25433594 487.60433594 804.11414063 486.81414062 805 486 C806.47341164 484.66030975 807.95198393 483.32625556 809.4375 482 C810.36369141 481.1646875 810.36369141 481.1646875 811.30859375 480.3125 C813 479 813 479 816 478 C817.646476 476.37571904 817.646476 476.37571904 819.25 474.375 C822.21130441 470.87183989 825.31609257 467.6279825 828.6171875 464.4453125 C830.10854485 463.02890223 830.10854485 463.02890223 831 461 C831.99 460.67 832.98 460.34 834 460 C835.03013277 458.35178756 836.02352281 456.68055648 837 455 C838.73582274 452.76732178 840.58569701 450.63688645 842.4375 448.5 C848.76329672 442.3274814 848.76329672 442.3274814 852 435 C852.66 435 853.32 435 854 435 C855.6366755 432.73701547 857.14565511 430.48732888 858.625 428.125 C859.04523437 427.47402344 859.46546875 426.82304687 859.8984375 426.15234375 C862.21126526 422.83752498 862.21126526 422.83752498 863 419 C863.66 419 864.32 419 865 419 C865.42023437 417.97132813 865.84046875 416.94265625 866.2734375 415.8828125 C867.784546 412.35689266 869.62788595 409.15421197 871.625 405.875 C894.86158583 366.34227267 903.35078849 318.16116262 897 273 C896.90348145 272.30132812 896.80696289 271.60265625 896.70751953 270.8828125 C895.4249661 261.95337644 893.40290344 253.27164208 891.0625 244.5625 C890.82176758 243.66297607 890.58103516 242.76345215 890.33300781 241.83666992 C887.81690887 232.78556366 884.34035111 224.3205071 880 216 C877.14658738 210.51266805 877.14658738 210.51266805 876.26171875 207.41796875 C874.53410496 202.73790043 872.03077331 198.68574662 869.4375 194.4375 C868.9010083 193.55215576 868.3645166 192.66681152 867.81176758 191.75463867 C861.46980339 181.3735316 854.6004423 171.50484206 847 162 C846.39800781 161.22398437 845.79601562 160.44796875 845.17578125 159.6484375 C832.33296946 143.23673075 817.40064995 127.84976498 801 115 C799.77456223 113.98903929 798.55211584 112.97444606 797.33203125 111.95703125 C788.80490618 104.87051886 780.0431753 98.3735348 770.81201172 92.234375 C768.89448965 90.92812445 767.02925427 89.56193614 765.16015625 88.1875 C762.36649085 85.81028096 762.36649085 85.81028096 760 86 C760 85.34 760 84.68 760 84 C758.845 83.43796875 757.69 82.8759375 756.5 82.296875 C752.20244931 80.14809965 748.10873143 77.73575092 744 75.25 C737.59025014 71.41625067 731.09197253 67.90990237 724.35351562 64.68847656 C720.32591422 62.74637138 716.7117727 60.48135081 713 58 C710.7193463 56.92569202 710.7193463 56.92569202 708.4375 56.125 C704.49119867 54.61940665 700.68912329 52.93989881 696.875 51.125 C690.59915485 48.19083863 684.20974894 45.75119423 677.7109375 43.37109375 C674.75792551 42.28003353 671.84568164 41.14038576 668.9375 39.9375 C663.61336882 37.78100317 658.16817366 36.00180736 652.7109375 34.21875 C650.48109704 33.48642345 648.25549715 32.74070085 646.0390625 31.96875 C638.36064732 29.30173744 630.56284691 27.25886811 622.69921875 25.2265625 C615.69003688 23.41068283 608.68291681 21.51469566 601.79296875 19.28613281 C595.30024551 17.22614061 588.85208866 16.02071333 582.125 15 C569.52382866 13.01284825 569.52382866 13.01284825 563.75 11.375 C557.49873383 9.64792346 551.1164559 9.19231335 544.67480469 8.64599609 C543.84110352 8.57461426 543.00740234 8.50323242 542.1484375 8.4296875 C541.39739746 8.37022949 540.64635742 8.31077148 539.87255859 8.24951172 C538 8 538 8 536 7 C534.67467608 6.79473337 533.342214 6.63412876 532.0078125 6.5 C531.22019531 6.4175 530.43257812 6.335 529.62109375 6.25 C528.38552734 6.12625 528.38552734 6.12625 527.125 6 C525.50233856 5.83593944 523.87992976 5.66935645 522.2578125 5.5 C521.5373877 5.4278125 520.81696289 5.355625 520.07470703 5.28125 C518 5 518 5 516.12695312 4.50219727 C510.6919702 3.21893741 504.93763449 3.26695388 499.375 2.9375 C498.62724304 2.89297699 497.87948608 2.84845398 497.10906982 2.80258179 C455.13370819 0.39500509 409.07212875 -1.73820898 367.82128906 7.53173828 Z " fill="#F6F6F6" transform="translate(0,0)"/>
<path d="M0 0 C1.51580154 0.00282486 1.51580154 0.00282486 3.06222534 0.00570679 C43.74990523 0.09384874 83.13586779 2.68953348 123.1875 10.125 C124.26435059 10.32270996 125.34120117 10.52041992 126.45068359 10.72412109 C135.87931872 12.46910803 145.09231616 14.49507915 154.28125 17.25390625 C156.65884572 17.96654583 159.0251389 18.60834188 161.4375 19.1875 C166.07039831 20.34572458 170.62371727 21.72219793 175.1875 23.125 C175.1875 23.785 175.1875 24.445 175.1875 25.125 C176.46625 25.2075 177.745 25.29 179.0625 25.375 C182.60607371 25.76892154 185.54387077 26.52291577 188.828125 27.90234375 C189.69743652 28.26215332 190.56674805 28.62196289 191.46240234 28.99267578 C192.81132568 29.55317627 192.81132568 29.55317627 194.1875 30.125 C195.97539372 30.83238829 197.76446762 31.53680071 199.5546875 32.23828125 C208.76088038 35.89735352 217.64775414 39.50249603 226.04296875 44.8125 C228.23949208 46.26761143 228.23949208 46.26761143 231.1875 47.125 C231.1875 47.785 231.1875 48.445 231.1875 49.125 C232.115625 49.29 233.04375 49.455 234 49.625 C238.93703099 50.99527799 242.63128266 54.16802372 246.63671875 57.25 C249.0549275 59.14070982 249.0549275 59.14070982 251.45703125 60.25 C253.1875 61.125 253.1875 61.125 254.1875 63.125 C254.89519531 63.54910156 255.60289062 63.97320312 256.33203125 64.41015625 C259.80628944 66.49661226 262.78729296 68.95036279 265.875 71.5625 C266.45572266 72.04009766 267.03644531 72.51769531 267.63476562 73.00976562 C270.58627519 75.49722282 272.68452616 77.5584837 274.1875 81.125 C275.5028341 81.82651152 276.83867592 82.49025925 278.1875 83.125 C280.4375 85.125 280.4375 85.125 282.1875 87.125 C282.1875 87.785 282.1875 88.445 282.1875 89.125 C282.75210938 89.33898437 283.31671875 89.55296875 283.8984375 89.7734375 C303.54127148 101.3714248 315.36925543 137.08327183 320.84863281 157.60058594 C327.67016842 184.9425511 328.04714467 213.44124059 323.1875 241.125 C323.03716309 241.99157227 322.88682617 242.85814453 322.73193359 243.75097656 C319.91958356 259.11814779 314.55458593 274.33249743 307.1875 288.125 C306.1975 288.62 306.1975 288.62 305.1875 289.125 C304.93097656 289.96546875 304.67445313 290.8059375 304.41015625 291.671875 C302.82759064 296.14148521 300.38473313 299.55051149 297.625 303.375 C297.0885083 304.12644287 296.5520166 304.87788574 295.99926758 305.65209961 C291.75903639 311.51090349 287.15394318 316.86981013 282.1875 322.125 C280.99484478 323.51643109 279.80709687 324.91208794 278.625 326.3125 C275.13703464 330.31720097 271.26409635 333.73418621 267.1875 337.125 C265.764375 338.31802734 265.764375 338.31802734 264.3125 339.53515625 C255.01405331 347.26858985 245.57983777 354.01310871 235.09570312 360.01953125 C233.13632021 361.1546497 231.20032052 362.32336563 229.265625 363.5 C228.01070829 364.25048784 226.75551044 365.00050585 225.5 365.75 C224.38238281 366.42289062 223.26476562 367.09578125 222.11328125 367.7890625 C218.87448279 369.26792642 218.38562891 369.22337441 215.1875 368.125 C212.60315152 366.7595211 210.05095686 365.36233796 207.5 363.9375 C199.66466129 359.67780519 191.76562241 356.54047661 183.29248047 353.80566406 C181.1177951 353.1024603 178.95104592 352.37825338 176.78515625 351.6484375 C173.256923 350.46071541 169.72385956 349.2883439 166.1875 348.125 C168.90647782 346.64774207 171.27387178 345.7814023 174.3203125 345.265625 C175.11711426 345.12286133 175.91391602 344.98009766 176.73486328 344.83300781 C177.5854834 344.68186523 178.43610352 344.53072266 179.3125 344.375 C206.59297554 339.17730461 233.20550041 327.46640781 254.1875 309.125 C255.04214844 308.4546875 255.89679687 307.784375 256.77734375 307.09375 C260.38311174 304.14835767 263.21046196 300.68879864 266.1875 297.125 C266.82945312 296.37089844 267.47140625 295.61679687 268.1328125 294.83984375 C273.52402548 288.33867515 277.96818566 281.43361792 282.1875 274.125 C282.65027344 273.33867187 283.11304688 272.55234375 283.58984375 271.7421875 C301.14920925 239.54066739 301.55485494 195.34018685 292.3125 160.625 C287.40213493 144.82322367 280.06068608 130.63123114 269.1875 118.125 C268.48882813 117.29355469 267.79015625 116.46210938 267.0703125 115.60546875 C250.59650892 96.52282439 227.8160833 84.91319226 204.1875 77.125 C202.62708984 76.60099609 202.62708984 76.60099609 201.03515625 76.06640625 C179.99416857 69.51181979 158.66416071 68.5223341 136.78464413 68.57621032 C132.88188026 68.58125277 128.97920499 68.56281212 125.07647705 68.54760361 C117.53887015 68.52160874 110.0013868 68.51559833 102.46374059 68.51702236 C93.72445359 68.5177803 84.98535663 68.49291884 76.24609375 68.46826172 C53.22660152 68.41569806 30.20704134 68.39740144 7.1875 68.375 C-44.2925 68.2925 -95.7725 68.21 -148.8125 68.125 C-148.8125 174.055 -148.8125 279.985 -148.8125 389.125 C-161.20470758 386.87187135 -161.20470758 386.87187135 -166.37890625 385.0234375 C-167.51473145 384.6197998 -168.65055664 384.21616211 -169.82080078 383.80029297 C-170.99368652 383.37119629 -172.16657227 382.94209961 -173.375 382.5 C-174.60718262 382.05414551 -175.83936523 381.60829102 -177.10888672 381.14892578 C-186.14589466 377.83618409 -194.94996012 374.18799426 -203.66650391 370.11474609 C-206.00945274 369.03416423 -208.36715156 367.99227946 -210.73046875 366.95703125 C-211.5488623 366.59818848 -212.36725586 366.2393457 -213.21044922 365.86962891 C-214.77001926 365.18682423 -216.33019892 364.5054095 -217.89111328 363.82568359 C-225.42056566 360.50401878 -225.42056566 360.50401878 -228.8125 358.125 C-228.8125 357.465 -228.8125 356.805 -228.8125 356.125 C-229.78703125 355.90070313 -230.7615625 355.67640625 -231.765625 355.4453125 C-236.50449284 354.085567 -240.41663034 351.61191554 -244.5625 349 C-245.35527344 348.50717529 -246.14804687 348.01435059 -246.96484375 347.5065918 C-255.84398213 341.93449792 -264.175363 335.77319608 -272.3046875 329.16015625 C-273.96137929 327.81570699 -275.63319772 326.48966236 -277.3203125 325.18359375 C-290.51451842 314.80546461 -302.04220466 302.753734 -311.8125 289.125 C-312.68313662 287.95832053 -313.55558185 286.7929889 -314.4296875 285.62890625 C-321.63420764 275.93654204 -326.97562931 266.04678216 -330.94140625 254.59375 C-331.69680033 252.45290221 -332.52237938 250.38859453 -333.4375 248.3125 C-335.78992018 242.8591623 -337.37241429 237.23610666 -338.875 231.5 C-339.04837891 230.84515625 -339.22175781 230.1903125 -339.40039062 229.515625 C-339.87481272 227.71972832 -340.34387307 225.92241759 -340.8125 224.125 C-340.99337158 223.50955322 -341.17424316 222.89410645 -341.3605957 222.26000977 C-341.91646367 219.63382641 -341.94223996 217.18864901 -341.9453125 214.50390625 C-341.94740723 213.40925049 -341.94950195 212.31459473 -341.95166016 211.18676758 C-341.9469873 210.03200928 -341.94231445 208.87725098 -341.9375 207.6875 C-341.93411621 206.51276123 -341.93073242 205.33802246 -341.92724609 204.12768555 C-341.79929618 182.68714906 -341.79929618 182.68714906 -338.8125 174.125 C-338.1525 174.125 -337.4925 174.125 -336.8125 174.125 C-336.25744924 171.49454205 -335.78020915 168.88745446 -335.41796875 166.22265625 C-334.57926923 160.13228684 -333.62430463 156.09189694 -329.8125 151.125 C-328.26725413 147.72545908 -326.88073625 144.30582606 -325.5625 140.8125 C-323.44049442 135.84224094 -320.266651 131.26165794 -316.8125 127.125 C-316.1525 127.125 -315.4925 127.125 -314.8125 127.125 C-314.709375 126.568125 -314.60625 126.01125 -314.5 125.4375 C-312.928475 120.15146136 -309.68184318 116.90435846 -305.8125 113.125 C-302.9170123 109.95965576 -300.26254153 106.88042685 -298.0625 103.1875 C-297.65 102.506875 -297.2375 101.82625 -296.8125 101.125 C-296.1525 101.125 -295.4925 101.125 -294.8125 101.125 C-294.8125 100.465 -294.8125 99.805 -294.8125 99.125 C-294.255625 98.898125 -293.69875 98.67125 -293.125 98.4375 C-290.60058783 97.14023552 -290.60058783 97.14023552 -288.25 94.5625 C-285.8125 92.125 -285.8125 92.125 -282.8125 91.125 C-282.8125 90.465 -282.8125 89.805 -282.8125 89.125 C-282.1525 89.125 -281.4925 89.125 -280.8125 89.125 C-280.8125 88.465 -280.8125 87.805 -280.8125 87.125 C-280.1525 87.125 -279.4925 87.125 -278.8125 87.125 C-278.8125 86.465 -278.8125 85.805 -278.8125 85.125 C-276.54267559 83.1073783 -274.47617404 81.41779737 -271.6875 80.1875 C-269.55325525 79.18263398 -269.55325525 79.18263398 -268.25 76.5 C-267.775625 75.71625 -267.30125 74.9325 -266.8125 74.125 C-265.8225 74.125 -264.8325 74.125 -263.8125 74.125 C-263.8125 73.465 -263.8125 72.805 -263.8125 72.125 C-260.97915774 70.1770772 -257.95548674 68.69522384 -254.875 67.1875 C-252.25439791 65.90444529 -249.83676253 64.53512542 -247.4375 62.875 C-244.8125 61.125 -244.8125 61.125 -242.8125 61.125 C-242.8125 60.465 -242.8125 59.805 -242.8125 59.125 C-240.542884 57.97670023 -238.27189222 56.83128022 -236 55.6875 C-235.35740234 55.36201172 -234.71480469 55.03652344 -234.05273438 54.70117188 C-231.32984534 53.33267324 -228.70800206 52.09016735 -225.8125 51.125 C-225.8125 50.465 -225.8125 49.805 -225.8125 49.125 C-224.76449219 48.72667969 -224.76449219 48.72667969 -223.6953125 48.3203125 C-222.78523438 47.96710938 -221.87515625 47.61390625 -220.9375 47.25 C-220.03257812 46.90195313 -219.12765625 46.55390625 -218.1953125 46.1953125 C-215.69032993 45.23969105 -215.69032993 45.23969105 -213.8125 43.125 C-212.15552621 42.43459426 -210.4869239 41.7719365 -208.8125 41.125 C-207.4203125 40.3825 -207.4203125 40.3825 -206 39.625 C-202.92703208 38.17889745 -200.18170854 37.40864141 -196.8984375 36.66015625 C-194.06272692 35.93264249 -191.38826957 34.89178415 -188.671875 33.80859375 C-186.8125 33.125 -186.8125 33.125 -184.640625 32.66015625 C-184.03734375 32.48355469 -183.4340625 32.30695313 -182.8125 32.125 C-182.4825 31.465 -182.1525 30.805 -181.8125 30.125 C-180.8225 30.125 -179.8325 30.125 -178.8125 30.125 C-178.8125 29.465 -178.8125 28.805 -178.8125 28.125 C-177.78511719 27.89425781 -176.75773438 27.66351563 -175.69921875 27.42578125 C-166.42252121 25.31038261 -166.42252121 25.31038261 -157.6875 21.625 C-151.74847507 18.72128176 -145.69279472 17.90985428 -139.22900391 16.86425781 C-129.1502099 15.1622712 -119.38201301 12.48211327 -109.53979492 9.76635742 C-108.30463135 9.42580322 -107.06946777 9.08524902 -105.796875 8.734375 C-104.69053711 8.42467773 -103.58419922 8.11498047 -102.44433594 7.79589844 C-99.8125 7.125 -99.8125 7.125 -97.8125 7.125 C-97.4825 6.465 -97.1525 5.805 -96.8125 5.125 C-96.8125 5.785 -96.8125 6.445 -96.8125 7.125 C-95.83361816 6.95109741 -95.83361816 6.95109741 -94.83496094 6.77368164 C-81.18493059 4.38193814 -67.80096265 2.50675436 -53.93286133 2.2668457 C-51.72099625 2.15934748 -51.72099625 2.15934748 -49.21044922 1.64868164 C-44.60209779 0.93845648 -40.01873857 0.75846662 -35.36328125 0.5703125 C-34.3513118 0.52826691 -33.33934235 0.48622131 -32.29670715 0.44290161 C-21.53067264 0.02773546 -10.77271522 -0.03080831 0 0 Z " fill="#F6F6F6" transform="translate(519.8125,119.875)"/>
<path d="M0 0 C24.31485153 -0.16043524 24.31485153 -0.16043524 34.765625 -0.1953125 C41.86665973 -0.21912395 48.96748604 -0.24713949 56.06835938 -0.30175781 C61.8001838 -0.34556438 67.53178437 -0.36920996 73.26376343 -0.37950897 C75.43878701 -0.38683833 77.61379984 -0.40114874 79.78872681 -0.42292023 C112.36105008 -0.73568807 112.36105008 -0.73568807 123.94921875 9.80078125 C133.79292626 20.35698568 135.77372795 31.2626915 135.34375 45.29296875 C134.63560726 57.86503154 129.7343919 66.97042012 120.5 75.3125 C107.09718761 86.04661081 92.65608903 85.41573416 76.26953125 85.29296875 C74.06565135 85.28736562 71.86176768 85.28309891 69.65788269 85.28010559 C63.88916502 85.26871333 58.12067803 85.23929496 52.35205078 85.20599365 C45.41356929 85.16974107 38.47501019 85.15610485 31.53646088 85.13863373 C21.02414737 85.109654 10.51233889 85.0521273 0 85 C0 56.95 0 28.9 0 0 Z " fill="#F6F6F6" transform="translate(526,298)"/>
<path d="M0 0 C52.82696629 0 52.82696629 0 65.765625 12.73828125 C71.47543956 18.96838265 76.18771965 26.07229564 81 33 C81.61617187 33.8765625 82.23234375 34.753125 82.8671875 35.65625 C85.38898586 39.31975807 87.39208727 42.78909435 89.10961914 46.91040039 C90.95588861 51.24333717 92.99140165 55.49058996 95 59.75 C95.43828125 60.69488281 95.8765625 61.63976562 96.328125 62.61328125 C96.75609375 63.51949219 97.1840625 64.42570313 97.625 65.359375 C98.20121094 66.58865723 98.20121094 66.58865723 98.7890625 67.84277344 C99.99164366 69.98511358 101.22172035 71.33023742 103 73 C107 78.48571429 107 78.48571429 107 82 C101.29430634 84.85284683 95.55277643 86.04393717 89.3046875 87.25390625 C86.10820816 87.8796245 86.10820816 87.8796245 83.64135742 88.96557617 C78.75384385 90.8796528 73.56750616 91.6999766 68.4375 92.75 C66.5510376 93.1370813 66.5510376 93.1370813 64.62646484 93.53198242 C54.15965437 95.651601 43.65341099 97.52693571 33.125 99.3125 C32.37894501 99.4412854 31.63289001 99.5700708 30.86422729 99.70275879 C28.68423886 100.07715275 26.50268084 100.44054643 24.3203125 100.80078125 C23.07523926 101.00872314 21.83016602 101.21666504 20.54736328 101.4309082 C14.06121255 102.24263468 7.52226836 102.56518211 1 103 C1 134.68 1 166.36 1 199 C0.67 199 0.34 199 0 199 C0 133.33 0 67.66 0 0 Z " fill="#8C8F95" transform="translate(524,495)"/>
<path d="M0 0 C6.6544175 -0.13831353 13.30378236 -0.25757952 19.95849609 -0.32958984 C22.2184343 -0.35962761 24.47825725 -0.40047087 26.73779297 -0.45263672 C29.99996484 -0.52602479 33.26058622 -0.55958763 36.5234375 -0.5859375 C37.52176605 -0.61690521 38.5200946 -0.64787292 39.54867554 -0.67977905 C47.15473178 -0.68336873 51.8819636 1.59040467 58 6 C58.886875 6.61875 59.77375 7.2375 60.6875 7.875 C67.04847746 13.72022253 72.49582132 20.63450416 77 28 C77 28.66 77 29.32 77 30 C76.33468262 30.05534912 75.66936523 30.11069824 74.98388672 30.16772461 C71.94737287 30.42178083 68.91119027 30.67960673 65.875 30.9375 C64.82828125 31.02451172 63.7815625 31.11152344 62.703125 31.20117188 C56.83310832 31.68931413 56.83310832 31.68931413 51.0078125 32.53125 C46.0343788 33.30633058 41.02542242 33.38367633 36 33.5625 C34.86256348 33.6049585 33.72512695 33.64741699 32.55322266 33.69116211 C21.69597186 34.06604426 10.86305114 34.07242034 0 34 C0 22.78 0 11.56 0 0 Z " fill="#F3F5F5" transform="translate(525,496)"/>
<path d="M0 0 C0.33 0 0.66 0 1 0 C1.02315902 39.54000093 1.04064366 79.08000095 1.05106533 118.62000737 C1.05231524 123.34473474 1.05360964 128.0694621 1.05493164 132.79418945 C1.05519395 133.7343464 1.05545626 134.67450335 1.05572652 135.6431499 C1.05948741 148.79341127 1.06563674 161.94366959 1.07373433 175.09392898 C1.0876836 197.75142095 1.09693762 220.40890972 1.09765625 243.06640625 C1.09769482 243.94585154 1.09773339 244.82529682 1.09777313 245.73139197 C1.09937052 300.15924369 0.93599255 354.57864395 0 409 C-0.66 409 -1.32 409 -2 409 C-2.33 380.95 -2.66 352.9 -3 324 C-3.66 324 -4.32 324 -5 324 C-5 323.01 -5 322.02 -5 321 C-3.35 321 -1.7 321 0 321 C0 215.07 0 109.14 0 0 Z " fill="#86A3D0" transform="translate(371,188)"/>
<path d="M0 0 C24.71593962 -0.04010881 24.71593962 -0.04010881 35.25390625 -0.04882812 C42.44352965 -0.05480515 49.6331403 -0.06187507 56.82275391 -0.07543945 C62.61934931 -0.0863072 68.41593105 -0.0922851 74.21253586 -0.09487724 C76.42370188 -0.09672447 78.63486717 -0.10033161 80.84602737 -0.10573006 C83.94375472 -0.11299202 87.04142566 -0.11398875 90.13916016 -0.11352539 C91.05266235 -0.11712067 91.96616455 -0.12071594 92.90734863 -0.12442017 C97.38843372 -0.11717025 101.58924986 0.08793825 106 1 C106 1.33 106 1.66 106 2 C72.01 2 38.02 2 3 2 C2.19674861 6.81950835 1.86732664 11.18779656 1.90234375 16.0234375 C1.9037587 16.76961334 1.90517365 17.51578918 1.90663147 18.28457642 C1.91219126 20.64809318 1.92473611 23.01151227 1.9375 25.375 C1.9425202 26.98567571 1.9470822 28.59635291 1.95117188 30.20703125 C1.96214749 34.13805799 1.97938404 38.06901248 2 42 C2.66 42 3.32 42 4 42 C4.05379226 44.95857409 4.09357093 47.91617721 4.125 50.875 C4.14175781 51.71675781 4.15851562 52.55851562 4.17578125 53.42578125 C4.18222656 54.23144531 4.18867187 55.03710938 4.1953125 55.8671875 C4.20578613 56.61081543 4.21625977 57.35444336 4.22705078 58.12060547 C4 60 4 60 2 62 C2 68.93 2 75.86 2 83 C35 83 68 83 102 83 C98.93003151 85.04664566 98.33471437 85.24926417 94.8808136 85.24050903 C94.04368835 85.24325836 93.20656311 85.24600769 92.34407043 85.24884033 C90.97166451 85.2380545 90.97166451 85.2380545 89.5715332 85.22705078 C88.60549164 85.22734283 87.63945007 85.22763489 86.64413452 85.22793579 C83.4462592 85.22654079 80.24861594 85.21097143 77.05078125 85.1953125 C74.83546577 85.19158298 72.62014865 85.18873572 70.40483093 85.18673706 C64.5702968 85.17909581 58.73586203 85.15944304 52.90136719 85.1373291 C45.90298262 85.11328703 38.90456485 85.10409204 31.90615082 85.09242249 C21.27069808 85.073019 10.63546341 85.03469972 0 85 C0 56.95 0 28.9 0 0 Z " fill="#DBECFB" transform="translate(526,298)"/>
<path d="M0 0 C0.33 0 0.66 0 1 0 C1 14.19 1 28.38 1 43 C58.915 43.99 58.915 43.99 118 45 C118 45.33 118 45.66 118 46 C79.06 46 40.12 46 0 46 C0 30.82 0 15.64 0 0 Z " fill="#366AA6" transform="translate(372,647)"/>
<path d="M0 0 C1.65 0 3.3 0 5 0 C5 29.04 5 58.08 5 88 C4.34 88 3.68 88 3 88 C2.67 59.95 2.34 31.9 2 3 C1.34 3 0.68 3 0 3 C0 2.01 0 1.02 0 0 Z " fill="#969DAD" transform="translate(366,509)"/>
<path d="M0 0 C3.699994 4.22856457 5.33312895 7.66625791 8 13 C-18.4 13 -44.8 13 -72 13 C-71.34 12.01 -70.68 11.02 -70 10 C-66.875 9.8125 -66.875 9.8125 -64 10 C-64 10.33 -64 10.66 -64 11 C-58.78556667 11.02470935 -53.57116739 11.04286444 -48.35668945 11.05493164 C-46.58259487 11.059962 -44.80850444 11.06678699 -43.03442383 11.07543945 C-40.48517839 11.08756174 -37.93598774 11.09324126 -35.38671875 11.09765625 C-34.59287277 11.10281754 -33.79902679 11.10797882 -32.98112488 11.11329651 C-29.72343714 11.11362877 -27.11318479 11.03772826 -24 10 C-22.45970483 10.23960147 -20.91987962 10.48268266 -19.3828125 10.7421875 C-13.95655401 11.32929088 -8.45087572 11.06804144 -3 11 C-1.45620868 7.3162378 -0.55316586 3.96435532 0 0 Z " fill="#235A9C" transform="translate(858,680)"/>
<path d="M0 0 C12.21 0 24.42 0 37 0 C36 2 36 2 32.9375 3.125 C31.968125 3.41375 30.99875 3.7025 30 4 C29.67 3.67 29.34 3.34 29 3 C22.14375409 1.8484066 17.12053602 1.32767839 11 5 C8.625 4.6875 8.625 4.6875 7 4 C7 3.01 7 2.02 7 1 C6.34 1 5.68 1 5 1 C5 1.99 5 2.98 5 4 C4.01 4 3.02 4 2 4 C2.09539063 5.01578125 2.19078125 6.0315625 2.2890625 7.078125 C3.01456283 15.72095038 2.95571922 23.46595248 1 32 C0.67 32 0.34 32 0 32 C0 21.44 0 10.88 0 0 Z " fill="#DFF5FB" transform="translate(525,496)"/>
<path d="M0 0 C1.258125 -0.020625 2.51625 -0.04125 3.8125 -0.0625 C4.52019531 -0.07410156 5.22789062 -0.08570313 5.95703125 -0.09765625 C8 0 8 0 11 1 C11 32.02 11 63.04 11 95 C10.67 95 10.34 95 10 95 C9.65846908 91.70913156 9.32833354 88.41720923 9 85.125 C8.90460938 84.2071875 8.80921875 83.289375 8.7109375 82.34375 C8.10589688 76.20690947 7.87934107 70.16533625 8 64 C8.66 64 9.32 64 10 64 C9.9278125 62.78054688 9.855625 61.56109375 9.78125 60.3046875 C8.75811427 41.20797755 8.90286752 22.11716546 9 3 C6.36 3 3.72 3 1 3 C0.67 2.01 0.34 1.02 0 0 Z " fill="#EAF5FC" transform="translate(360,597)"/>
<path d="M0 0 C0.99 0.33 1.98 0.66 3 1 C3.1894711 42.67489788 3.1894711 42.67489788 2.625 57 C2.59414307 57.91595947 2.56328613 58.83191895 2.53149414 59.77563477 C2.24785306 65.75214694 2.24785306 65.75214694 0 68 C0 45.56 0 23.12 0 0 Z " fill="#8290A3" transform="translate(525,530)"/>
<path d="M0 0 C6.6 0 13.2 0 20 0 C19.34 1.98 18.68 3.96 18 6 C12.39 6 6.78 6 1 6 C0.67 4.02 0.34 2.04 0 0 Z " fill="#ECEEF0" transform="translate(420,694)"/>
<path d="M0 0 C1.65322266 0.01740234 1.65322266 0.01740234 3.33984375 0.03515625 C4.99693359 0.04869141 4.99693359 0.04869141 6.6875 0.0625 C7.54214844 0.07410156 8.39679688 0.08570313 9.27734375 0.09765625 C6.51684037 2.85815963 4.07678391 2.56440149 0.27734375 3.09765625 C-0.71265625 3.75765625 -1.70265625 4.41765625 -2.72265625 5.09765625 C-2.72265625 4.43765625 -2.72265625 3.77765625 -2.72265625 3.09765625 C-3.60566406 3.36320312 -4.48867188 3.62875 -5.3984375 3.90234375 C-11.07730754 5.57367607 -16.68493359 7.18788913 -22.53515625 8.16015625 C-26.66811159 8.84797656 -30.44368405 9.91011196 -34.390625 11.296875 C-37.08679927 12.22269698 -39.79726175 13.05348553 -42.53515625 13.84765625 C-43.42847656 14.110625 -44.32179688 14.37359375 -45.2421875 14.64453125 C-47.80784192 15.11321773 -49.28284522 14.93936262 -51.72265625 14.09765625 C-50.80742187 13.83210938 -49.8921875 13.5665625 -48.94921875 13.29296875 C-47.76070313 12.93976562 -46.5721875 12.5865625 -45.34765625 12.22265625 C-44.16429687 11.87460937 -42.9809375 11.5265625 -41.76171875 11.16796875 C-38.65774067 10.32078206 -38.65774067 10.32078206 -36.72265625 8.09765625 C-34.54296875 7.55102539 -34.54296875 7.55102539 -31.84765625 7.1328125 C-30.86152344 6.97232422 -29.87539063 6.81183594 -28.859375 6.64648438 C-27.82425781 6.48599609 -26.78914063 6.32550781 -25.72265625 6.16015625 C-17.4412275 4.86850851 -7.75963033 0.27832247 0 0 Z " fill="#D3D5D6" transform="translate(317.72265625,13.90234375)"/>
<path d="M0 0 C0.66 0.33 1.32 0.66 2 1 C-1.12384123 4.13021642 -4.25853015 7.24917592 -7.3984375 10.36328125 C-9.05735698 12.01295516 -10.71620932 13.66269658 -12.375 15.3125 C-13.2 16.12912109 -14.025 16.94574219 -14.875 17.78710938 C-21.1024182 23.98981559 -27.19260065 30.26964091 -32.3125 37.4375 C-34.77777778 40.88888889 -34.77777778 40.88888889 -37 42 C-33.13037158 33.90735243 -26.93012929 27.67984869 -20.82885742 21.22973633 C-17.68180754 17.8829168 -14.74529099 14.50506722 -12 10.8125 C-9.63198686 7.64345526 -7.56214381 5.82920898 -4 4 C-2.63015802 2.70420353 -1.2848951 1.38007251 0 0 Z " fill="#D7D7D9" transform="translate(87,126)"/>
<path d="M0 0 C18.81 0 37.62 0 57 0 C57 0.66 57 1.32 57 2 C58.258125 1.938125 59.51625 1.87625 60.8125 1.8125 C63.62065146 1.67439419 64.59025178 1.64839787 66.76171875 3.51171875 C67.17035156 4.00285156 67.57898438 4.49398437 68 5 C65.45813394 4.68905914 62.91651402 4.37629464 60.375 4.0625 C59.66214844 3.97548828 58.94929687 3.88847656 58.21484375 3.79882812 C57.51230469 3.71181641 56.80976562 3.62480469 56.0859375 3.53515625 C55.1276001 3.41732788 55.1276001 3.41732788 54.14990234 3.29711914 C52.5621289 3.0776869 50.98239397 2.79816713 49.41015625 2.48632812 C44.72379836 1.81799874 40.08009751 1.76462687 35.3515625 1.68359375 C34.33903412 1.66281265 33.32650574 1.64203156 32.28329468 1.62062073 C29.06392902 1.55548402 25.84448506 1.49640768 22.625 1.4375 C20.43618997 1.39428063 18.24738773 1.35066527 16.05859375 1.30664062 C10.7058108 1.19983961 5.35295078 1.098008 0 1 C0 0.67 0 0.34 0 0 Z " fill="#DCEFFC" transform="translate(640,187)"/>
<path d="M0 0 C0.33 0 0.66 0 1 0 C1.2376397 2.8516764 1.428155 5.20344331 1 8 C-1.125 10 -1.125 10 -4 12 C-5.01661378 13.28371338 -5.99327602 14.59964175 -6.9375 15.9375 C-9.6302065 19.64344142 -12.21737761 22.39419346 -16 25 C-16.99 24.67 -17.98 24.34 -19 24 C-18.45472656 23.50113281 -17.90945313 23.00226563 -17.34765625 22.48828125 C-10.52600276 15.99313425 -4.24325533 8.48651066 0 0 Z " fill="#DFE8F0" transform="translate(799,399)"/>
<path d="M0 0 C0.66 0.66 1.32 1.32 2 2 C1.01 4.31 0.02 6.62 -1 9 C-0.34 9.33 0.32 9.66 1 10 C0.7834375 10.51046875 0.566875 11.0209375 0.34375 11.546875 C-1.81141228 17.17424317 -2.20060187 21.9265271 -2.046875 27.921875 C-1.99971999 31.01838762 -2.132585 34.03824902 -2.375 37.125 C-2.44460938 38.01445312 -2.51421875 38.90390625 -2.5859375 39.8203125 C-3 42 -3 42 -5 44 C-5.2899109 29.66551671 -5.35959405 14.78958552 -1 1 C-0.67 0.67 -0.34 0.34 0 0 Z " fill="#D5D6DA" transform="translate(7,258)"/>
<path d="M0 0 C1.09570312 0.00902344 2.19140625 0.01804688 3.3203125 0.02734375 C4.16335938 0.03894531 5.00640625 0.05054688 5.875 0.0625 C5.875 1.3825 5.875 2.7025 5.875 4.0625 C8.14086505 6.79716472 9.4764593 7.9296531 12.875 9.0625 C13.205 10.0525 13.535 11.0425 13.875 12.0625 C9.42313238 10.30979621 5.02016656 8.45178922 0.625 6.5625 C-0.1071875 6.25441406 -0.839375 5.94632813 -1.59375 5.62890625 C-7.01038592 3.29172816 -7.01038592 3.29172816 -8.125 1.0625 C-5.36047967 -0.31976016 -3.0788637 -0.03275387 0 0 Z " fill="#D8E3EF" transform="translate(746.125,199.9375)"/>
<path d="M0 0 C2.61367414 0.44805842 4.84285343 0.9257919 7.25 2.0625 C11.13866853 3.38818245 14.92350242 3.34437995 19 3 C19.66 2.67 20.32 2.34 21 2 C22.99960012 1.960008 25.00047242 1.95653201 27 2 C27 2.99 27 3.98 27 5 C17.76 5 8.52 5 -1 5 C-0.67 3.35 -0.34 1.7 0 0 Z " fill="#2F61AB" transform="translate(533,490)"/>
<path d="M0 0 C0.33 0 0.66 0 1 0 C4.70345659 17.94412895 4.3094246 35.77727122 4 54 C3.67 54 3.34 54 3 54 C2.98018066 53.21463867 2.96036133 52.42927734 2.93994141 51.62011719 C2.84357316 47.99645801 2.73435482 44.37328963 2.625 40.75 C2.5940625 39.51507813 2.563125 38.28015625 2.53125 37.0078125 C2.31227866 30.07372002 1.68613579 23.46471315 0.43212891 16.64355469 C-0.14482344 13.11404058 -0.19650115 9.82505734 -0.125 6.25 C-0.10695313 5.05890625 -0.08890625 3.8678125 -0.0703125 2.640625 C-0.04710937 1.76921875 -0.02390625 0.8978125 0 0 Z " fill="#3C72AD" transform="translate(814,288)"/>
<path d="M0 0 C6.93 0 13.86 0 21 0 C20.67 0.99 20.34 1.98 20 3 C13.4 3 6.8 3 0 3 C0 2.01 0 1.02 0 0 Z " fill="#FAFCFD" transform="translate(479,0)"/>
<path d="M0 0 C0.33 0.99 0.66 1.98 1 3 C1.66 3 2.32 3 3 3 C5.23491614 14.81312816 3.86685875 27.08069219 3 39 C2.67 39 2.34 39 2 39 C1.97494385 38.20940186 1.9498877 37.41880371 1.92407227 36.60424805 C1.80685565 32.96521698 1.68470755 29.32636675 1.5625 25.6875 C1.52318359 24.44419922 1.48386719 23.20089844 1.44335938 21.91992188 C1.19298646 14.58206944 0.76882404 7.3024134 0 0 Z " fill="#C8D9EF" transform="translate(816,297)"/>
<path d="M0 0 C3.81014932 1.27004977 4.17627457 2.51113397 6 6 C6.4640625 7.175625 6.4640625 7.175625 6.9375 8.375 C7.85278858 10.6363012 8.86540743 12.48969679 10.125 14.5625 C12 18 12 18 12 22 C12.66 22 13.32 22 14 22 C14.66 24.97 15.32 27.94 16 31 C13.21131537 29.60565769 12.82775927 27.92218301 11.50390625 25.1171875 C11.02759766 24.11429688 10.55128906 23.11140625 10.06054688 22.078125 C9.56619141 21.02109375 9.07183594 19.9640625 8.5625 18.875 C8.07201172 17.84117187 7.58152344 16.80734375 7.07617188 15.7421875 C4.61533946 10.53491999 2.22055091 5.31426759 0 0 Z " fill="#4D6F9F" transform="translate(609,535)"/>
<path d="M0 0 C3.29159316 -0.05790353 6.58305603 -0.09356261 9.875 -0.125 C10.81214844 -0.14175781 11.74929688 -0.15851562 12.71484375 -0.17578125 C13.61074219 -0.18222656 14.50664062 -0.18867187 15.4296875 -0.1953125 C16.25710449 -0.20578613 17.08452148 -0.21625977 17.93701172 -0.22705078 C20 0 20 0 22 2 C19.23434618 2.92188461 17.61716298 3.11785222 14.76953125 3.09765625 C13.96708984 3.09443359 13.16464844 3.09121094 12.33789062 3.08789062 C11.50451172 3.07951172 10.67113281 3.07113281 9.8125 3.0625 C8.96751953 3.05798828 8.12253906 3.05347656 7.25195312 3.04882812 C5.16793845 3.03705403 3.08396023 3.0191189 1 3 C0.67 2.01 0.34 1.02 0 0 Z " fill="#FAFCFD" transform="translate(401,0)"/>
<path d="M0 0 C0.99 0 1.98 0 3 0 C3.08069658 2.95887459 3.14034665 5.9155659 3.1875 8.875 C3.22520508 10.13763672 3.22520508 10.13763672 3.26367188 11.42578125 C3.27333984 12.23144531 3.28300781 13.03710938 3.29296875 13.8671875 C3.3086792 14.61081543 3.32438965 15.35444336 3.34057617 16.12060547 C3.17199097 17.05090576 3.17199097 17.05090576 3 18 C2.01 18.66 1.02 19.32 0 20 C0 13.4 0 6.8 0 0 Z " fill="#EBEEEA" transform="translate(527,340)"/>
<path d="M0 0 C-1.16917969 0.54269531 -2.33835938 1.08539063 -3.54296875 1.64453125 C-5.09121237 2.36704494 -6.63938576 3.08970913 -8.1875 3.8125 C-8.95642578 4.16892578 -9.72535156 4.52535156 -10.51757812 4.89257812 C-13.72216675 6.39172044 -16.8128147 7.88686603 -19.84375 9.71875 C-22.519777 11.308853 -24.93282221 11.64335142 -28 12 C-24.81618457 8.3067741 -21.43465751 6.74094953 -17 5 C-15.43412584 4.32022017 -13.87169231 3.63246894 -12.3125 2.9375 C-11.58675781 2.61652344 -10.86101562 2.29554687 -10.11328125 1.96484375 C-7.97914838 1.03374257 -7.97914838 1.03374257 -5.98046875 -0.18359375 C-3.53822954 -1.19035508 -2.47512853 -0.72691803 0 0 Z " fill="#D8D9DA" transform="translate(202,54)"/>
<path d="M0 0 C0.33 0 0.66 0 1 0 C1 7.92 1 15.84 1 24 C-2.50744552 16.98510896 -2.14188361 9.69324466 -2 2 C-1.34 2 -0.68 2 0 2 C0 1.34 0 0.68 0 0 Z " fill="#EBEFFA" transform="translate(370,259)"/>
<path d="M0 0 C0.66 0 1.32 0 2 0 C2 0.66 2 1.32 2 2 C2.66 2 3.32 2 4 2 C4.12117187 2.62648438 4.24234375 3.25296875 4.3671875 3.8984375 C4.53476562 4.71570313 4.70234375 5.53296875 4.875 6.375 C5.03742187 7.18710937 5.19984375 7.99921875 5.3671875 8.8359375 C5.86658932 11.18673923 5.86658932 11.18673923 8 13 C8 13.99 8 14.98 8 16 C9.32 16 10.64 16 12 16 C11.67 17.98 11.34 19.96 11 22 C6.77891014 18.53267618 4.68958366 14.10469956 3 9 C3 7.68 3 6.36 3 5 C2.34 5 1.68 5 1 5 C0.67 3.35 0.34 1.7 0 0 Z " fill="#2860A4" transform="translate(620,552)"/>
<path d="M0 0 C0.99 0.33 1.98 0.66 3 1 C3 1.99 3 2.98 3 4 C2.44570313 4.24234375 1.89140625 4.4846875 1.3203125 4.734375 C0.23363281 5.23710937 0.23363281 5.23710937 -0.875 5.75 C-1.59429688 6.07484375 -2.31359375 6.3996875 -3.0546875 6.734375 C-5.35315857 8.22976582 -5.85867383 9.56216736 -7 12 C-9.375 12.6875 -9.375 12.6875 -12 13 C-13.33542939 13.32483418 -14.66961551 13.6550855 -16 14 C-13.30616627 11.20798554 -10.53044432 8.77683352 -7.4375 6.4375 C-4.77572781 4.42209407 -2.30285654 2.42057445 0 0 Z " fill="#D2E8F3" transform="translate(777,426)"/>
<path d="M0 0 C0.99 0.33 1.98 0.66 3 1 C2.01 2.485 2.01 2.485 1 4 C1.08571661 6.09291157 1.08571661 6.09291157 2 8 C2.99 8.66 3.98 9.32 5 10 C5 10.66 5 11.32 5 12 C1.75728494 11.4409112 0.06942576 10.5867822 -2 8 C-2 7.34 -2 6.68 -2 6 C-3.65 5.67 -5.3 5.34 -7 5 C-2.25 1.125 -2.25 1.125 0 0 Z " fill="#7D8997" transform="translate(744,485)"/>
<path d="M0 0 C0.66 0.33 1.32 0.66 2 1 C1.54619105 2.89692143 1.08675008 4.79249595 0.625 6.6875 C0.36976562 7.74324219 0.11453125 8.79898438 -0.1484375 9.88671875 C-1 13 -1 13 -2.1015625 15.70703125 C-3.18240898 18.05508929 -3.18240898 18.05508929 -3 21 C-3.94726954 22.69719127 -4.94228261 24.36935236 -6 26 C-7.78243584 21.83018039 -6.05662953 18.16931217 -4.6875 14.125 C-4.3481543 13.08279297 -4.3481543 13.08279297 -4.00195312 12.01953125 C-3.34514194 10.00934833 -2.67467253 8.00424884 -2 6 C-1.61457031 4.84242188 -1.22914062 3.68484375 -0.83203125 2.4921875 C-0.55746094 1.66976562 -0.28289063 0.84734375 0 0 Z " fill="#DCDDDD" transform="translate(17,221)"/>
<path d="M0 0 C0.35555556 5.33333333 0.35555556 5.33333333 -1 7.875 C-4.25313684 9.70488947 -7.31390109 9.18128355 -11 9 C-10.34 8.67 -9.68 8.34 -9 8 C-9 7.34 -9 6.68 -9 6 C-7.5390625 4.4921875 -7.5390625 4.4921875 -5.625 2.875 C-4.99851562 2.33617187 -4.37203125 1.79734375 -3.7265625 1.2421875 C-2 0 -2 0 0 0 Z " fill="#E9E9EB" transform="translate(800,491)"/>
<path d="M0 0 C0 0.66 0 1.32 0 2 C-1.98 2.33 -3.96 2.66 -6 3 C-4.4221875 3.4021875 -4.4221875 3.4021875 -2.8125 3.8125 C0.57519246 4.8676829 3.07089567 6.04726378 6 8 C4 9 4 9 2.12060547 8.56274414 C1.37697754 8.30614014 0.63334961 8.04953613 -0.1328125 7.78515625 C-0.93847656 7.51123047 -1.74414062 7.23730469 -2.57421875 6.95507812 C-3.41597656 6.66052734 -4.25773438 6.36597656 -5.125 6.0625 C-6.39923828 5.62647461 -6.39923828 5.62647461 -7.69921875 5.18164062 C-9.80186749 4.46106999 -11.90187477 3.73361685 -14 3 C-9.31017775 0.56089583 -5.28875777 -0.15110736 0 0 Z " fill="#CBE2F7" transform="translate(700,465)"/>
<path d="M0 0 C2.475 0.495 2.475 0.495 5 1 C5.03738281 1.61746094 5.07476563 2.23492187 5.11328125 2.87109375 C5.46837544 7.44554241 6.03276316 11.49383021 7.625 15.8125 C8.88357517 19.24166133 9.26323028 21.43998739 8 25 C7.67 25 7.34 25 7 25 C6.85900879 24.45585449 6.71801758 23.91170898 6.57275391 23.35107422 C5.9256261 20.85849266 5.27533833 18.36674575 4.625 15.875 C4.40328125 15.0190625 4.1815625 14.163125 3.953125 13.28125 C2.7799084 8.79542181 1.53622605 4.37896212 0 0 Z " fill="#D8ECFB" transform="translate(808,268)"/>
<path d="M0 0 C1.11885504 3.372234 0.86220189 5.65812711 0.07421875 9.09765625 C-0.14556641 10.06380859 -0.36535156 11.02996094 -0.59179688 12.02539062 C-0.82962891 13.02763672 -1.06746094 14.02988281 -1.3125 15.0625 C-1.6518457 16.57166992 -1.6518457 16.57166992 -1.99804688 18.11132812 C-3.73419899 25.60129848 -3.73419899 25.60129848 -6 29 C-6.05472088 27.60461746 -6.09311538 26.20859103 -6.125 24.8125 C-6.14820313 24.03519531 -6.17140625 23.25789063 -6.1953125 22.45703125 C-5.96928616 19.61361989 -5.1010373 17.63025578 -4 15 C-3.26159151 12.39940077 -2.5509932 9.80384406 -1.875 7.1875 C-1.69324219 6.49462891 -1.51148438 5.80175781 -1.32421875 5.08789062 C-0.87995492 3.39267339 -0.4395801 1.69643778 0 0 Z " fill="#3B6BAB" transform="translate(816,346)"/>
<path d="M0 0 C2.1328125 0.37109375 2.1328125 0.37109375 4 1 C0.67219081 3.34130449 -2.66194611 5.67332662 -6 8 C-6.63679687 8.44730469 -7.27359375 8.89460938 -7.9296875 9.35546875 C-11.76759928 12 -11.76759928 12 -14 12 C-14 12.66 -14 13.32 -14 14 C-15.98 14.66 -17.96 15.32 -20 16 C-16.27511295 11.77846134 -12.24138058 9.28031383 -7.3671875 6.49609375 C-5.24791371 5.15668474 -3.77947208 3.91735845 -2.125 2.0625 C-1.42375 1.381875 -0.7225 0.70125 0 0 Z " fill="#D6D8D9" transform="translate(146,80)"/>
<path d="M0 0 C0 0.66 0 1.32 0 2 C-0.66 2 -1.32 2 -2 2 C-2.24105469 2.63421875 -2.48210938 3.2684375 -2.73046875 3.921875 C-4 6 -4 6 -5.98828125 6.828125 C-6.75527344 6.96734375 -7.52226563 7.1065625 -8.3125 7.25 C-9.51132812 7.47042969 -9.51132812 7.47042969 -10.734375 7.6953125 C-13.18300268 8.0246107 -15.53246834 8.15919559 -18 8 C-14.90178117 5.93452078 -11.81550648 4.43756389 -8.4375 2.875 C-7.28121094 2.33617187 -6.12492188 1.79734375 -4.93359375 1.2421875 C-2 0 -2 0 0 0 Z " fill="#D8E9F6" transform="translate(748,448)"/>
<path d="M0 0 C2.74277578 3.19990508 4.6302836 6.00499382 6 10 C2.63458162 11.08174162 1.70152678 10.92538169 -2 10 C-1.34 6.7 -0.68 3.4 0 0 Z " fill="#2A689F" transform="translate(858,680)"/>
<path d="M0 0 C2.79192205 -0.05380578 5.5828141 -0.09357669 8.375 -0.125 C9.1690625 -0.14175781 9.963125 -0.15851562 10.78125 -0.17578125 C12.85492015 -0.19335473 14.92883241 -0.10335168 17 0 C17.66 0.66 18.32 1.32 19 2 C12.29980211 2.70132913 5.73742646 3.11044961 -1 3 C-0.67 2.01 -0.34 1.02 0 0 Z " fill="#EAECED" transform="translate(421,0)"/>
<path d="M0 0 C0.99 0 1.98 0 3 0 C3.33 1.98 3.66 3.96 4 6 C4.93585937 6.12181641 4.93585937 6.12181641 5.890625 6.24609375 C8 7 8 7 9.046875 8.84765625 C9.27890625 9.57855469 9.5109375 10.30945313 9.75 11.0625 C9.99234375 11.79597656 10.2346875 12.52945312 10.484375 13.28515625 C10.65453125 13.85105469 10.8246875 14.41695313 11 15 C9.35 15 7.7 15 6 15 C5.7525 14.195625 5.505 13.39125 5.25 12.5625 C3.73921353 8.25675857 1.89811144 4.14635993 0 0 Z " fill="#5B759B" transform="translate(749,497)"/>
<path d="M0 0 C1.32 0.33 2.64 0.66 4 1 C2.75796305 2.46512126 1.50602944 3.92185645 0.25 5.375 C-0.44609375 6.18710937 -1.1421875 6.99921875 -1.859375 7.8359375 C-3.85949643 9.85795807 -5.39531129 10.93231229 -8 12 C-7.67 10.35 -7.34 8.7 -7 7 C-6.34 7 -5.68 7 -5 7 C-5 6.01 -5 5.02 -5 4 C-4.34 4 -3.68 4 -3 4 C-3 3.34 -3 2.68 -3 2 C-2.01 2 -1.02 2 0 2 C0 1.34 0 0.68 0 0 Z " fill="#2D64A9" transform="translate(783,416)"/>
<path d="M0 0 C0.99 0 1.98 0 3 0 C3.33 0.99 3.66 1.98 4 3 C7.05508026 6.03277199 7.05508026 6.03277199 11 7 C11 8.98 11 10.96 11 13 C10.01 13.495 10.01 13.495 9 14 C7.6827656 12.23268551 6.37136412 10.46102239 5.0625 8.6875 C4.33160156 7.70136719 3.60070312 6.71523437 2.84765625 5.69921875 C1 3 1 3 0 0 Z " fill="#D9EBF7" transform="translate(789,236)"/>
<path d="M0 0 C2.97 0.495 2.97 0.495 6 1 C4.11543017 3.54971212 2.95658489 4.01021532 -0.1875 4.75 C-4.3578714 5.02346698 -7.88254421 4.6501246 -12 4 C-12 3.34 -12 2.68 -12 2 C-10.20841511 1.97303635 -8.41671527 1.95362083 -6.625 1.9375 C-5.62726562 1.92589844 -4.62953125 1.91429687 -3.6015625 1.90234375 C-1 2 -1 2 1 3 C0.67 2.01 0.34 1.02 0 0 Z " fill="#DFE8F3" transform="translate(633,376)"/>
<path d="M0 0 C0.33 0.66 0.66 1.32 1 2 C1.84304688 1.75443359 1.84304688 1.75443359 2.703125 1.50390625 C5.13059056 0.97135003 7.26889681 0.90101319 9.75 0.9375 C10.54921875 0.94652344 11.3484375 0.95554687 12.171875 0.96484375 C12.77515625 0.97644531 13.3784375 0.98804687 14 1 C13.67 1.66 13.34 2.32 13 3 C10.8203125 3.34375 10.8203125 3.34375 8.125 3.5 C4.41961747 3.71605729 3.19107794 3.87261471 0 6 C0 5.34 0 4.68 0 4 C-1.98 4 -3.96 4 -6 4 C-2.25 2 -2.25 2 0 2 C0 1.34 0 0.68 0 0 Z " fill="#D8D9DA" transform="translate(422,125)"/>
<path d="M0 0 C0 0.66 0 1.32 0 2 C1.258125 1.938125 2.51625 1.87625 3.8125 1.8125 C6.62065146 1.67439419 7.59025178 1.64839787 9.76171875 3.51171875 C10.17035156 4.00285156 10.57898438 4.49398437 11 5 C8.45813394 4.68905914 5.91651402 4.37629464 3.375 4.0625 C2.66214844 3.97548828 1.94929687 3.88847656 1.21484375 3.79882812 C-2.87591961 3.29217395 -6.93842635 2.7110957 -11 2 C-11 1.67 -11 1.34 -11 1 C-3.375 0 -3.375 0 0 0 Z " fill="#CBE2F4" transform="translate(697,187)"/>
<path d="M0 0 C0.99 0.33 1.98 0.66 3 1 C2.22914063 1.61488281 1.45828125 2.22976563 0.6640625 2.86328125 C-0.33882812 3.67152344 -1.34171875 4.47976563 -2.375 5.3125 C-3.37273438 6.11300781 -4.37046875 6.91351563 -5.3984375 7.73828125 C-8.13480753 9.91621686 -8.13480753 9.91621686 -10 13 C-11.32 12.67 -12.64 12.34 -14 12 C-12.33949633 10.57671114 -10.67817848 9.15460301 -9.01171875 7.73828125 C-7.68313853 6.59028475 -6.37254068 5.42110169 -5.08203125 4.23046875 C-4.47746094 3.68003906 -3.87289062 3.12960937 -3.25 2.5625 C-2.69828125 2.04816406 -2.1465625 1.53382813 -1.578125 1.00390625 C-0.79695312 0.50697266 -0.79695312 0.50697266 0 0 Z " fill="#98989B" transform="translate(788,455)"/>
<path d="M0 0 C0.66 1.32 1.32 2.64 2 4 C1.01 4 0.02 4 -1 4 C-1.33 4.99 -1.66 5.98 -2 7 C-4.64 7 -7.28 7 -10 7 C-7.2180632 3.72713318 -3.72045933 2.03572303 0 0 Z " fill="#D4E1EF" transform="translate(758,441)"/>
<path d="M0 0 C0.9283895 2.52568075 1.10091513 3.70578971 0.21484375 6.2890625 C-3.26535992 12.65347166 -3.26535992 12.65347166 -7.3125 14.5625 C-8.199375 14.706875 -9.08625 14.85125 -10 15 C-9.61328125 14.50371094 -9.2265625 14.00742187 -8.828125 13.49609375 C-5.49729049 9.15116853 -2.60742538 4.81370839 0 0 Z " fill="#4575B8" transform="translate(657,358)"/>
<path d="M0 0 C0.33 0 0.66 0 1 0 C1.02690844 2.62506802 1.04679404 5.24986173 1.0625 7.875 C1.07087891 8.62136719 1.07925781 9.36773437 1.08789062 10.13671875 C1.11328125 15.7734375 1.11328125 15.7734375 0 18 C-0.66 18 -1.32 18 -2 18 C-1.42085333 11.98673249 -0.77662055 5.99107278 0 0 Z " fill="#C2DDF2" transform="translate(817,342)"/>
<path d="M0 0 C3.125 -0.1875 3.125 -0.1875 6 0 C6 0.33 6 0.66 6 1 C10.29 1.33 14.58 1.66 19 2 C19 2.33 19 2.66 19 3 C12.07 3 5.14 3 -2 3 C-1.34 2.01 -0.68 1.02 0 0 Z " fill="#1F5FA2" transform="translate(788,690)"/>
<path d="M0 0 C0.99 0.33 1.98 0.66 3 1 C1.55575365 4.23861303 -0.25772247 6.61969163 -2.625 9.25 C-3.25664063 9.95640625 -3.88828125 10.6628125 -4.5390625 11.390625 C-5.02117188 11.92171875 -5.50328125 12.4528125 -6 13 C-6 9.32965255 -4.9247108 7.9000569 -3 4.8125 C-2.443125 3.91144531 -1.88625 3.01039063 -1.3125 2.08203125 C-0.6628125 1.05142578 -0.6628125 1.05142578 0 0 Z " fill="#908F94" transform="translate(825,410)"/>
<path d="M0 0 C0.66 0.33 1.32 0.66 2 1 C-1.27429093 5.33362035 -3.76986166 8.02416996 -9 10 C-9.66 9.67 -10.32 9.34 -11 9 C-10.34 8.01 -9.68 7.02 -9 6 C-8.01 6 -7.02 6 -6 6 C-6 5.34 -6 4.68 -6 4 C-4.36368108 2.95107762 -2.69514137 1.95093297 -1 1 C-0.67 0.67 -0.34 0.34 0 0 Z " fill="#D7D7D9" transform="translate(262,188)"/>
<path d="M0 0 C4.13767263 4.43322068 5.95528874 9.39879629 8 15 C7.01 15.495 7.01 15.495 6 16 C4.9901527 14.08850332 3.99245505 12.17058431 3 10.25 C2.443125 9.18265625 1.88625 8.1153125 1.3125 7.015625 C0 4 0 4 0 0 Z " fill="#2E65A1" transform="translate(652,612)"/>
<path d="M0 0 C2.10544013 0.28232721 4.20933589 0.5761898 6.3125 0.875 C7.48425781 1.03742188 8.65601563 1.19984375 9.86328125 1.3671875 C13 2 13 2 16 4 C14.08458862 4.10841951 12.16740227 4.18578079 10.25 4.25 C8.64898438 4.31960937 8.64898438 4.31960937 7.015625 4.390625 C3.36197888 3.91735478 2.27771895 2.80844958 0 0 Z " fill="#4275B5" transform="translate(701,191)"/>
<path d="M0 0 C0.99 0.33 1.98 0.66 3 1 C3.125 7.625 3.125 7.625 2 11 C1.34 11 0.68 11 0 11 C0 7.37 0 3.74 0 0 Z " fill="#E8EFFB" transform="translate(525,671)"/>
<path d="M0 0 C3.81014932 1.27004977 4.17627457 2.51113397 6 6 C7.34971475 8.98357998 8 10.70334304 8 14 C3.66029235 10.07359784 1.67347501 5.53534043 0 0 Z " fill="#3566A1" transform="translate(609,535)"/>
<path d="M0 0 C0.99 0.33 1.98 0.66 3 1 C-0.15221101 5.41309542 -3.55463907 8.00793014 -8 11 C-6.63629701 8.00779732 -5.05091917 5.70973471 -2.875 3.25 C-2.33617187 2.63640625 -1.79734375 2.0228125 -1.2421875 1.390625 C-0.62730469 0.70226562 -0.62730469 0.70226562 0 0 Z " fill="#959599" transform="translate(812,430)"/>
<path d="M0 0 C1 3 1 3 -0.109375 5.59375 C-0.65078125 6.5528125 -1.1921875 7.511875 -1.75 8.5 C-2.28109375 9.4590625 -2.8121875 10.418125 -3.359375 11.40625 C-4.76099554 13.62214532 -6.05639412 15.26714656 -8 17 C-7.41734728 12.57676318 -5.73233789 9.4844136 -3.4375 5.6875 C-2.79683594 4.61886719 -2.15617187 3.55023438 -1.49609375 2.44921875 C-1.00238281 1.64097656 -0.50867188 0.83273438 0 0 Z " fill="#D8DADB" transform="translate(31,195)"/>
<path d="M0 0 C6.70126536 -0.48736475 11.06561592 0.92291196 17 4 C17 4.66 17 5.32 17 6 C16.35933594 5.80664062 15.71867188 5.61328125 15.05859375 5.4140625 C10.04889015 3.9059252 5.03460143 2.42282214 0 1 C0 0.67 0 0.34 0 0 Z " fill="#C4DDF3" transform="translate(717,194)"/>
<path d="M0 0 C2.10583487 0.45060661 4.20962872 0.91075956 6.3125 1.375 C7.48425781 1.63023437 8.65601563 1.88546875 9.86328125 2.1484375 C13 3 13 3 16 5 C14.68 5.33 13.36 5.66 12 6 C12 5.34 12 4.68 12 4 C7.71 3.67 3.42 3.34 -1 3 C-0.67 2.01 -0.34 1.02 0 0 Z " fill="#E4E5E8" transform="translate(672,137)"/>
<path d="M0 0 C0.33 0 0.66 0 1 0 C1 2.64 1 5.28 1 8 C-0.65 8.33 -2.3 8.66 -4 9 C-3.35499066 5.51694958 -1.95865224 2.93797836 0 0 Z " fill="#DCE8F8" transform="translate(799,399)"/>
<path d="M0 0 C0.66 0.33 1.32 0.66 2 1 C-1.63 4.3 -5.26 7.6 -9 11 C-9 10.01 -9 9.02 -9 8 C-7.68 7.34 -6.36 6.68 -5 6 C-5 5.01 -5 4.02 -5 3 C-2.625 1.25 -2.625 1.25 0 0 Z " fill="#D8D9DA" transform="translate(99,115)"/>
<path d="M0 0 C3.09592835 3.5087188 4.74194623 6.49197399 6 11 C4.0625 10.25 4.0625 10.25 2 9 C1.375 6.9375 1.375 6.9375 1 5 C0.34 4.67 -0.32 4.34 -1 4 C-0.67 2.68 -0.34 1.36 0 0 Z " fill="#D8ECF7" transform="translate(686,681)"/>
<path d="M0 0 C2.33944736 0.28730055 4.6739143 0.61936779 7 1 C6.67 1.66 6.34 2.32 6 3 C3.6875 3.5625 3.6875 3.5625 1 4 C-0.33542939 4.32483418 -1.66961551 4.6550855 -3 5 C-1.125 1.125 -1.125 1.125 0 0 Z " fill="#2469A7" transform="translate(699,473)"/>
<path d="M0 0 C0.66 0.33 1.32 0.66 2 1 C0.56839732 2.00842453 -0.87051453 3.00647891 -2.3125 4 C-3.51326172 4.8353125 -3.51326172 4.8353125 -4.73828125 5.6875 C-7 7 -7 7 -10 7 C-10 6.34 -10 5.68 -10 5 C-8.38007835 4.13624104 -6.75388139 3.28424146 -5.125 2.4375 C-4.22007812 1.96183594 -3.31515625 1.48617187 -2.3828125 0.99609375 C-1.20332031 0.50302734 -1.20332031 0.50302734 0 0 Z " fill="#D9DADC" transform="translate(172,66)"/>
<path d="M0 0 C3.51098025 4.01254885 5.76537994 8.20983041 8 13 C7.34 13 6.68 13 6 13 C6 12.34 6 11.68 6 11 C5.01 10.67 4.02 10.34 3 10 C2.6278958 8.67696283 2.29369827 7.34262065 2 6 C1.34 5.67 0.68 5.34 0 5 C0 3.35 0 1.7 0 0 Z " fill="#3C6FA3" transform="translate(845,658)"/>
<path d="M0 0 C2.72426311 2.35277269 3.8141763 4.62496331 5 8 C3.02 8 1.04 8 -1 8 C-0.67 5.36 -0.34 2.72 0 0 Z " fill="#D8DFEE" transform="translate(597,518)"/>
<path d="M0 0 C2.48982535 2.27745789 4.10368997 4.62335238 5.75 7.5625 C6.19859375 8.34753906 6.6471875 9.13257813 7.109375 9.94140625 C7.40328125 10.62074219 7.6971875 11.30007813 8 12 C7.67 12.66 7.34 13.32 7 14 C6.0106909 12.61133677 5.03396922 11.21370149 4.0625 9.8125 C3.51722656 9.03519531 2.97195312 8.25789063 2.41015625 7.45703125 C0.9543711 4.92049701 0.40386565 2.8781818 0 0 Z " fill="#D5D6D8" transform="translate(28,403)"/>
<path d="M0 0 C0.66 0.66 1.32 1.32 2 2 C1.01 4.31 0.02 6.62 -1 9 C-0.34 9.33 0.32 9.66 1 10 C0.34 11.65 -0.32 13.3 -1 15 C-1.33 15 -1.66 15 -2 15 C-2.21755666 9.5610835 -2.10428384 5.12919186 0 0 Z " fill="#CDCFD0" transform="translate(7,258)"/>
<path d="M0 0 C3.09592835 3.5087188 4.74194623 6.49197399 6 11 C3.525 10.01 3.525 10.01 1 9 C0.67 6.03 0.34 3.06 0 0 Z " fill="#D1E9F9" transform="translate(659,630)"/>
<path d="M0 0 C2.9555377 2.75170751 5.11563315 5.41970299 7 9 C7 9.66 7 10.32 7 11 C6.01 11 5.02 11 4 11 C3.32880451 9.5437455 2.66318193 8.08492133 2 6.625 C1.62875 5.81289063 1.2575 5.00078125 0.875 4.1640625 C0 2 0 2 0 0 Z " fill="#396BA4" transform="translate(826,627)"/>
<path d="M0 0 C6.0546875 -0.1953125 6.0546875 -0.1953125 8 0 C8.66 0.66 9.32 1.32 10 2 C9 3 9 3 7.15234375 3.09765625 C5.1015625 3.06510417 3.05078125 3.03255208 1 3 C0.67 2.01 0.34 1.02 0 0 Z " fill="#EAEAEC" transform="translate(360,597)"/>
<path d="M0 0 C2.74277578 3.19990508 4.6302836 6.00499382 6 10 C5.01 10 4.02 10 3 10 C0.96564469 6.27034861 0 4.33094958 0 0 Z " fill="#3C6EA9" transform="translate(766,525)"/>
<path d="M0 0 C6 3 6 3 6.6328125 4.84765625 C6.79523437 5.57855469 6.95765625 6.30945313 7.125 7.0625 C7.29257812 7.79597656 7.46015625 8.52945313 7.6328125 9.28515625 C7.75398437 9.85105469 7.87515625 10.41695312 8 11 C4.31993178 7.61831569 2.0214155 4.57478244 0 0 Z " fill="#3766A5" transform="translate(597,517)"/>
<path d="M0 0 C0.99 0.66 1.98 1.32 3 2 C-0.3 4.31 -3.6 6.62 -7 9 C-7.33 8.01 -7.66 7.02 -8 6 C-6.35 5.67 -4.7 5.34 -3 5 C-3 4.34 -3 3.68 -3 3 C-2.34 3 -1.68 3 -1 3 C-0.67 2.01 -0.34 1.02 0 0 Z " fill="#3871AE" transform="translate(765,433)"/>
<path d="M0 0 C0.66 0.33 1.32 0.66 2 1 C-1.51582826 5.66283606 -4.03648545 8.72210402 -10 10 C-10 9.34 -10 8.68 -10 8 C-9.443125 7.773125 -8.88625 7.54625 -8.3125 7.3125 C-5.36305245 5.63848923 -3.3247731 3.45043651 -1 1 C-0.67 0.67 -0.34 0.34 0 0 Z " fill="#E2E3E6" transform="translate(235,211)"/>
<path d="M0 0 C1.32 0.33 2.64 0.66 4 1 C4 2.32 4 3.64 4 5 C2.02 5 0.04 5 -2 5 C-1.34 3.35 -0.68 1.7 0 0 Z " fill="#1C5CB1" transform="translate(786,563)"/>
<path d="M0 0 C0 3.15987325 -0.38214873 4.36034793 -2 7 C-2.99 7.66 -3.98 8.32 -5 9 C-5.99 8.67 -6.98 8.34 -8 8 C-5.36 5.36 -2.72 2.72 0 0 Z " fill="#C8E2F1" transform="translate(788,415)"/>
<path d="M0 0 C0.66 0 1.32 0 2 0 C1.39301257 4.12751449 -0.03810791 7.3321148 -2 11 C-2.98120464 7.94736336 -2.98120464 6.05263664 -2 3 C-1.34 3 -0.68 3 0 3 C0 2.01 0 1.02 0 0 Z " fill="#D5E9F8" transform="translate(657,353)"/>
<path d="M0 0 C1.98 0.66 3.96 1.32 6 2 C5.67 3.98 5.34 5.96 5 8 C2.74754119 5.31158141 1.11786042 3.35358125 0 0 Z " fill="#D9E7ED" transform="translate(846,659)"/>
<path d="M0 0 C2.18840439 3.28260659 4.15885893 6.50818073 6 10 C5.67 10.66 5.34 11.32 5 12 C4.01 11.67 3.02 11.34 2 11 C2.33 9.68 2.66 8.36 3 7 C2.34 7 1.68 7 1 7 C0.67 4.69 0.34 2.38 0 0 Z " fill="#C5DAEC" transform="translate(668,646)"/>
<path d="M0 0 C2.94721162 2.74395564 5.19168608 5.38337216 7 9 C6.67 9.66 6.34 10.32 6 11 C4.0625 10.3125 4.0625 10.3125 2 9 C1.3125 6.625 1.3125 6.625 1 4 C0.67516582 2.66457061 0.3449145 1.33038449 0 0 Z " fill="#3263A4" transform="translate(814,607)"/>
<path d="M0 0 C2.475 0.495 2.475 0.495 5 1 C5 2.65 5 4.3 5 6 C4.01 6 3.02 6 2 6 C1.34 4.02 0.68 2.04 0 0 Z " fill="#D1DFF0" transform="translate(808,268)"/>
<path d="M0 0 C0.66 0.99 1.32 1.98 2 3 C0.66666667 5.66666667 -0.66666667 8.33333333 -2 11 C-2.95465783 8.83032311 -3.14401212 7.43671207 -2.3984375 5.17578125 C-1.64129615 3.4315257 -0.82390802 1.71372869 0 0 Z " fill="#D4D4D5" transform="translate(13,236)"/>
<path d="M0 0 C3.36591427 2.72478774 4.44226276 6.06856792 6 10 C5.01 10 4.02 10 3 10 C2.67 8.02 2.34 6.04 2 4 C1.34 4 0.68 4 0 4 C0 2.68 0 1.36 0 0 Z " fill="#C7DFEE" transform="translate(680,670)"/>
<path d="M0 0 C2 0 2 0 4.125 1.5625 C6.62040957 4.80653244 6.3069357 7.0098359 6 11 C3.84733158 8.84733158 3.06525538 7.15226256 1.875 4.375 C1.52179687 3.55773437 1.16859375 2.74046875 0.8046875 1.8984375 C0.53914062 1.27195312 0.27359375 0.64546875 0 0 Z " fill="#2F6BA5" transform="translate(665,640)"/>
<path d="M0 0 C2.74277578 3.19990508 4.6302836 6.00499382 6 10 C3.525 9.01 3.525 9.01 1 8 C0.67 5.36 0.34 2.72 0 0 Z " fill="#6A84A3" transform="translate(625,566)"/>
<path d="M0 0 C0.99 0.33 1.98 0.66 3 1 C3.66 0.67 4.32 0.34 5 0 C5 0.66 5 1.32 5 2 C5.66 2.33 6.32 2.66 7 3 C5.35 4.32 3.7 5.64 2 7 C1.34 4.69 0.68 2.38 0 0 Z " fill="#848B9A" transform="translate(760,512)"/>
<path d="M0 0 C2.97 0.33 5.94 0.66 9 1 C9 1.66 9 2.32 9 3 C9.66 3 10.32 3 11 3 C11 3.66 11 4.32 11 5 C9.53932801 4.54917531 8.08151968 4.08906463 6.625 3.625 C5.81289063 3.36976563 5.00078125 3.11453125 4.1640625 2.8515625 C2 2 2 2 0 0 Z " fill="#D1E5F8" transform="translate(712,476)"/>
<path d="M0 0 C0.66 1.32 1.32 2.64 2 4 C-1.31114834 5.12880057 -4.58978257 6.21302675 -8 7 C-5.4837822 4.39391727 -2.94865641 2.10618315 0 0 Z " fill="#CAE4EE" transform="translate(769,433)"/>
<path d="M0 0 C1.46109063 0.25554054 2.91888096 0.53000372 4.375 0.8125 C5.59316406 1.03873047 5.59316406 1.03873047 6.8359375 1.26953125 C9 2 9 2 11 5 C2.83035714 3.25892857 2.83035714 3.25892857 0 0 Z " fill="#E2F8FD" transform="translate(705,189)"/>
<path d="M0 0 C0.1875 2.375 0.1875 2.375 0 5 C-0.99 5.66 -1.98 6.32 -3 7 C-3.33 5.02 -3.66 3.04 -4 1 C-1 0 -1 0 0 0 Z " fill="#1D5AB4" transform="translate(804,589)"/>
<path d="M0 0 C0 0.66 0 1.32 0 2 C-3.6678852 3.96189209 -6.87248551 5.39301257 -11 6 C-8.24029211 2.78034079 -4.3526723 0 0 0 Z " fill="#99989B" transform="translate(759,478)"/>
<path d="M0 0 C0.33 1.32 0.66 2.64 1 4 C0.34 4 -0.32 4 -1 4 C-1 5.98 -1 7.96 -1 10 C-1.99 10 -2.98 10 -4 10 C-3.52449439 8.51965236 -3.04448784 7.04074979 -2.5625 5.5625 C-2.29566406 4.73878906 -2.02882813 3.91507812 -1.75390625 3.06640625 C-1 1 -1 1 0 0 Z " fill="#CDDDF0" transform="translate(807,384)"/>
<path d="M0 0 C2.16321167 3.24481751 3.6314591 6.35055759 5 10 C4.67 10.99 4.34 11.98 4 13 C0.88303339 8.66335081 0.44033187 5.19591612 0 0 Z " fill="#D9D9DC" transform="translate(16,375)"/>
<path d="M0 0 C0.66 0 1.32 0 2 0 C2 0.99 2 1.98 2 3 C2.99 3.33 3.98 3.66 5 4 C6.1875 6.5625 6.1875 6.5625 7 9 C6.01 9.495 6.01 9.495 5 10 C4.1641146 8.52227402 3.33135744 7.04277811 2.5 5.5625 C2.0359375 4.73878906 1.571875 3.91507813 1.09375 3.06640625 C0 1 0 1 0 0 Z " fill="#D1E7F4" transform="translate(806,591)"/>
<path d="M0 0 C0.33 0.99 0.66 1.98 1 3 C-1.97 3 -4.94 3 -8 3 C-6.23110084 -0.53779831 -3.70375662 0 0 0 Z " fill="#D2D4E1" transform="translate(632,577)"/>
<path d="M0 0 C1.45792884 -0.05399736 2.91642712 -0.09279177 4.375 -0.125 C5.18710937 -0.14820313 5.99921875 -0.17140625 6.8359375 -0.1953125 C9 0 9 0 11 2 C8.36 2.33 5.72 2.66 3 3 C3 2.34 3 1.68 3 1 C2.01 0.67 1.02 0.34 0 0 Z " fill="#D9F3F9" transform="translate(564,496)"/>
<path d="M0 0 C1.53271273 4.58798777 0.02911182 6.77944742 -2 11 C-3 9 -3 9 -2.44140625 6.8359375 C-2.15136719 6.02382813 -1.86132812 5.21171875 -1.5625 4.375 C-1.27503906 3.55773437 -0.98757813 2.74046875 -0.69140625 1.8984375 C-0.46324219 1.27195312 -0.23507812 0.64546875 0 0 Z " fill="#98979A" transform="translate(840,373)"/>
<path d="M0 0 C0.33 0 0.66 0 1 0 C1.36923077 5.41538462 1.36923077 5.41538462 -0.5 8.375 C-0.995 8.91125 -1.49 9.4475 -2 10 C-1.85950482 8.52031676 -1.71245174 7.04125484 -1.5625 5.5625 C-1.48128906 4.73878906 -1.40007813 3.91507812 -1.31640625 3.06640625 C-1 1 -1 1 0 0 Z " fill="#DBF2FA" transform="translate(814,364)"/>
<path d="M0 0 C-1.24420647 0.5345256 -2.49570936 1.05208611 -3.75 1.5625 C-4.44609375 1.85253906 -5.1421875 2.14257812 -5.859375 2.44140625 C-8.30012784 3.07831803 -9.6403655 2.80248831 -12 2 C-7.75950782 -0.82699479 -4.85416215 -1.37070821 0 0 Z " fill="#DADBDD" transform="translate(250,35)"/>
<path d="M0 0 C2.97 0 5.94 0 9 0 C8.01 1.485 8.01 1.485 7 3 C5.68 3 4.36 3 3 3 C3 2.34 3 1.68 3 1 C2.01 0.67 1.02 0.34 0 0 Z " fill="#DFE1E3" transform="translate(530,597)"/>
<path d="M0 0 C0.66 0 1.32 0 2 0 C2 2.64 2 5.28 2 8 C1.01 8 0.02 8 -1 8 C-0.67 5.36 -0.34 2.72 0 0 Z " fill="#E9EFFA" transform="translate(369,501)"/>
<path d="M0 0 C0.99 0.33 1.98 0.66 3 1 C1.87926138 1.83905565 0.75325453 2.67107831 -0.375 3.5 C-1.00148438 3.9640625 -1.62796875 4.428125 -2.2734375 4.90625 C-4 6 -4 6 -6 6 C-5.67 5.01 -5.34 4.02 -5 3 C-3.35 2.67 -1.7 2.34 0 2 C0 1.34 0 0.68 0 0 Z " fill="#DCDBDE" transform="translate(766,470)"/>
<path d="M0 0 C-3.9813783 1.3271261 -7.85045227 1.06915913 -12 1 C-7.62136392 -1.91909072 -4.60643295 -2.90034667 0 0 Z " fill="#C7E0EF" transform="translate(724,461)"/>
<path d="M0 0 C-1.44253657 3.36591866 -3.33264727 5.51047079 -6 8 C-6 7.01 -6 6.02 -6 5 C-5.34 5 -4.68 5 -4 5 C-4 3.68 -4 2.36 -4 1 C-2 0 -2 0 0 0 Z " fill="#3E68A7" transform="translate(793,408)"/>
<path d="M0 0 C1.36125 0.12375 1.36125 0.12375 2.75 0.25 C2.42 0.91 2.09 1.57 1.75 2.25 C-0.31640625 2.8828125 -0.31640625 2.8828125 -2.8125 3.375 C-4.05193359 3.62636719 -4.05193359 3.62636719 -5.31640625 3.8828125 C-5.95449219 4.00398438 -6.59257812 4.12515625 -7.25 4.25 C-4.83923194 1.28290085 -3.90322061 0.30024774 0 0 Z " fill="#DCDCDC" transform="translate(225.25,41.75)"/>
<path d="M0 0 C3.625 -0.1875 3.625 -0.1875 7 0 C6.01 0.33 5.02 0.66 4 1 C4 1.66 4 2.32 4 3 C2.02 3 0.04 3 -2 3 C-1.34 2.01 -0.68 1.02 0 0 Z " fill="#DEE1E2" transform="translate(281,22)"/>
<path d="M0 0 C2.25245881 2.68841859 3.88213958 4.64641875 5 8 C4.01 8.495 4.01 8.495 3 9 C0.70620251 5.55930376 0 4.27709699 0 0 Z " fill="#356DA2" transform="translate(821,618)"/>
<path d="M0 0 C2.89932357 2.39509338 3.50168276 4.31245243 4 8 C3.01 8 2.02 8 1 8 C0.67 5.36 0.34 2.72 0 0 Z " fill="#D2E0F4" transform="translate(640,594)"/>
<path d="M0 0 C3.0916909 2.52956528 3.90931332 5.22454612 5 9 C3.0625 8.4375 3.0625 8.4375 1 7 C0.25 3.375 0.25 3.375 0 0 Z " fill="#788FA2" transform="translate(611,541)"/>
<path d="M0 0 C0.66 0 1.32 0 2 0 C2.66 1.32 3.32 2.64 4 4 C2.02 4.99 2.02 4.99 0 6 C-0.38218767 4.34385343 -0.71395102 2.67542976 -1 1 C-0.67 0.67 -0.34 0.34 0 0 Z " fill="#DCE7E9" transform="translate(764,516)"/>
<path d="M0 0 C2.9375 0.8125 2.9375 0.8125 6 2 C6.33 2.99 6.66 3.98 7 5 C6.01 5.33 5.02 5.66 4 6 C3.67 5.34 3.34 4.68 3 4 C2.01 3.67 1.02 3.34 0 3 C0 2.01 0 1.02 0 0 Z " fill="#2B6198" transform="translate(736,489)"/>
<path d="M0 0 C0.66 1.32 1.32 2.64 2 4 C0.02 4.66 -1.96 5.32 -4 6 C-2.68 4.02 -1.36 2.04 0 0 Z " fill="#E8E7EC" transform="translate(852,435)"/>
</svg>
