<?xml version="1.0" encoding="UTF-8"?>
<svg version="1.1" xmlns="http://www.w3.org/2000/svg" width="377" height="214">
<path d="M0 0 C62.37 0 124.74 0 189 0 C182.28164868 7.83807655 182.28164868 7.83807655 178.4375 11.1875 C174.45490335 14.70436571 170.52184222 18.26394163 166.625 21.875 C165.51443661 22.90246665 164.40375927 23.92981015 163.29296875 24.95703125 C162.74431152 25.46443848 162.1956543 25.9718457 161.63037109 26.49462891 C157.59293686 30.22251443 153.53690415 33.93019029 149.48388672 37.64111328 C146.98835593 39.92642496 144.49425473 42.2132958 142 44.5 C141.00000675 45.41667404 140.00000676 46.3333407 139 47.25 C138.2575 47.930625 138.2575 47.930625 137.5 48.625 C133 52.75 133 52.75 131.50024414 54.12475586 C130.49940332 55.04220685 129.49858955 55.95968736 128.49780273 56.87719727 C126.01088739 59.15710551 123.52351685 61.43651293 121.03515625 63.71484375 C115.64030641 68.65525058 110.25278117 73.60351419 104.875 78.5625 C104.03980835 79.33194946 104.03980835 79.33194946 103.18774414 80.11694336 C101.09369319 82.04953787 99.01517212 83.98482788 97 86 C93.92612331 86.18845127 90.94295151 86.25161751 87.86865234 86.22705078 C86.92226395 86.22734283 85.97587555 86.22763489 85.00080872 86.22793579 C81.86242609 86.2265388 78.72427882 86.21096024 75.5859375 86.1953125 C73.4140333 86.19158368 71.24212743 86.18873609 69.07022095 86.18673706 C63.34581888 86.17909027 57.62151784 86.15943281 51.89715576 86.1373291 C45.03312264 86.11330195 38.16905579 86.10409467 31.30499268 86.09242249 C20.86992479 86.07300903 10.4350787 86.03469365 0 86 C0 57.62 0 29.24 0 0 Z " fill="#0D94DA" transform="translate(94,40)"/>
<path d="M0 0 C-0.67097672 4.19360449 -2.8558394 7.40334352 -5 11 C-6.258125 10.67 -7.51625 10.34 -8.8125 10 C-14.30656391 8.77037617 -21.79452088 7.39726044 -27 10 C-26.57918932 11.98398423 -26.57918932 11.98398423 -25 14 C-22.35658897 15.31704615 -19.56931929 16.13761998 -16.75 17 C-11.22850279 18.7236921 -6.59175911 20.41136365 -2 24 C-0.625 26.75 -0.625 26.75 0 29 C0.66 29 1.32 29 2 29 C2.1700354 27.96033081 2.1700354 27.96033081 2.34350586 26.8996582 C3.08604515 23.6199486 4.22200369 20.71445083 5.50390625 17.60546875 C5.99697266 16.40341797 6.49003906 15.20136719 6.99804688 13.96289062 C7.51943405 12.70438681 8.04091966 11.44592377 8.5625 10.1875 C9.08830158 8.90967423 9.61369647 7.63168104 10.13867188 6.35351562 C11.42178151 3.23402891 12.71036509 0.11679475 14 -3 C19.61 -3 25.22 -3 31 -3 C32.51270654 0.69829782 34.02468692 4.3968807 35.53491211 8.09619141 C36.29787407 9.96419058 37.06201154 11.83170949 37.82617188 13.69921875 C38.31279297 14.89160156 38.79941406 16.08398438 39.30078125 17.3125 C39.74591064 18.40175781 40.19104004 19.49101563 40.6496582 20.61328125 C42.15449912 24.38749084 43.57333209 28.19555223 45 32 C45.33 20.45 45.66 8.9 46 -3 C50.57875 -3.0825 55.1575 -3.165 59.875 -3.25 C61.29796387 -3.28641602 62.72092773 -3.32283203 64.18701172 -3.36035156 C72.24719922 -3.43021478 80.39549588 -3.17444625 86.67553711 2.51904297 C91.10340987 7.64605354 91.3482799 11.36792001 91.27734375 17.94921875 C90.76257391 23.61168695 88.63249133 26.6272232 84.25 30.3125 C76.79772028 34.18195293 70.24477162 34.20611929 62 34 C62 39.28 62 44.56 62 50 C52.76 50 43.52 50 34 50 C33.505 46.535 33.505 46.535 33 43 C32.30003906 43.16242188 31.60007812 43.32484375 30.87890625 43.4921875 C27.84001007 44.02822075 25.02147718 44.13279767 21.9375 44.125 C20.40416016 44.12886719 20.40416016 44.12886719 18.83984375 44.1328125 C16.38350068 44.01793538 14.34231684 43.70775041 12 43 C11.34 45.31 10.68 47.62 10 50 C4.39 50 -1.22 50 -7 50 C-7.33 49.34 -7.66 48.68 -8 48 C-9.216875 48.495 -10.43375 48.99 -11.6875 49.5 C-20.89785897 52.54115626 -31.13927552 51.96529659 -40 48 C-41.32 47.01 -42.64 46.02 -44 45 C-42.02 41.7 -40.04 38.4 -38 35 C-37.113125 35.495 -36.22625 35.99 -35.3125 36.5 C-29.82336814 38.91567166 -23.86859393 38.23827374 -18 38 C-17.67 36.35 -17.34 34.7 -17 33 C-18.14597656 32.62488281 -19.29195312 32.24976563 -20.47265625 31.86328125 C-22.0028124 31.34697089 -23.53274878 30.83000889 -25.0625 30.3125 C-25.81466797 30.06822266 -26.56683594 29.82394531 -27.34179688 29.57226562 C-33.63869711 27.41878026 -39.11016493 24.8042714 -42.9375 19.125 C-44.1967276 15.42138942 -44.48617998 12.88943984 -44 9 C-40.90028041 3.14497412 -37.02793286 -0.39192413 -30.875 -2.75 C-20.29208082 -5.93362197 -10.21189505 -3.40396502 0 0 Z " fill="#F9FCFE" transform="translate(141,59)"/>
<path d="M0 0 C3.97654007 2.27844999 6.54330193 4.62990579 8 9 C8.49241379 14.59414356 8.74420025 19.42891058 6.3125 24.5625 C2.45585581 28.62761144 -0.27333443 30.18056826 -5.875 30.5625 C-10.76503463 30.43092956 -13.23782417 28.92630873 -16.72265625 25.60546875 C-20.32063427 21.08323949 -19.51800266 14.43902798 -19 9 C-15.12809783 0.82598432 -8.68366943 -1.70162107 0 0 Z M-12 6 C-14.70843198 10.45580745 -15.53842603 14.07786366 -14.64453125 19.13671875 C-13.31522964 22.97960885 -10.58257443 25.18318739 -7.0625 27 C-3.65972478 27 -1.79233998 25.90116764 1 24 C3.70843198 19.54419255 4.53842603 15.92213634 3.64453125 10.86328125 C2.31522964 7.02039115 -0.41742557 4.81681261 -3.9375 3 C-7.34027522 3 -9.20766002 4.09883236 -12 6 Z " fill="#F7941E" transform="translate(243,141)"/>
<path d="M0 0 C4.62 0 9.24 0 14 0 C18 4 18 4 18.3125 7.625 C18 11 18 11 17 13 C16.34 13 15.68 13 15 13 C15 13.66 15 14.32 15 15 C15.99 15.33 16.98 15.66 18 16 C19.52846661 19.05693322 19.23242445 21.62984547 19 25 C17.23984869 28.1850357 16.50109084 28.83296972 13 30 C8.71 30 4.42 30 0 30 C0 20.1 0 10.2 0 0 Z M5 3 C3.76732652 4.00836062 3.76732652 4.00836062 3.90234375 6.06640625 C3.91394531 6.89011719 3.92554687 7.71382812 3.9375 8.5625 C3.94652344 9.38878906 3.95554687 10.21507812 3.96484375 11.06640625 C3.97644531 11.70449219 3.98804687 12.34257812 4 13 C5.918125 12.8453125 5.918125 12.8453125 7.875 12.6875 C8.59429687 12.62949219 9.31359375 12.57148438 10.0546875 12.51171875 C12.39519216 12.12606964 12.39519216 12.12606964 14 9 C13.99530794 6.89768759 13.99530794 6.89768759 13 5 C10.06004981 2.97244814 8.72295997 3 5 3 Z M4 16 C4 19.63 4 23.26 4 27 C8.0655933 26.81162065 8.0655933 26.81162065 12 26 C14.06454002 23.59256899 14.06454002 23.59256899 15 21 C14.03336251 18.89788303 14.03336251 18.89788303 12 17 C9.30075428 16.33450549 6.79368363 16.18319237 4 16 Z " fill="#F7941E" transform="translate(68,141)"/>
<path d="M0 0 C2.43119623 1.87015094 3.64069173 3.28138345 5 6 C5 7.98 5 9.96 5 12 C0.05 12 -4.9 12 -10 12 C-7.68557528 17.17932281 -7.68557528 17.17932281 -4.125 17.75 C-3.09375 17.8325 -2.0625 17.915 -1 18 C0.66804677 18.32635698 2.33524314 18.65725594 4 19 C3.67 19.99 3.34 20.98 3 22 C-7.63177898 22.76304634 -7.63177898 22.76304634 -12.25 20.1875 C-14.83020203 15.4878463 -14.87398375 11.24390249 -14 6 C-10.51009602 0.18349337 -6.63683891 -0.98566914 0 0 Z M-6 3 C-8.67331713 5.71003293 -8.67331713 5.71003293 -10 9 C-6.37 9 -2.74 9 1 9 C0.34 7.35 -0.32 5.7 -1 4 C-3.54775306 3.10613836 -3.54775306 3.10613836 -6 3 Z " fill="#F7941E" transform="translate(293,149)"/>
<path d="M0 0 C2.43119623 1.87015094 3.64069173 3.28138345 5 6 C5 7.98 5 9.96 5 12 C0.05 12 -4.9 12 -10 12 C-7.68557528 17.17932281 -7.68557528 17.17932281 -4.125 17.75 C-3.09375 17.8325 -2.0625 17.915 -1 18 C0.66804677 18.32635698 2.33524314 18.65725594 4 19 C3.67 19.99 3.34 20.98 3 22 C-7.63177898 22.76304634 -7.63177898 22.76304634 -12.25 20.1875 C-14.83020203 15.4878463 -14.87398375 11.24390249 -14 6 C-10.51009602 0.18349337 -6.63683891 -0.98566914 0 0 Z M-6 3 C-8.67331713 5.71003293 -8.67331713 5.71003293 -10 9 C-6.37 9 -2.74 9 1 9 C0.34 7.35 -0.32 5.7 -1 4 C-3.54775306 3.10613836 -3.54775306 3.10613836 -6 3 Z " fill="#F7941E" transform="translate(181,149)"/>
<path d="M0 0 C1.32 0 2.64 0 4 0 C4.06058594 0.97582031 4.12117188 1.95164063 4.18359375 2.95703125 C4.26738281 4.22933594 4.35117188 5.50164062 4.4375 6.8125 C4.51871094 8.07707031 4.59992188 9.34164062 4.68359375 10.64453125 C4.87184547 13.99181893 4.87184547 13.99181893 6 17 C8.41645782 17.16687448 8.41645782 17.16687448 11 17 C13.84614024 14.15385976 13.45579076 11.19630858 13.625 7.375 C13.68300781 6.31539062 13.68300781 6.31539062 13.7421875 5.234375 C13.83647724 3.49001476 13.91932891 1.74504309 14 0 C15.32 0 16.64 0 18 0 C18.33 7.26 18.66 14.52 19 22 C16.66666667 22 14.33333333 22 12 22 C9.99084303 22.06378276 7.98168862 22.12771889 5.97265625 22.1953125 C4 22 4 22 1 20 C0.09761253 17.29283758 -0.11851302 15.76223232 -0.09765625 12.98828125 C-0.09443359 12.23095703 -0.09121094 11.47363281 -0.08789062 10.69335938 C-0.07951172 9.90767578 -0.07113281 9.12199219 -0.0625 8.3125 C-0.05798828 7.51521484 -0.05347656 6.71792969 -0.04882812 5.89648438 C-0.0370585 3.93095743 -0.01912348 1.96546915 0 0 Z " fill="#F7941E" transform="translate(92,149)"/>
<path d="M0 0 C2.475 0.495 2.475 0.495 5 1 C5.66 0.67 6.32 0.34 7 0 C13.12946036 -0.56754263 13.12946036 -0.56754263 16.2109375 1.44140625 C18.88541069 5.26625328 18.43463732 8.70508125 18.25 13.25 C18.23195313 14.09046875 18.21390625 14.9309375 18.1953125 15.796875 C18.14830798 17.86507395 18.07656724 19.93268441 18 22 C16.68 22 15.36 22 14 22 C13.93941406 20.94039062 13.87882812 19.88078125 13.81640625 18.7890625 C13.73199873 17.40102779 13.64735083 16.01300768 13.5625 14.625 C13.52318359 13.92632812 13.48386719 13.22765625 13.44335938 12.5078125 C13.25719866 8.62639508 13.25719866 8.62639508 12 5 C9.58380177 4.74969023 9.58380177 4.74969023 7 5 C4.57520264 8.63719605 4.61337423 10.85703482 4.375 15.1875 C4.26285156 17.09595703 4.26285156 17.09595703 4.1484375 19.04296875 C4.09945313 20.01878906 4.05046875 20.99460938 4 22 C2.68 22 1.36 22 0 22 C0 14.74 0 7.48 0 0 Z " fill="#F7941E" transform="translate(255,149)"/>
<path d="M0 0 C2.475 0.495 2.475 0.495 5 1 C5.66 0.67 6.32 0.34 7 0 C13.12946036 -0.56754263 13.12946036 -0.56754263 16.2109375 1.44140625 C18.88541069 5.26625328 18.43463732 8.70508125 18.25 13.25 C18.23195312 14.09046875 18.21390625 14.9309375 18.1953125 15.796875 C18.14830798 17.86507395 18.07656724 19.93268441 18 22 C16.68 22 15.36 22 14 22 C13.93941406 20.94039062 13.87882813 19.88078125 13.81640625 18.7890625 C13.73199873 17.40102779 13.64735083 16.01300768 13.5625 14.625 C13.52318359 13.92632812 13.48386719 13.22765625 13.44335938 12.5078125 C13.25719866 8.62639508 13.25719866 8.62639508 12 5 C9.58380177 4.74969023 9.58380177 4.74969023 7 5 C4.57520264 8.63719605 4.61337423 10.85703482 4.375 15.1875 C4.26285156 17.09595703 4.26285156 17.09595703 4.1484375 19.04296875 C4.09945312 20.01878906 4.05046875 20.99460938 4 22 C2.68 22 1.36 22 0 22 C0 14.74 0 7.48 0 0 Z " fill="#F7941E" transform="translate(144,149)"/>
<path d="M0 0 C1.21236328 0.04060547 1.21236328 0.04060547 2.44921875 0.08203125 C3.06410156 0.11683594 3.67898437 0.15164062 4.3125 0.1875 C4.6425 1.5075 4.9725 2.8275 5.3125 4.1875 C3.3125 5.1875 3.3125 5.1875 1.3125 4.625 C0.6525 4.480625 -0.0075 4.33625 -0.6875 4.1875 C-1.3475 4.8475 -2.0075 5.5075 -2.6875 6.1875 C-2.6875 6.8475 -2.6875 7.5075 -2.6875 8.1875 C-1.759375 8.455625 -0.83125 8.72375 0.125 9 C4.72133978 10.71236188 4.72133978 10.71236188 6.3125 13.1875 C6.75 16.1875 6.75 16.1875 6.3125 19.1875 C4.875 21.0625 4.875 21.0625 2.3125 22.1875 C-0.72147184 22.52700307 -3.66297705 22.63709125 -6.6875 22.1875 C-7.3475 21.5275 -8.0075 20.8675 -8.6875 20.1875 C-7.6975 18.7025 -7.6975 18.7025 -6.6875 17.1875 C-4.3775 17.5175 -2.0675 17.8475 0.3125 18.1875 C0.6425 17.5275 0.9725 16.8675 1.3125 16.1875 C-0.18738939 13.18772122 -2.73909126 12.63161857 -5.6875 11.1875 C-7.6875 9.1875 -7.6875 9.1875 -8 6.25 C-7.6875 3.1875 -7.6875 3.1875 -6.4609375 1.5078125 C-4.16502375 -0.20148011 -2.82891288 -0.12299621 0 0 Z " fill="#F7941E" transform="translate(214.6875,148.8125)"/>
<path d="M0 0 C1.21236328 0.04060547 1.21236328 0.04060547 2.44921875 0.08203125 C3.06410156 0.11683594 3.67898437 0.15164062 4.3125 0.1875 C4.6425 1.5075 4.9725 2.8275 5.3125 4.1875 C3.3125 5.1875 3.3125 5.1875 1.3125 4.625 C0.6525 4.480625 -0.0075 4.33625 -0.6875 4.1875 C-1.3475 4.8475 -2.0075 5.5075 -2.6875 6.1875 C-2.6875 6.8475 -2.6875 7.5075 -2.6875 8.1875 C-1.759375 8.455625 -0.83125 8.72375 0.125 9 C4.72133978 10.71236188 4.72133978 10.71236188 6.3125 13.1875 C6.75 16.1875 6.75 16.1875 6.3125 19.1875 C4.875 21.0625 4.875 21.0625 2.3125 22.1875 C-0.72147184 22.52700307 -3.66297705 22.63709125 -6.6875 22.1875 C-7.3475 21.5275 -8.0075 20.8675 -8.6875 20.1875 C-7.6975 18.7025 -7.6975 18.7025 -6.6875 17.1875 C-4.3775 17.5175 -2.0675 17.8475 0.3125 18.1875 C0.6425 17.5275 0.9725 16.8675 1.3125 16.1875 C-0.18738939 13.18772122 -2.73909126 12.63161857 -5.6875 11.1875 C-7.6875 9.1875 -7.6875 9.1875 -8 6.25 C-7.6875 3.1875 -7.6875 3.1875 -6.4609375 1.5078125 C-4.16502375 -0.20148011 -2.82891288 -0.12299621 0 0 Z " fill="#F7941E" transform="translate(196.6875,148.8125)"/>
<path d="M0 0 C1.21236328 0.04060547 1.21236328 0.04060547 2.44921875 0.08203125 C3.06410156 0.11683594 3.67898437 0.15164062 4.3125 0.1875 C4.6425 1.5075 4.9725 2.8275 5.3125 4.1875 C3.3125 5.1875 3.3125 5.1875 1.3125 4.625 C0.6525 4.480625 -0.0075 4.33625 -0.6875 4.1875 C-1.3475 4.8475 -2.0075 5.5075 -2.6875 6.1875 C-2.6875 6.8475 -2.6875 7.5075 -2.6875 8.1875 C-1.759375 8.455625 -0.83125 8.72375 0.125 9 C4.72133978 10.71236188 4.72133978 10.71236188 6.3125 13.1875 C6.75 16.1875 6.75 16.1875 6.3125 19.1875 C4.875 21.0625 4.875 21.0625 2.3125 22.1875 C-0.72147184 22.52700307 -3.66297705 22.63709125 -6.6875 22.1875 C-7.3475 21.5275 -8.0075 20.8675 -8.6875 20.1875 C-7.6975 18.7025 -7.6975 18.7025 -6.6875 17.1875 C-4.3775 17.5175 -2.0675 17.8475 0.3125 18.1875 C0.6425 17.5275 0.9725 16.8675 1.3125 16.1875 C-0.18738939 13.18772122 -2.73909126 12.63161857 -5.6875 11.1875 C-7.6875 9.1875 -7.6875 9.1875 -8 6.25 C-7.6875 3.1875 -7.6875 3.1875 -6.4609375 1.5078125 C-4.16502375 -0.20148011 -2.82891288 -0.12299621 0 0 Z " fill="#F7941E" transform="translate(122.6875,148.8125)"/>
<path d="M0 0 C8.93548387 0 8.93548387 0 13 3 C14.0625 6.5 14.0625 6.5 14 10 C12.23468433 12.6479735 11.06900421 12.9769986 8 14 C6.60560336 14.06665376 5.20830125 14.08538199 3.8125 14.0625 C1.9253125 14.0315625 1.9253125 14.0315625 0 14 C0 9.38 0 4.76 0 0 Z " fill="#1B9CDD" transform="translate(203,67)"/>
<path d="M0 0 C2 1.625 2 1.625 3 4 C2.875 7.125 2.875 7.125 2 10 C-1.46923881 12.31282587 -2.92205575 12.42478586 -7 12 C-8.875 10.9375 -8.875 10.9375 -10 9 C-10.375 5.4375 -10.375 5.4375 -10 2 C-6.29584707 -0.46943529 -4.37855495 -0.46913089 0 0 Z M-8 3 C-8.33 3.99 -8.66 4.98 -9 6 C-8.34 6.66 -7.68 7.32 -7 8 C-7 6.35 -7 4.7 -7 3 C-7.33 3 -7.66 3 -8 3 Z M-1 3 C-1 4.65 -1 6.3 -1 8 C-0.34 8 0.32 8 1 8 C0.67 6.35 0.34 4.7 0 3 C-0.33 3 -0.66 3 -1 3 Z M-5 7 C-5 7.99 -5 8.98 -5 10 C-4.34 10 -3.68 10 -3 10 C-3.33 9.01 -3.66 8.02 -4 7 C-4.33 7 -4.66 7 -5 7 Z " fill="#1870C5" transform="translate(221,114)"/>
<path d="M0 0 C2.49936244 2.49936244 3.03723753 4.64808008 4.125 8 C4.47820312 9.0725 4.83140625 10.145 5.1953125 11.25 C6 14 6 14 6 16 C2.37 16 -1.26 16 -5 16 C-3.85388265 10.26941324 -2.47605477 5.28975338 0 0 Z " fill="#1E90D7" transform="translate(163,74)"/>
<path d="M0 0 C1.32 0 2.64 0 4 0 C4 7.26 4 14.52 4 22 C2.68 22 1.36 22 0 22 C0 14.74 0 7.48 0 0 Z " fill="#F7941E" transform="translate(133,149)"/>
<path d="M0 0 C1.65 0 3.3 0 5 0 C4.67 1.65 4.34 3.3 4 5 C2.68 5 1.36 5 0 5 C0 3.35 0 1.7 0 0 Z " fill="#F7941E" transform="translate(133,141)"/>
</svg>
