<?xml version="1.0" encoding="UTF-8"?>
<svg version="1.1" xmlns="http://www.w3.org/2000/svg" width="512" height="501">
<path d="M0 0 C1.14816193 -0.00101212 1.14816193 -0.00101212 2.31951904 -0.00204468 C13.37308436 0.01346981 23.89492455 0.34272167 34.625 3.25 C35.59928955 3.50740967 35.59928955 3.50740967 36.59326172 3.77001953 C58.2534454 9.6062212 77.47203283 19.86906516 94.625 34.25 C95.49382812 34.97574219 96.36265625 35.70148437 97.2578125 36.44921875 C102.18102163 40.69652968 106.52194671 45.21131322 110.625 50.25 C111.76582031 51.61705078 111.76582031 51.61705078 112.9296875 53.01171875 C134.22833244 79.4525599 144.30551705 111.564406 143.625 145.25 C145.58759766 145.41822266 145.58759766 145.41822266 147.58984375 145.58984375 C152.35312521 146.12488709 156.66318096 147.26191179 161.1875 148.8125 C161.95980957 149.07498535 162.73211914 149.3374707 163.52783203 149.60791016 C195.60701094 160.89951899 223.07026965 184.67677174 237.92919922 215.36035156 C251.58949249 244.45080643 255.73876765 279.1025642 246.625 310.25 C246.31151611 311.33958008 246.31151611 311.33958008 245.99169922 312.45117188 C239.22492832 335.17941212 226.37007806 353.66044898 209.625 370.25 C208.87863281 371.00539063 208.13226563 371.76078125 207.36328125 372.5390625 C186.41735694 392.70921183 155.20656983 405.64772412 126.0625 405.4375 C123.91626904 405.39060005 121.77008733 405.33430474 119.625 405.25 C119.65722656 406.3946875 119.68945312 407.539375 119.72265625 408.71875 C119.68657042 432.18484823 106.52284986 454.91135947 90.625 471.25 C90.04105469 471.88421875 89.45710938 472.5184375 88.85546875 473.171875 C71.43311555 491.6142723 45.1850187 500.30901429 20.41015625 501.2109375 C-4.74269806 501.69159786 -28.06140048 493.2365853 -47.375 477.25 C-48.18582031 476.59128906 -48.99664062 475.93257813 -49.83203125 475.25390625 C-68.8215096 459.17593224 -80.39257072 434.86448917 -83.20288086 410.32568359 C-83.50904473 406.63347765 -83.51895622 402.95278097 -83.5 399.25 C-83.50386719 398.49460937 -83.50773438 397.73921875 -83.51171875 396.9609375 C-83.50978516 395.83558594 -83.50978516 395.83558594 -83.5078125 394.6875 C-83.50668457 394.02621094 -83.50555664 393.36492187 -83.50439453 392.68359375 C-83.31808056 389.17948495 -82.81997476 385.73073564 -82.375 382.25 C-83.63175663 382.24780016 -83.63175663 382.24780016 -84.91390228 382.24555588 C-105.31248073 382.20848344 -125.71089308 382.14946285 -146.10933685 382.06609726 C-155.97393563 382.02630976 -165.83845467 381.99391578 -175.703125 381.97900391 C-184.30247057 381.96598591 -192.90164066 381.93901743 -201.50088739 381.89538693 C-206.05298609 381.87277548 -210.60486837 381.85708913 -215.1570282 381.85811615 C-219.44498678 381.85886295 -223.73246703 381.84090435 -228.02030182 381.80883217 C-229.59077522 381.80033981 -231.16130232 381.79857875 -232.73178864 381.80419731 C-249.71510017 381.85684594 -249.71510017 381.85684594 -256.43359375 375.21484375 C-256.88863281 374.54582031 -257.34367187 373.87679688 -257.8125 373.1875 C-258.28558594 372.51589844 -258.75867188 371.84429687 -259.24609375 371.15234375 C-261.90407286 366.67332705 -261.52034352 362.15591325 -261.51544189 357.12199402 C-261.51989858 355.70342298 -261.51989858 355.70342298 -261.5244453 354.25619394 C-261.53314724 351.07337499 -261.53464181 347.89059359 -261.53613281 344.70776367 C-261.54075991 342.43137023 -261.54578442 340.15497757 -261.55117798 337.87858582 C-261.56431399 331.68434356 -261.57074922 325.49011215 -261.57518864 319.29585814 C-261.57811728 315.42816188 -261.58222168 311.56046859 -261.58669281 307.69277382 C-261.5988029 296.98429928 -261.60918466 286.27582838 -261.6125679 275.56734753 C-261.61278747 274.88197645 -261.61300703 274.19660538 -261.61323325 273.49046548 C-261.61345153 272.8034546 -261.61366981 272.11644373 -261.6138947 271.40861434 C-261.61433817 270.0164688 -261.61478473 268.62432327 -261.61523438 267.23217773 C-261.6154558 266.54162547 -261.61567723 265.85107321 -261.61590537 265.13959513 C-261.61985336 253.95025186 -261.63730749 242.76097371 -261.6605939 231.57165559 C-261.68430859 220.08382018 -261.69651182 208.59602673 -261.69793582 197.10816556 C-261.69898522 190.65811841 -261.70492175 184.20816311 -261.72275543 177.75813866 C-261.739202 171.69167708 -261.74140817 165.62537672 -261.73261642 159.55890083 C-261.73184423 157.3312474 -261.73621262 155.10358541 -261.74607468 152.87595367 C-261.75874146 149.83676146 -261.75294584 146.7981448 -261.74249268 143.75895691 C-261.75457728 142.43419201 -261.75457728 142.43419201 -261.76690602 141.08266419 C-261.7147945 134.61211104 -260.38720569 130.46858576 -255.9375 125.5625 C-251.38685066 121.45581645 -248.26109597 119.12232415 -241.99006653 119.12974548 C-241.09404221 119.12837082 -240.19801788 119.12699615 -239.27484131 119.12557983 C-237.80425262 119.13097275 -237.80425262 119.13097275 -236.30395508 119.13647461 C-235.26963852 119.13632858 -234.23532196 119.13618256 -233.16966248 119.1360321 C-229.74459754 119.1367298 -226.31958671 119.14451554 -222.89453125 119.15234375 C-220.52227305 119.15420844 -218.15001446 119.1556321 -215.77775574 119.15663147 C-209.52897074 119.16045264 -203.28020893 119.17027955 -197.03143311 119.18133545 C-190.6570263 119.19155814 -184.28261576 119.19613093 -177.90820312 119.20117188 C-165.39712552 119.21190214 -152.88606399 119.22878203 -140.375 119.25 C-140.3137796 118.57353424 -140.2525592 117.89706848 -140.18948364 117.20010376 C-140.10520111 116.30729706 -140.02091858 115.41449036 -139.93408203 114.49462891 C-139.85223663 113.61191315 -139.77039124 112.72919739 -139.68606567 111.81973267 C-136.14243412 82.54557446 -115.11827601 52.08535233 -93 33.5625 C-65.36214795 11.89723463 -35.31280846 0.02780388 0 0 Z " fill="#038186" transform="translate(261.375,-0.24999999999999997)"/>
<path d="M0 0 C23.391878 21.31452961 39.84326059 52.57050958 41.49731445 84.48120117 C41.78154042 101.01952859 42.00940245 117.04085745 37.3203125 133.06640625 C37.00682861 134.15598633 37.00682861 134.15598633 36.68701172 135.26757812 C29.92024082 157.99581837 17.06539056 176.47685523 0.3203125 193.06640625 C-0.42605469 193.82179688 -1.17242187 194.5771875 -1.94140625 195.35546875 C-22.88733056 215.52561808 -54.09811767 228.46413037 -83.2421875 228.25390625 C-85.38841846 228.2070063 -87.53460017 228.15071099 -89.6796875 228.06640625 C-89.64746094 229.21109375 -89.61523438 230.35578125 -89.58203125 231.53515625 C-89.61811708 255.00125448 -102.78183764 277.72776572 -118.6796875 294.06640625 C-119.26363281 294.700625 -119.84757813 295.33484375 -120.44921875 295.98828125 C-137.87157195 314.43067855 -164.1196688 323.12542054 -188.89453125 324.02734375 C-214.04738556 324.50800411 -237.36608798 316.05299155 -256.6796875 300.06640625 C-257.49050781 299.40769531 -258.30132812 298.74898438 -259.13671875 298.0703125 C-274.97156809 284.66329355 -286.74029289 264.45450116 -290.6796875 244.06640625 C-290.6796875 242.74640625 -290.6796875 241.42640625 -290.6796875 240.06640625 C-289.74975983 240.06498123 -288.81983215 240.06355621 -287.86172485 240.06208801 C-279.06433708 240.04420046 -270.26744863 240.00241686 -261.47030067 239.93431568 C-256.94839574 239.90013908 -252.42682531 239.8749503 -247.90478516 239.87084961 C-243.53429122 239.86654652 -239.16455067 239.83791877 -234.79429245 239.79297447 C-233.13353247 239.78006334 -231.47268204 239.77566898 -229.8118782 239.78025246 C-220.62444063 239.79968827 -212.42061888 239.72527559 -204.6796875 234.06640625 C-202.17943176 231.61320213 -202.17943176 231.61320213 -200.6796875 229.06640625 C-200.0196875 228.07640625 -199.3596875 227.08640625 -198.6796875 226.06640625 C-197.4523466 221.73901251 -197.54621103 217.39436087 -197.568573 212.93292236 C-197.56857398 212.11828986 -197.56857497 211.30365736 -197.56857598 210.46433902 C-197.56960838 207.73694307 -197.57762095 205.00961081 -197.58544922 202.28222656 C-197.58732865 200.32567385 -197.58867342 198.36912057 -197.58952332 196.41256714 C-197.5918063 192.19959236 -197.59652811 187.98662953 -197.60271835 183.77365875 C-197.61112537 177.10858669 -197.60568707 170.44357222 -197.59671021 163.77850342 C-197.5952392 162.65325736 -197.59376819 161.52801131 -197.59225261 160.36866689 C-197.58918191 158.06774641 -197.58606188 155.76682601 -197.58289361 153.46590567 C-197.56171366 137.95051255 -197.54801107 122.43530758 -197.58007812 106.91992188 C-197.60161271 96.45197783 -197.59845448 85.98436443 -197.56666958 75.51644206 C-197.55082511 69.97885262 -197.54756896 64.44189552 -197.57442856 58.90433502 C-197.59948174 53.69358617 -197.59188624 48.48389615 -197.55954933 43.27319717 C-197.55346755 41.36448007 -197.55926864 39.45568112 -197.57804298 37.54704666 C-197.73774455 20.10221238 -197.73774455 20.10221238 -191.39471626 13.61826706 C-190.82875677 13.10615299 -190.26279728 12.59403893 -189.6796875 12.06640625 C-188.59300781 10.73996094 -188.59300781 10.73996094 -187.484375 9.38671875 C-168.63721255 -12.05478994 -143.53147624 -26.11285384 -115.6796875 -31.93359375 C-114.56078125 -32.17851562 -113.441875 -32.4234375 -112.2890625 -32.67578125 C-71.25566323 -40.05370772 -30.8029431 -27.38134431 0 0 Z " fill="#199BA1" transform="translate(470.6796875,176.93359375)"/>
<path d="M0 0 C1.14816193 -0.00101212 1.14816193 -0.00101212 2.31951904 -0.00204468 C13.37308436 0.01346981 23.89492455 0.34272167 34.625 3.25 C35.27452637 3.42160645 35.92405273 3.59321289 36.59326172 3.77001953 C58.2534454 9.6062212 77.47203283 19.86906516 94.625 34.25 C95.49382812 34.97574219 96.36265625 35.70148437 97.2578125 36.44921875 C102.18102163 40.69652968 106.52194671 45.21131322 110.625 50.25 C111.38554687 51.16136719 112.14609375 52.07273438 112.9296875 53.01171875 C134.22833244 79.4525599 144.30551705 111.564406 143.625 145.25 C143.05104492 145.17998779 142.47708984 145.10997559 141.88574219 145.0378418 C126.13677643 143.2728715 109.1696405 142.85746298 93.625 146.25 C92.94018555 146.39002441 92.25537109 146.53004883 91.54980469 146.67431641 C72.95072918 150.56968607 55.59031762 158.50134305 40.625 170.25 C40.08439941 170.67394043 39.54379883 171.09788086 38.98681641 171.53466797 C31.12668727 177.76495278 23.97330497 184.45199003 17.625 192.25 C16.9325116 193.09035797 16.24002319 193.93071594 15.52655029 194.79653931 C13.00383409 199.37811745 13.05076668 202.96529245 13.07910156 208.11083984 C13.06359505 209.57518967 13.06359505 209.57518967 13.04777527 211.06912231 C13.01837044 214.28322954 13.01684855 217.49670639 13.015625 220.7109375 C13.00064184 222.944399 12.98391441 225.17784943 12.96551514 227.4112854 C12.92184501 233.2802583 12.9018431 239.14908173 12.88677979 245.01818848 C12.86720765 251.01091346 12.82523767 257.00347705 12.78515625 262.99609375 C12.70985762 274.74734605 12.65956389 286.49856222 12.625 298.25 C8.665 298.58 4.705 298.91 0.625 299.25 C0.62445523 298.41915956 0.62391047 297.58831913 0.62334919 296.73230171 C0.60836477 276.49156658 0.56585074 256.2510513 0.49290943 236.01043892 C0.45829504 226.22210334 0.43290857 216.43390807 0.42944336 206.64550781 C0.42639852 198.11130853 0.40583829 189.57735936 0.36447543 181.04325664 C0.34319082 176.52681488 0.3305214 172.01072829 0.33884621 167.49423599 C0.34641521 163.23737825 0.33044878 158.98123846 0.29693985 154.7245121 C0.28874073 153.16777855 0.28891613 151.61097314 0.29840279 150.0542469 C0.34628815 141.32788133 0.10252506 133.47997509 -5.375 126.25 C-13.07689246 119.67228575 -21.47511916 120.09491935 -31.16357422 120.04467773 C-32.34463242 120.03477814 -33.52569061 120.02487854 -34.74253845 120.01467896 C-37.96727433 119.98857541 -41.19200537 119.96667887 -44.41678381 119.94667697 C-47.79205265 119.92473882 -51.16727761 119.8973886 -54.54251099 119.87062073 C-60.92778601 119.82079932 -67.31308552 119.77582156 -73.69840825 119.73259836 C-80.97050569 119.68313554 -88.24255908 119.62825109 -95.51461387 119.57291877 C-110.46803482 119.45926081 -125.42149731 119.35238683 -140.375 119.25 C-140.2315168 117.66455663 -140.08369717 116.07950537 -139.93408203 114.49462891 C-139.85223663 113.61191315 -139.77039124 112.72919739 -139.68606567 111.81973267 C-136.14243412 82.54557446 -115.11827601 52.08535233 -93 33.5625 C-65.36214795 11.89723463 -35.31280846 0.02780388 0 0 Z " fill="#026A6E" transform="translate(261.375,-0.24999999999999997)"/>
<path d="M0 0 C2.66545422 -0.03068748 5.3305459 -0.05284259 7.99609375 -0.0703125 C8.73935913 -0.07973877 9.48262451 -0.08916504 10.24841309 -0.09887695 C32.92045386 -0.20980295 54.97979008 9.40691449 72 24 C72.58910156 24.44472656 73.17820312 24.88945312 73.78515625 25.34765625 C91.36304969 38.93624054 103.28358346 63.80465003 106.67041016 85.22705078 C110.0805657 113.91782606 103.97727317 139.72746279 87 163 C84.14651626 166.49025109 81.14282529 169.77003538 78 173 C77.41605469 173.63421875 76.83210937 174.2684375 76.23046875 174.921875 C58.80811555 193.3642723 32.5600187 202.05901429 7.78515625 202.9609375 C-17.36769806 203.44159786 -40.68640048 194.9865853 -60 179 C-60.81082031 178.34128906 -61.62164062 177.68257812 -62.45703125 177.00390625 C-78.29188059 163.5968873 -90.06060539 143.38809491 -94 123 C-94 121.68 -94 120.36 -94 119 C-93.07007233 118.99857498 -92.14014465 118.99714996 -91.18203735 118.99568176 C-82.38464958 118.97779421 -73.58776113 118.93601061 -64.79061317 118.86790943 C-60.26870824 118.83373283 -55.74713781 118.80854405 -51.22509766 118.80444336 C-46.85460372 118.80014027 -42.48486317 118.77151252 -38.11460495 118.72656822 C-36.45384497 118.71365709 -34.79299454 118.70926273 -33.1321907 118.71384621 C-23.94475313 118.73328202 -15.74093138 118.65886934 -8 113 C-5.49974426 110.54679588 -5.49974426 110.54679588 -4 108 C-3.01 106.515 -3.01 106.515 -2 105 C-0.58772983 100.20537813 -0.82577556 95.20793288 -0.79467773 90.25268555 C-0.78477814 89.27659836 -0.77487854 88.30051117 -0.76467896 87.29484558 C-0.73314613 84.07549446 -0.70833899 80.8561286 -0.68359375 77.63671875 C-0.66301713 75.40183636 -0.64202047 73.16695779 -0.62062073 70.93208313 C-0.5654732 65.05491237 -0.51603164 59.17770691 -0.46777344 53.30047607 C-0.41750497 47.30119749 -0.36184681 41.30196919 -0.30664062 35.30273438 C-0.19914857 23.53519922 -0.09768373 11.76762038 0 0 Z " fill="#36C5CF" transform="translate(274,298)"/>
<path d="M0 0 C0 8.91 0 17.82 0 27 C-2.97 26.01 -5.94 25.02 -9 24 C-19.29454755 20.51634229 -19.29454755 20.51634229 -30 19 C-31.19496094 18.93683594 -32.38992187 18.87367188 -33.62109375 18.80859375 C-44.57409812 18.407858 -55.29625512 19.67053063 -64 27 C-66.59076756 30.41510269 -66.35933413 33.83172404 -66 38 C-63.30481361 45.48662886 -57.55505596 48.99540243 -50.68237305 52.23242188 C-49.90031494 52.58884766 -49.11825684 52.94527344 -48.3125 53.3125 C-47.48596924 53.69857422 -46.65943848 54.08464844 -45.80786133 54.48242188 C-40.78767997 56.8033002 -35.71702431 58.95488829 -30.58959961 61.02612305 C-15.98732995 66.94628299 -2.32637794 73.70908452 4.9375 88.4375 C9.04883429 99.08098713 8.27737931 111.971691 3.9921875 122.46875 C-2.2393633 133.79884236 -10.76808806 139.42027904 -22.6796875 144.0390625 C-31.94862651 146.72160249 -40.94325462 147.35744974 -50.5625 147.3125 C-51.79033203 147.30831055 -53.01816406 147.30412109 -54.28320312 147.29980469 C-68.79532161 147.1207838 -83.81243078 145.59378461 -97 139 C-97 129.43 -97 119.86 -97 110 C-92.8234375 112.10375 -92.8234375 112.10375 -88.5625 114.25 C-72.77563122 121.84962398 -54.67244722 126.4778305 -37.25 121.75 C-32.40207727 119.96436237 -28.46965818 117.76358982 -25.125 113.75 C-22.98910912 108.5289334 -23.42153634 104.57011565 -25.3125 99.4375 C-31.1479784 90.4639208 -44.04724068 86.50005541 -53.5 82.4375 C-88.65247125 67.22966099 -88.65247125 67.22966099 -96.125 49.30078125 C-98.55695229 40.12667552 -98.56017271 28.95140009 -94.5 20.3125 C-87.6993284 8.95695998 -77.44057191 1.4949365 -64.64648438 -1.85644531 C-61.4419908 -2.63059731 -58.22675374 -3.32412591 -55 -4 C-54.38527832 -4.1757959 -53.77055664 -4.3515918 -53.13720703 -4.53271484 C-36.58482827 -8.15177504 -15.93777985 -5.31259328 0 0 Z " fill="#FCFDFD" transform="translate(178,179)"/>
<path d="M0 0 C0.33 0 0.66 0 1 0 C1.05841253 3.54159657 1.09373452 7.08306793 1.125 10.625 C1.14175781 11.62402344 1.15851563 12.62304688 1.17578125 13.65234375 C1.22986746 21.81936174 0.04744864 27.36621035 -5 34 C-10.86002957 39.54327121 -16.8391549 41.46310458 -24.75537109 41.35644531 C-25.86640198 41.35951187 -25.86640198 41.35951187 -26.99987793 41.36264038 C-29.42465683 41.36562552 -31.84874056 41.34724826 -34.2734375 41.328125 C-35.96497428 41.32506473 -37.65651359 41.32319065 -39.34805298 41.32244873 C-42.88008374 41.31786082 -46.41188457 41.3034869 -49.94384766 41.28125 C-54.48027993 41.25283853 -59.01653246 41.24202388 -63.55304527 41.2375679 C-67.03933521 41.2334225 -70.52558856 41.22361454 -74.01185989 41.21169281 C-75.68568249 41.20598286 -77.35950862 41.20122656 -79.03333664 41.19742584 C-81.36262028 41.1905878 -83.6917585 41.17697075 -86.02099609 41.16113281 C-86.71705963 41.16001495 -87.41312317 41.15889709 -88.13027954 41.15774536 C-92.88530267 41.11469733 -92.88530267 41.11469733 -94 40 C-94.94486068 34.13261338 -95.12530838 28.43297581 -95.0625 22.5 C-95.05798828 21.67757813 -95.05347656 20.85515625 -95.04882812 20.0078125 C-95.03718489 18.00517604 -95.01925556 16.00257773 -95 14 C-94.67 14.99 -94.34 15.98 -94 17 C-83.96800743 16.96188037 -73.93638624 16.90242751 -63.90468597 16.81609726 C-59.24601376 16.77666858 -54.58752926 16.74445757 -49.92871094 16.72900391 C-45.42862991 16.71380685 -40.92906511 16.67930755 -36.42921448 16.63169098 C-34.7165629 16.61690853 -33.0038376 16.60896079 -31.29112244 16.60811615 C-17.66582021 16.7362372 -17.66582021 16.7362372 -5.9765625 10.25390625 C-3.35473907 6.9728382 -1.23925896 4.08955458 0 0 Z " fill="#288F96" transform="translate(273,376)"/>
<path d="M0 0 C8.47745592 -0.58962213 15.27183431 -0.65869871 22 5 C27.17902338 10.62794507 29.12617654 14.84431891 29.12025452 22.5488739 C29.12110894 23.21705621 29.12196337 23.88523852 29.12284368 24.57366878 C29.12449334 26.81696189 29.11898551 29.06018055 29.11352539 31.3034668 C29.11324338 32.90980019 29.11340152 34.51613372 29.1139679 36.12246704 C29.11425534 40.4878639 29.10836718 44.85323339 29.10139394 49.21862388 C29.09515157 53.77903337 29.0945559 58.33944346 29.09336853 62.89985657 C29.09025783 71.53771715 29.08204794 80.1755651 29.07201904 88.81342012 C29.06084982 98.64643268 29.05534541 108.47944584 29.05032361 118.31246316 C29.03986513 138.54164916 29.02227071 158.77082379 29 179 C25.04 179.33 21.08 179.66 17 180 C16.99945523 179.16915956 16.99891047 178.33831913 16.99834919 177.48230171 C16.98336477 157.24156658 16.94085074 137.0010513 16.86790943 116.76043892 C16.83329504 106.97210334 16.80790857 97.18390807 16.80444336 87.39550781 C16.80139852 78.86130853 16.78083829 70.32735936 16.73947543 61.79325664 C16.71819082 57.27681488 16.7055214 52.76072829 16.71384621 48.24423599 C16.72141521 43.98737825 16.70544878 39.73123846 16.67193985 35.4745121 C16.66374073 33.91777855 16.66391613 32.36097314 16.67340279 30.8042469 C16.72110991 22.11036222 16.52162819 14.17474177 11 7 C8.46336192 4.95926356 5.90088772 3.45651266 3 2 C2.01 1.34 1.02 0.68 0 0 Z " fill="#0E5A5D" transform="translate(245,119)"/>
<path d="M0 0 C1.21236328 0.01353516 1.21236328 0.01353516 2.44921875 0.02734375 C3.37154297 0.04474609 3.37154297 0.04474609 4.3125 0.0625 C4.40537433 10.09419132 4.47635329 20.12577956 4.51974869 30.15781403 C4.54058137 34.81662738 4.56881961 39.47514556 4.61425781 44.13378906 C4.6578703 48.63365054 4.68166957 53.13322893 4.69200897 57.63328552 C4.69937279 59.34602817 4.71375255 61.05875615 4.73542023 62.77137756 C4.95393078 80.76591697 4.95393078 80.76591697 -1.65234375 88.3046875 C-2.30332031 88.84351563 -2.95429688 89.38234375 -3.625 89.9375 C-4.27339844 90.49179687 -4.92179687 91.04609375 -5.58984375 91.6171875 C-10.37206576 94.9122008 -14.72844655 95.34703261 -20.4152832 95.28955078 C-21.55754616 95.28998886 -21.55754616 95.28998886 -22.72288513 95.29043579 C-25.22813498 95.28904768 -27.73308366 95.27351112 -30.23828125 95.2578125 C-31.97991269 95.25408052 -33.72154624 95.25123442 -35.46318054 95.24923706 C-40.03839962 95.24161516 -44.61349093 95.22197908 -49.18865967 95.1998291 C-53.86078157 95.17933956 -58.5329242 95.1702287 -63.20507812 95.16015625 C-72.36594143 95.13873182 -81.52671007 95.10461331 -90.6875 95.0625 C-90.71437279 93.25007948 -90.73383715 91.43754767 -90.75 89.625 C-90.76160156 88.61566406 -90.77320313 87.60632813 -90.78515625 86.56640625 C-90.6875 84.0625 -90.6875 84.0625 -89.6875 83.0625 C-87.76654925 82.9546338 -85.84166747 82.91622079 -83.91772461 82.90478516 C-82.6823143 82.89452301 -81.44690399 82.88426086 -80.17405701 82.87368774 C-79.17657849 82.86853086 -79.17657849 82.86853086 -78.1589489 82.86326981 C-76.07726866 82.85149135 -73.9957969 82.83203691 -71.91419983 82.81015015 C-65.99373416 82.74853177 -60.07328424 82.69467187 -54.15258789 82.66113281 C-50.5332125 82.64007676 -46.91420801 82.6046761 -43.29504585 82.56037521 C-41.92011475 82.54628836 -40.5451179 82.53750942 -39.17011833 82.53432083 C-28.57685965 82.50717905 -20.44525229 81.82025229 -12.6875 74.0625 C-9.43218379 68.56213812 -8.57070835 64.14881059 -8.48217773 57.82519531 C-8.46223251 56.56419006 -8.44228729 55.30318481 -8.42173767 54.00396729 C-8.40475599 52.63285443 -8.38787709 51.2617403 -8.37109375 49.890625 C-8.35051165 48.48386033 -8.32951485 47.07710167 -8.30812073 45.67034912 C-8.25302965 41.97476073 -8.20356345 38.27911774 -8.15527344 34.58343506 C-8.10496351 30.80948041 -8.04932707 27.03560468 -7.99414062 23.26171875 C-7.88671772 15.86204608 -7.78523781 8.4623076 -7.6875 1.0625 C-4.80538698 0.10179566 -2.98899956 -0.04331883 0 0 Z " fill="#207278" transform="translate(269.6875,297.9375)"/>
<path d="M0 0 C0.33 0 0.66 0 1 0 C1 37.29 1 74.58 1 113 C-2.96 113 -6.92 113 -11 113 C-11.1624415 100.24763196 -11.28669732 87.49551146 -11.3626852 74.74231815 C-11.39916243 68.81994554 -11.44861349 62.89828258 -11.52807617 56.97631836 C-11.60433041 51.25744628 -11.64603172 45.53925524 -11.6641407 39.81991386 C-11.67703983 37.64182252 -11.70222958 35.46376699 -11.7401104 33.28596687 C-12.06098676 14.06808517 -12.06098676 14.06808517 -7.60571289 8.28295898 C-6.43798082 7.15224626 -5.2394511 6.05160374 -4 5 C-3.21625 3.989375 -2.4325 2.97875 -1.625 1.9375 C-1.08875 1.298125 -0.5525 0.65875 0 0 Z " fill="#178C91" transform="translate(285,184)"/>
<path d="M0 0 C3.96 0 7.92 0 12 0 C12.09286832 11.44865242 12.16385043 22.89721453 12.20724869 34.34616756 C12.22808254 39.6629617 12.2563234 44.97949724 12.30175781 50.29614258 C12.34536542 55.43142282 12.36916869 60.56645503 12.37950897 65.7019062 C12.38687361 67.65664128 12.40125489 69.61136348 12.42292023 71.56599236 C12.45215264 74.31373823 12.45594776 77.06047212 12.45410156 79.80834961 C12.47567322 81.00813698 12.47567322 81.00813698 12.49768066 82.23216248 C12.44779706 89.13802642 10.4794517 95.16174082 5.89453125 100.41015625 C5.20746094 100.95542969 4.52039063 101.50070312 3.8125 102.0625 C3.11769531 102.63097656 2.42289062 103.19945312 1.70703125 103.78515625 C0 105 0 105 -1 105 C-0.67 70.35 -0.34 35.7 0 0 Z " fill="#32B3BC" transform="translate(274,298)"/>
<path d="M0 0 C8.47745592 -0.58962213 15.27183431 -0.65869871 22 5 C26.95744484 10.38715993 29.08691778 14.60189708 29.25634766 21.97753906 C29.28532135 23.21022522 29.31429504 24.44291138 29.34414673 25.71295166 C29.43461088 30.64262215 29.50162223 35.57262772 29.54844093 40.50290298 C29.58399662 44.23283459 29.63678152 47.96057233 29.73388672 51.68945312 C30.53359012 83.14597947 30.53359012 83.14597947 20 95 C18.99142653 96.32685995 17.98980038 97.65907756 17 99 C16.99857498 97.99490387 16.99714996 96.98980774 16.99568176 95.95425415 C16.97896281 86.45052061 16.93604015 76.94721258 16.86790943 67.44370461 C16.83371812 62.55859953 16.80854171 57.67380458 16.80444336 52.78857422 C16.80014351 48.06797609 16.77154172 43.34807662 16.72656822 38.62769699 C16.71364692 36.83296158 16.70926638 35.03814232 16.71384621 33.24336624 C16.97765086 19.28779823 16.97765086 19.28779823 11 7 C8.45824953 4.96824185 5.89988471 3.45600906 3 2 C2.01 1.34 1.02 0.68 0 0 Z " fill="#023E41" transform="translate(245,119)"/>
<path d="M0 0 C-1.33927569 4.68746491 -3.94738635 7.45170338 -8 10 C-13.05262293 12.50307655 -17.08754 13.43281093 -22.75537109 13.35644531 C-23.86640198 13.35951187 -23.86640198 13.35951187 -24.99987793 13.36264038 C-27.42465683 13.36562552 -29.84874056 13.34724826 -32.2734375 13.328125 C-33.96497428 13.32506473 -35.65651359 13.32319065 -37.34805298 13.32244873 C-40.88008374 13.31786082 -44.41188457 13.3034869 -47.94384766 13.28125 C-52.48027993 13.25283853 -57.01653246 13.24202388 -61.55304527 13.2375679 C-65.03933521 13.2334225 -68.52558856 13.22361454 -72.01185989 13.21169281 C-73.68568249 13.20598286 -75.35950862 13.20122656 -77.03333664 13.19742584 C-79.36262028 13.1905878 -81.6917585 13.17697075 -84.02099609 13.16113281 C-84.71705963 13.16001495 -85.41312317 13.15889709 -86.13027954 13.15774536 C-90.88530267 13.11469733 -90.88530267 13.11469733 -92 12 C-92.07226502 10.14712498 -92.0838122 8.29166122 -92.0625 6.4375 C-92.05347656 5.42558594 -92.04445312 4.41367187 -92.03515625 3.37109375 C-92.02355469 2.58863281 -92.01195312 1.80617188 -92 1 C-80.44765536 0.86941818 -68.8953087 0.73901718 -57.3429594 0.60884857 C-51.97904549 0.54840379 -46.6151323 0.48789615 -41.2512207 0.42724609 C-36.07709223 0.36874422 -30.90296194 0.31040585 -25.72883034 0.25218201 C-23.75242865 0.22991285 -21.77602764 0.20758426 -19.7996273 0.18519592 C-17.03658595 0.15390669 -14.27354232 0.12282666 -11.51049805 0.09179688 C-10.68906815 0.08244614 -9.86763824 0.0730954 -9.02131653 0.0634613 C-6.01402755 0.0298566 -3.00750443 0 0 0 Z " fill="#2C9EA7" transform="translate(271,404)"/>
<path d="M0 0 C0.33 0 0.66 0 1 0 C1.55120074 9.90630222 1.06506132 17.0791363 -5.375 24.875 C-11.40639182 29.75755529 -16.74543476 31.12845387 -24.32910156 31.11352539 C-25.61012756 31.11344986 -26.89115356 31.11337433 -28.21099854 31.11329651 C-29.60420775 31.10819026 -30.99741657 31.10297427 -32.390625 31.09765625 C-33.81980337 31.09579032 -35.24898238 31.09436724 -36.67816162 31.09336853 C-40.43300148 31.08955715 -44.18780243 31.07973867 -47.94262695 31.06866455 C-51.77685012 31.05842075 -55.61107959 31.05386455 -59.4453125 31.04882812 C-66.96355937 31.03811514 -74.48177423 31.02105531 -82 31 C-82.02687279 29.18757948 -82.04633715 27.37504767 -82.0625 25.5625 C-82.07410156 24.55316406 -82.08570313 23.54382813 -82.09765625 22.50390625 C-82 20 -82 20 -81 19 C-79.07904925 18.8921338 -77.15416747 18.85372079 -75.23022461 18.84228516 C-73.9948143 18.83202301 -72.75940399 18.82176086 -71.48655701 18.81118774 C-70.48907849 18.80603086 -70.48907849 18.80603086 -69.4714489 18.80076981 C-67.38976866 18.78899135 -65.3082969 18.76953691 -63.22669983 18.74765015 C-57.30623416 18.68603177 -51.38578424 18.63217187 -45.46508789 18.59863281 C-41.8457125 18.57757676 -38.22670801 18.5421761 -34.60754585 18.49787521 C-33.23261475 18.48378836 -31.8576179 18.47500942 -30.48261833 18.47182083 C-19.88935965 18.44467905 -11.75775229 17.75775229 -4 10 C-2.07634578 6.74968769 -0.71381351 3.71183024 0 0 Z " fill="#195B60" transform="translate(261,362)"/>
</svg>
