<?xml version="1.0" encoding="UTF-8"?>
<svg version="1.1" xmlns="http://www.w3.org/2000/svg" width="3000" height="2000">
<path d="M0 0 C1.05799805 0.50289551 2.11599609 1.00579102 3.20605469 1.52392578 C17.29198131 8.27522949 30.89021157 15.50466148 44 24 C45.02222656 24.6496875 46.04445313 25.299375 47.09765625 25.96875 C64.32677731 37.15464428 80.33131176 49.89275294 95.49609375 63.71875 C97.22600469 65.29483111 98.96912038 66.85649664 100.72265625 68.40625 C113.19783504 79.55499659 124.70306077 91.81299548 135 105 C136.07627254 106.34679418 137.15314621 107.69310808 138.23046875 109.0390625 C146.40986422 119.32689923 153.95666109 129.90400821 161 141 C161.58442871 141.92014893 161.58442871 141.92014893 162.18066406 142.85888672 C164.89701833 147.17753101 167.47170085 151.56907199 170 156 C170.48049805 156.8367627 170.96099609 157.67352539 171.45605469 158.53564453 C196.30342739 202.12304506 211.74642589 250.26492556 218 300 C218.11714355 300.91587891 218.23428711 301.83175781 218.35498047 302.77539062 C220.36502153 319.15438793 220.21737225 335.52987154 220 352 C220.59498291 352.04318359 221.18996582 352.08636719 221.80297852 352.13085938 C228.36091627 352.6863253 234.56467406 353.87900737 240.9375 355.5 C241.96528564 355.76063232 242.99307129 356.02126465 244.05200195 356.28979492 C264.01078467 361.49911079 283.24424185 368.44963628 302 377 C303.18118408 377.5249707 303.18118408 377.5249707 304.38623047 378.06054688 C334.85315242 391.60140107 363.23328819 410.72337902 388 433 C388.53786133 433.48146484 389.07572266 433.96292969 389.62988281 434.45898438 C400.97311607 444.65224377 412.29098595 455.21623814 422 467 C422.44633789 467.53254395 422.89267578 468.06508789 423.35253906 468.61376953 C467.66365079 521.53543232 494.95745303 584.64964809 504 653 C504.17789063 654.33587158 504.17789063 654.33587158 504.359375 655.69873047 C508.94262098 692.15326878 506.46381007 729.88214852 499.31958008 765.79711914 C498.96753639 768.22377323 498.94697173 770.55127839 499 773 C498.34 773 497.68 773 497 773 C497 775.64 497 778.28 497 781 C496.34 781 495.68 781 495 781 C494.87625 782.155 494.7525 783.31 494.625 784.5 C493.77967832 792.38966899 491.1402653 799.89425407 488.625 807.375 C488.33367187 808.25671875 488.04234375 809.1384375 487.7421875 810.046875 C484.79826493 818.85281882 481.32862073 827.42618063 477.625 835.9375 C477.32827393 836.61989746 477.03154785 837.30229492 476.72583008 838.00537109 C474.48947957 843.06855913 471.94826783 847.89596247 469.22265625 852.71484375 C467.79224654 855.3882932 466.79077626 858.07412784 466 861 C465.34 861 464.68 861 464 861 C463.7525 861.825 463.505 862.65 463.25 863.5 C461.81295189 867.52373471 459.97645485 871.21979024 458 875 C457.34 875 456.68 875 456 875 C455.74041504 875.71462402 455.48083008 876.42924805 455.21337891 877.16552734 C453.93260844 880.15742777 452.39606345 882.64858797 450.5859375 885.3515625 C449.90660156 886.36863281 449.22726562 887.38570312 448.52734375 888.43359375 C447.81707031 889.48675781 447.10679688 890.53992187 446.375 891.625 C445.34439453 893.16994141 445.34439453 893.16994141 444.29296875 894.74609375 C432.0610263 912.99073587 432.0610263 912.99073587 426 919 C425.67 919.66 425.34 920.32 425 921 C424.34 921 423.68 921 423 921 C422.9175 921.5775 422.835 922.155 422.75 922.75 C421.78202213 925.6539336 420.31305716 927.03740604 418 929 C417.34 929 416.68 929 416 929 C415.77054688 929.55816406 415.54109375 930.11632813 415.3046875 930.69140625 C413.64624479 933.62595608 411.55108478 935.60140353 409.125 937.9375 C406.56386292 940.41071745 404.15907417 942.79773552 401.95703125 945.59765625 C399.99425046 948.00705782 398.05887902 949.66557244 395.5625 951.5 C392.88651161 953.5135716 390.56633888 955.43366112 388.1875 957.8125 C386.17181053 959.82818947 384.6148294 960.93469913 382 962 C382 962.66 382 963.32 382 964 C378.53846154 967 378.53846154 967 376 967 C376 967.66 376 968.32 376 969 C375.401875 969.268125 374.80375 969.53625 374.1875 969.8125 C371.47378368 971.28566029 369.75920213 973.12691755 367.75 975.4375 C366.04027259 976.96404233 364.43133039 977.94793643 362.4375 979.0625 C359.05436646 980.76643423 359.05436646 980.76643423 357 983 C352.88207908 985.83618395 348.74918764 988.36746675 344 990 C344 990.66 344 991.32 344 992 C341.37785672 993.50519387 338.75255792 995.00431319 336.125 996.5 C335.37863281 996.92925781 334.63226562 997.35851563 333.86328125 997.80078125 C333.14785156 998.20683594 332.43242188 998.61289063 331.6953125 999.03125 C331.03547363 999.40830078 330.37563477 999.78535156 329.69580078 1000.17382812 C328 1001 328 1001 326 1001 C325.67 1001.66 325.34 1002.32 325 1003 C323.41210938 1003.92626953 323.41210938 1003.92626953 321.34375 1004.8828125 C320.57675781 1005.24157471 319.80976562 1005.60033691 319.01953125 1005.9699707 C318.18808594 1006.35113037 317.35664062 1006.73229004 316.5 1007.125 C314.76035756 1007.93346658 313.02077545 1008.74206298 311.28125 1009.55078125 C310.39824219 1009.95893066 309.51523438 1010.36708008 308.60546875 1010.78759766 C306.17619392 1011.91801171 303.75806133 1013.06850351 301.34375 1014.23046875 C293.67280316 1017.91644176 286.06681398 1021.26126686 278 1024 C276.34036728 1024.59549087 274.68159629 1025.19338592 273.0234375 1025.79296875 C271.20322855 1026.44560139 269.38291504 1027.09794246 267.5625 1027.75 C266.24608521 1028.22771851 266.24608521 1028.22771851 264.90307617 1028.71508789 C263.65361206 1029.15776001 263.65361206 1029.15776001 262.37890625 1029.609375 C261.6319751 1029.87717773 260.88504395 1030.14498047 260.11547852 1030.42089844 C258 1031 258 1031 254 1031 C253.67 1031.66 253.34 1032.32 253 1033 C251.34765625 1033.4921875 251.34765625 1033.4921875 249.0625 1033.875 C244.02796484 1034.78642447 239.05101125 1035.86904335 234.0625 1037 C222.76438937 1039.52996275 211.46990175 1041.41288569 200 1043 C198.22689453 1043.26103516 198.22689453 1043.26103516 196.41796875 1043.52734375 C183.45688397 1045.31967662 170.0768509 1046.10170884 157 1046 C156.95101562 1046.93199219 156.90203125 1047.86398437 156.8515625 1048.82421875 C156.77679687 1050.09910156 156.70203125 1051.37398437 156.625 1052.6875 C156.55539062 1053.92886719 156.48578125 1055.17023438 156.4140625 1056.44921875 C155.55976496 1067.25378886 153.27585333 1077.74721816 150.6875 1088.25 C150.37917236 1089.51400635 150.07084473 1090.7780127 149.75317383 1092.08032227 C147.43653364 1101.47374807 144.92786147 1110.77778465 142 1120 C141.66613281 1121.11503906 141.33226562 1122.23007813 140.98828125 1123.37890625 C140 1126 140 1126 138 1127 C137.38567131 1129.31850007 137.38567131 1129.31850007 137 1132 C136.66666667 1133.66666667 136.33333333 1135.33333333 136 1137 C135.34 1137 134.68 1137 134 1137 C134 1138.32 134 1139.64 134 1141 C133.34 1141 132.68 1141 132 1141 C131.48179687 1142.80984375 131.48179687 1142.80984375 130.953125 1144.65625 C128.92770402 1150.71828281 125.87583366 1156.16452171 122.74951172 1161.72021484 C121.75508735 1163.49094119 120.77727451 1165.27011706 119.80078125 1167.05078125 C116.00782385 1173.85063043 111.92357472 1179.98092217 107 1186 C104.90856694 1188.85642032 102.85065742 1191.73367698 100.796875 1194.6171875 C99 1197 99 1197 97.328125 1198.6328125 C95.73322061 1200.07666268 95.73322061 1200.07666268 95 1203 C93.3545622 1204.68762851 91.68711423 1206.3540349 90 1208 C89.34 1208.99 88.68 1209.98 88 1211 C87.34 1211 86.68 1211 86 1211 C86 1211.66 86 1212.32 86 1213 C84.671875 1214.3046875 84.671875 1214.3046875 82.75 1215.875 C79.02843453 1219.02553161 75.5927586 1222.39076616 72.1875 1225.875 C66.78708193 1231.35733309 61.06952547 1236.26191355 55 1241 C54.24074219 1241.60328125 53.48148438 1242.2065625 52.69921875 1242.828125 C50.48322774 1244.57572714 48.24763971 1246.29331765 46 1248 C45.13632813 1248.66 44.27265625 1249.32 43.3828125 1250 C37.96839808 1254.0493071 32.50551974 1257.5516024 26.5078125 1260.67578125 C24.73860149 1261.6099908 23.0059822 1262.61513855 21.3046875 1263.66796875 C19 1265 19 1265 17 1265 C17 1265.66 17 1266.32 17 1267 C13.18790397 1268.75088093 9.37524937 1270.50054232 5.5625 1272.25 C4.49322266 1272.74113281 3.42394531 1273.23226563 2.32226562 1273.73828125 C0.19877182 1274.71236098 -1.92581839 1275.68405418 -4.05151367 1276.65332031 C-5.83620216 1277.4684517 -7.61839302 1278.28912536 -9.39575195 1279.12011719 C-15.22640454 1281.8048656 -21.19263105 1283.82696633 -27.3125 1285.75 C-28.28767578 1286.06582031 -29.26285156 1286.38164063 -30.26757812 1286.70703125 C-31.20666016 1287.00480469 -32.14574219 1287.30257813 -33.11328125 1287.609375 C-34.37845581 1288.0110791 -34.37845581 1288.0110791 -35.66918945 1288.42089844 C-38 1289 -38 1289 -42 1289 C-42.33 1289.66 -42.66 1290.32 -43 1291 C-44.79418945 1291.57836914 -44.79418945 1291.57836914 -47.11328125 1292.03515625 C-47.94923828 1292.20466797 -48.78519531 1292.37417969 -49.64648438 1292.54882812 C-50.52626953 1292.71833984 -51.40605469 1292.88785156 -52.3125 1293.0625 C-54.03785888 1293.40705942 -55.76312275 1293.75209495 -57.48828125 1294.09765625 C-58.25696533 1294.24726807 -59.02564941 1294.39687988 -59.81762695 1294.55102539 C-61.2626472 1294.8483061 -62.70153116 1295.17731096 -64.13183594 1295.53881836 C-66.39839433 1296.09834904 -68.61241681 1296.29937649 -70.9375 1296.5 C-73.47342118 1296.71949241 -75.90545778 1296.98029087 -78.3984375 1297.5 C-81.49838452 1298.09578561 -84.53729066 1298.30245048 -87.6875 1298.5 C-91.73901764 1298.75694789 -95.76607856 1299.07735575 -99.80078125 1299.51953125 C-105.04115956 1300.052653 -110.23487069 1300.19176557 -115.5 1300.1875 C-116.44979736 1300.18741943 -117.39959473 1300.18733887 -118.37817383 1300.18725586 C-126.02159246 1300.12659887 -133.49583448 1299.48506518 -141.0703125 1298.50390625 C-144.40346499 1298.07649405 -147.71303961 1297.7551528 -151.0625 1297.5 C-155.04191293 1297.15475413 -158.80744142 1296.47052752 -162.6875 1295.53515625 C-165.27980219 1294.93524848 -167.87973287 1294.46218601 -170.5 1294 C-184.14795859 1291.54108009 -184.14795859 1291.54108009 -189.9765625 1288.859375 C-195.09668343 1286.68480627 -200.53316184 1284.8438038 -205.93994141 1283.52783203 C-224.87471855 1278.67632834 -242.01302242 1267.79035619 -258.42260742 1257.60913086 C-259.36338135 1257.02655518 -260.30415527 1256.44397949 -261.2734375 1255.84375 C-262.11310059 1255.31974609 -262.95276367 1254.79574219 -263.81787109 1254.25585938 C-266.05871193 1252.8697991 -266.05871193 1252.8697991 -269 1252 C-269.66 1251.01 -270.32 1250.02 -271 1249 C-271.99 1248.67 -272.98 1248.34 -274 1248 C-274 1247.34 -274 1246.68 -274 1246 C-275.65 1245.34 -277.3 1244.68 -279 1244 C-279 1243.34 -279 1242.68 -279 1242 C-279.51949219 1241.78730469 -280.03898437 1241.57460937 -280.57421875 1241.35546875 C-284.02414412 1239.42773267 -286.83947065 1236.90047307 -289.8125 1234.3125 C-290.43833984 1233.77230225 -291.06417969 1233.23210449 -291.70898438 1232.67553711 C-295.46812473 1229.40686854 -299.08645272 1226.05882159 -302.53515625 1222.4609375 C-304.08782007 1220.91241411 -305.72509255 1219.55584406 -307.4375 1218.1875 C-308.283125 1217.465625 -309.12875 1216.74375 -310 1216 C-310 1215.34 -310 1214.68 -310 1214 C-310.66 1214 -311.32 1214 -312 1214 C-313.5859375 1212.171875 -313.5859375 1212.171875 -315.375 1209.75 C-317.73289439 1206.57151681 -320.167596 1203.763039 -323 1201 C-327 1196.33333333 -327 1196.33333333 -327 1194 C-327.66 1194 -328.32 1194 -329 1194 C-330.375 1192.12109375 -330.375 1192.12109375 -332 1189.4375 C-335.45010067 1183.83564521 -339.07737497 1178.3782203 -342.79882812 1172.95288086 C-346 1168.2187447 -346 1168.2187447 -346 1166 C-346.66 1166 -347.32 1166 -348 1166 C-352.2002258 1157.79592258 -356.29111519 1149.56477343 -360 1141.125 C-360.30236572 1140.44179687 -360.60473145 1139.75859375 -360.91625977 1139.0546875 C-363 1134.25140694 -363 1134.25140694 -363 1132 C-363.66 1131.67 -364.32 1131.34 -365 1131 C-365.33333333 1128.66666667 -365.66666667 1126.33333333 -366 1124 C-366.66 1123.67 -367.32 1123.34 -368 1123 C-368.77783203 1121.09814453 -368.77783203 1121.09814453 -369.5078125 1118.6328125 C-369.77207031 1117.74722656 -370.03632812 1116.86164063 -370.30859375 1115.94921875 C-370.57800781 1115.01722656 -370.84742188 1114.08523438 -371.125 1113.125 C-371.40214844 1112.20074219 -371.67929688 1111.27648438 -371.96484375 1110.32421875 C-374 1103.41671798 -374 1103.41671798 -374 1100 C-374.66 1099.67 -375.32 1099.34 -376 1099 C-376.5625 1096.48828125 -376.5625 1096.48828125 -377 1093.3125 C-377.44869255 1090.09553469 -377.93265028 1087.19465389 -378.99609375 1084.12109375 C-380.21269391 1080.33874539 -380.64782247 1076.68763354 -381.0625 1072.75 C-381.44825973 1067.72300729 -381.44825973 1067.72300729 -383 1063 C-383.71135031 1058.2752288 -384.06455095 1053.5267706 -384 1048.75 C-383.88381771 1045.17282116 -383.88381771 1045.17282116 -384.4921875 1042.3984375 C-385.16821356 1037.87426308 -385.14494423 1033.44222804 -385.125 1028.875 C-385.12886719 1027.98167969 -385.13273437 1027.08835937 -385.13671875 1026.16796875 C-385.13478516 1024.87439453 -385.13478516 1024.87439453 -385.1328125 1023.5546875 C-385.13168457 1022.77593262 -385.13055664 1021.99717773 -385.12939453 1021.19482422 C-384.99953974 1018.99219293 -384.5386328 1017.13541684 -384 1015 C-383.73181662 1012.80538944 -383.49607842 1010.60672418 -383.28125 1008.40625 C-383.15363281 1007.12878906 -383.02601563 1005.85132813 -382.89453125 1004.53515625 C-382.76267951 1003.19013758 -382.63117252 1001.84508508 -382.5 1000.5 C-382.24295893 997.86421838 -381.98200209 995.22893006 -381.71875 992.59375 C-381.60466797 991.42521484 -381.49058594 990.25667969 -381.37304688 989.05273438 C-381.07305166 986.59779974 -380.62713539 984.38022373 -380 982 C-380.89494783 982.00113916 -381.78989566 982.00227832 -382.71196312 982.003452 C-435.78847776 982.07062913 -488.86498788 982.12208136 -541.94153654 982.15319599 C-548.31869045 982.15694798 -554.69584427 982.16083096 -561.07299805 982.16479492 C-562.34254066 982.16558185 -563.61208328 982.16636878 -564.92009688 982.16717956 C-585.45924676 982.18022301 -605.99837137 982.20387101 -626.53750627 982.23145839 C-647.62248817 982.25954211 -668.70745686 982.27618254 -689.79245669 982.28226548 C-702.79636155 982.28637576 -715.800195 982.29934407 -728.80407787 982.3237494 C-737.72899568 982.33964322 -746.65387672 982.34439211 -755.57880764 982.34050413 C-760.72311453 982.33858826 -765.86729685 982.34146418 -771.01158142 982.35761642 C-775.73173197 982.37232787 -780.45167543 982.37288022 -785.17183597 982.36269668 C-786.86930502 982.36144002 -788.56678755 982.3651497 -790.26423048 982.37464955 C-801.49581576 982.43379508 -812.00213808 981.29926742 -823 979 C-823 978.34 -823 977.68 -823 977 C-823.88558594 976.90332031 -824.77117188 976.80664062 -825.68359375 976.70703125 C-829.26088124 975.94438221 -831.14471367 974.84693933 -834.0625 972.6875 C-834.92230469 972.05328125 -835.78210938 971.4190625 -836.66796875 970.765625 C-837.82232422 969.89164063 -837.82232422 969.89164063 -839 969 C-839.94875 968.319375 -840.8975 967.63875 -841.875 966.9375 C-844.45636036 964.58390673 -846.11438112 961.92596033 -848 959 C-848.66 958.67 -849.32 958.34 -850 958 C-853 952.57692308 -853 952.57692308 -853 950 C-853.66 949.67 -854.32 949.34 -855 949 C-855.63817067 946.6954948 -856.02037323 944.38503677 -856.4375 942.03125 C-856.7159375 941.02578125 -856.7159375 941.02578125 -857 940 C-857.66 939.67 -858.32 939.34 -859 939 C-860.09861626 932.90942899 -860.14311268 926.88402026 -860.13142776 920.70994949 C-860.1334804 919.69466643 -860.13553303 918.67938337 -860.13764787 917.63333416 C-860.14330708 914.2276508 -860.14186195 910.82200803 -860.14044189 907.4163208 C-860.14302613 904.95133758 -860.14603946 902.48635478 -860.1494453 900.02137256 C-860.15666568 893.95501824 -860.15921757 887.88867751 -860.15977435 881.82232022 C-860.16068949 874.55459871 -860.1673614 867.2868853 -860.17412117 860.01916728 C-860.19016689 842.45648741 -860.19608251 824.89380843 -860.20086992 807.33112255 C-860.20320696 799.02170755 -860.20680969 790.71229324 -860.2105653 782.40287878 C-860.22339856 753.95396697 -860.23411871 725.50505554 -860.2375679 697.0561409 C-860.23778953 695.27095725 -860.23801132 693.48577359 -860.23823325 691.70058994 C-860.23845389 689.91112672 -860.23867438 688.12166351 -860.2388947 686.33220029 C-860.23933725 682.74230019 -860.23978437 679.1524001 -860.24023438 675.5625 C-860.24034377 674.67241627 -860.24045316 673.78233254 -860.24056586 672.86527657 C-860.24419721 643.99852471 -860.26012137 615.13179794 -860.28342474 586.26505569 C-860.30802295 555.73850456 -860.3217407 525.21196778 -860.32293582 494.68540645 C-860.32310727 491.3342239 -860.3233227 487.98304136 -860.32357025 484.63185883 C-860.32362602 483.80671592 -860.32368179 482.98157301 -860.32373925 482.13142577 C-860.32488959 468.85620676 -860.33590994 455.58101354 -860.35045731 442.30580324 C-860.36482632 428.96265162 -860.36805697 415.61953303 -860.36001733 402.2763758 C-860.35556327 394.35148907 -860.35941276 386.42670902 -860.37525584 378.50183632 C-860.38616345 372.58154264 -860.381358 366.66132894 -860.37048396 360.74103293 C-860.36852255 358.34807159 -860.37162586 355.95509957 -860.38032833 353.56215325 C-860.45891605 330.4905601 -860.45891605 330.4905601 -857 321 C-856.64408338 320.0086061 -856.64408338 320.0086061 -856.28097653 318.99718404 C-850.53360137 304.52081271 -839.96837695 293.77205191 -826 287 C-815.58470589 282.97697536 -805.9932991 281.84839014 -794.94593811 281.87974548 C-793.28925327 281.87846385 -793.28925327 281.87846385 -791.59910005 281.87715632 C-787.90337109 281.87551101 -784.20768766 281.88100738 -780.51196289 281.88647461 C-777.86071673 281.88675671 -775.20947336 281.88664231 -772.55822754 281.8860321 C-766.8528757 281.88550848 -761.14753532 281.88863842 -755.44218636 281.89426994 C-747.19327252 281.90240681 -738.9443642 281.90500241 -730.69544678 281.90625793 C-717.31120292 281.90844501 -703.92696516 281.91509579 -690.54272461 281.92456055 C-677.54337596 281.93374355 -664.54402897 281.94082004 -651.54467773 281.94506836 C-650.74301499 281.94533108 -649.94135224 281.94559381 -649.11539669 281.94586449 C-645.09357597 281.94716956 -641.07175524 281.94843326 -637.04993451 281.94967639 C-603.69995191 281.9600383 -570.3499767 281.97764727 -537 282 C-536.9343752 281.38748792 -536.8687504 280.77497583 -536.80113697 280.14390278 C-536.71342879 279.33750449 -536.62572062 278.5311062 -536.53535461 277.70027161 C-536.44910481 276.90213452 -536.36285501 276.10399744 -536.27399158 275.28167439 C-526.56559408 194.43465885 -474.69864336 110.87256312 -413 59 C-411.67742187 57.84371094 -411.67742187 57.84371094 -410.328125 56.6640625 C-389.9035932 38.90098993 -367.57016858 24.20261828 -344 11 C-343.2771582 10.58927246 -342.55431641 10.17854492 -341.80957031 9.75537109 C-309.45544557 -8.52758106 -273.33298153 -20.69798568 -237 -28 C-236.05850098 -28.19287598 -235.11700195 -28.38575195 -234.14697266 -28.58447266 C-156.18739453 -44.26937638 -71.81316821 -34.22517637 0 0 Z " fill="#038186" transform="translate(1677,368)"/>
<path d="M0 0 C3.0275708 0.5395731 6.05937803 0.86711899 9.11767578 1.18310547 C36.88073668 4.85309636 64.06968668 14.87178099 89.43017578 26.43310547 C90.21763184 26.78308594 91.00508789 27.13306641 91.81640625 27.49365234 C122.2833282 41.03450654 150.66346397 60.15648449 175.43017578 82.43310547 C176.23696777 83.15530273 176.23696777 83.15530273 177.06005859 83.89208984 C188.40329185 94.08534924 199.72116173 104.64934361 209.43017578 116.43310547 C209.87651367 116.96564941 210.32285156 117.49819336 210.78271484 118.046875 C255.09382657 170.96853779 282.38762881 234.08275356 291.43017578 302.43310547 C291.54876953 303.32368652 291.66736328 304.21426758 291.78955078 305.13183594 C296.37279676 341.58637424 293.89398585 379.31525399 286.74975586 415.23022461 C286.39771217 417.6568787 286.37714751 419.98438385 286.43017578 422.43310547 C285.77017578 422.43310547 285.11017578 422.43310547 284.43017578 422.43310547 C284.43017578 425.07310547 284.43017578 427.71310547 284.43017578 430.43310547 C283.77017578 430.43310547 283.11017578 430.43310547 282.43017578 430.43310547 C282.24455078 432.16560547 282.24455078 432.16560547 282.05517578 433.93310547 C281.2098541 441.82277446 278.57044108 449.32735954 276.05517578 456.80810547 C275.76384766 457.68982422 275.47251953 458.57154297 275.17236328 459.47998047 C272.22844071 468.28592429 268.75879651 476.8592861 265.05517578 485.37060547 C264.75844971 486.05300293 264.46172363 486.73540039 264.15600586 487.43847656 C261.91965535 492.5016646 259.37844361 497.32906794 256.65283203 502.14794922 C255.22242233 504.82139867 254.22095204 507.50723331 253.43017578 510.43310547 C252.77017578 510.43310547 252.11017578 510.43310547 251.43017578 510.43310547 C251.18267578 511.25810547 250.93517578 512.08310547 250.68017578 512.93310547 C249.24312767 516.95684018 247.40663063 520.65289571 245.43017578 524.43310547 C244.77017578 524.43310547 244.11017578 524.43310547 243.43017578 524.43310547 C243.17059082 525.14772949 242.91100586 525.86235352 242.64355469 526.59863281 C241.36278422 529.59053324 239.82623923 532.08169344 238.01611328 534.78466797 C236.99710938 536.31027344 236.99710938 536.31027344 235.95751953 537.86669922 C235.24724609 538.91986328 234.53697266 539.97302734 233.80517578 541.05810547 C233.11810547 542.08806641 232.43103516 543.11802734 231.72314453 544.17919922 C219.49120208 562.42384134 219.49120208 562.42384134 213.43017578 568.43310547 C213.10017578 569.09310547 212.77017578 569.75310547 212.43017578 570.43310547 C211.77017578 570.43310547 211.11017578 570.43310547 210.43017578 570.43310547 C210.34767578 571.01060547 210.26517578 571.58810547 210.18017578 572.18310547 C209.21219791 575.08703907 207.74323295 576.47051151 205.43017578 578.43310547 C204.77017578 578.43310547 204.11017578 578.43310547 203.43017578 578.43310547 C203.20072266 578.99126953 202.97126953 579.54943359 202.73486328 580.12451172 C201.07642057 583.05906155 198.98126056 585.034509 196.55517578 587.37060547 C193.9940387 589.84382292 191.58924995 592.23084099 189.38720703 595.03076172 C187.42442624 597.44016329 185.4890548 599.09867791 182.99267578 600.93310547 C180.31668739 602.94667706 177.99651466 604.86676659 175.61767578 607.24560547 C173.60198631 609.26129494 172.04500518 610.3678046 169.43017578 611.43310547 C169.43017578 612.09310547 169.43017578 612.75310547 169.43017578 613.43310547 C165.96863732 616.43310547 165.96863732 616.43310547 163.43017578 616.43310547 C163.43017578 617.09310547 163.43017578 617.75310547 163.43017578 618.43310547 C162.83205078 618.70123047 162.23392578 618.96935547 161.61767578 619.24560547 C158.90395946 620.71876576 157.18937791 622.56002302 155.18017578 624.87060547 C153.47044837 626.3971478 151.86150617 627.3810419 149.86767578 628.49560547 C146.48454224 630.1995397 146.48454224 630.1995397 144.43017578 632.43310547 C140.31225486 635.26928942 136.17936342 637.80057222 131.43017578 639.43310547 C131.43017578 640.09310547 131.43017578 640.75310547 131.43017578 641.43310547 C128.8080325 642.93829934 126.1827337 644.43741866 123.55517578 645.93310547 C122.80880859 646.36236328 122.06244141 646.79162109 121.29345703 647.23388672 C120.57802734 647.63994141 119.86259766 648.04599609 119.12548828 648.46435547 C118.46564941 648.84140625 117.80581055 649.21845703 117.12597656 649.60693359 C115.43017578 650.43310547 115.43017578 650.43310547 113.43017578 650.43310547 C113.10017578 651.09310547 112.77017578 651.75310547 112.43017578 652.43310547 C110.84228516 653.359375 110.84228516 653.359375 108.77392578 654.31591797 C108.00693359 654.67468018 107.23994141 655.03344238 106.44970703 655.40307617 C105.20253906 655.97481567 105.20253906 655.97481567 103.93017578 656.55810547 C102.19053334 657.36657205 100.45095123 658.17516845 98.71142578 658.98388672 C97.82841797 659.39203613 96.94541016 659.80018555 96.03564453 660.22070312 C93.6063697 661.35111718 91.18823711 662.50160898 88.77392578 663.66357422 C81.10297894 667.34954723 73.49698976 670.69437233 65.43017578 673.43310547 C63.77054306 674.02859634 62.11177207 674.62649138 60.45361328 675.22607422 C58.63340434 675.87870686 56.81309083 676.53104793 54.99267578 677.18310547 C54.11506592 677.50158447 53.23745605 677.82006348 52.33325195 678.14819336 C51.08378784 678.59086548 51.08378784 678.59086548 49.80908203 679.04248047 C49.06215088 679.3102832 48.31521973 679.57808594 47.5456543 679.85400391 C45.43017578 680.43310547 45.43017578 680.43310547 41.43017578 680.43310547 C41.10017578 681.09310547 40.77017578 681.75310547 40.43017578 682.43310547 C38.77783203 682.92529297 38.77783203 682.92529297 36.49267578 683.30810547 C31.45814062 684.21952994 26.48118703 685.30214882 21.49267578 686.43310547 C10.19456515 688.96306822 -1.09992247 690.84599116 -12.56982422 692.43310547 C-13.75189453 692.60712891 -14.93396484 692.78115234 -16.15185547 692.96044922 C-29.11294025 694.75278209 -42.49297332 695.53481431 -55.56982422 695.43310547 C-55.61880859 696.36509766 -55.66779297 697.29708984 -55.71826172 698.25732422 C-55.79302734 699.53220703 -55.86779297 700.80708984 -55.94482422 702.12060547 C-56.04923828 703.98265625 -56.04923828 703.98265625 -56.15576172 705.88232422 C-57.01005926 716.68689433 -59.29397089 727.18032363 -61.88232422 737.68310547 C-62.19065186 738.94711182 -62.49897949 740.21111816 -62.81665039 741.51342773 C-65.13329058 750.90685353 -67.64196275 760.21089012 -70.56982422 769.43310547 C-70.90369141 770.54814453 -71.23755859 771.66318359 -71.58154297 772.81201172 C-72.56982422 775.43310547 -72.56982422 775.43310547 -74.56982422 776.43310547 C-75.18415291 778.75160553 -75.18415291 778.75160553 -75.56982422 781.43310547 C-75.90315755 783.09977214 -76.23649089 784.7664388 -76.56982422 786.43310547 C-77.22982422 786.43310547 -77.88982422 786.43310547 -78.56982422 786.43310547 C-78.56982422 787.75310547 -78.56982422 789.07310547 -78.56982422 790.43310547 C-79.22982422 790.43310547 -79.88982422 790.43310547 -80.56982422 790.43310547 C-81.08802734 792.24294922 -81.08802734 792.24294922 -81.61669922 794.08935547 C-83.6421202 800.15138828 -86.69399056 805.59762718 -89.8203125 811.15332031 C-90.81473687 812.92404666 -91.79254971 814.70322253 -92.76904297 816.48388672 C-96.56200037 823.2837359 -100.6462495 829.41402764 -105.56982422 835.43310547 C-107.66125728 838.28952578 -109.7191668 841.16678245 -111.77294922 844.05029297 C-113.56982422 846.43310547 -113.56982422 846.43310547 -115.24169922 848.06591797 C-116.8366036 849.50976815 -116.8366036 849.50976815 -117.56982422 852.43310547 C-119.21526202 854.12073398 -120.88270999 855.78714036 -122.56982422 857.43310547 C-123.22982422 858.42310547 -123.88982422 859.41310547 -124.56982422 860.43310547 C-125.22982422 860.43310547 -125.88982422 860.43310547 -126.56982422 860.43310547 C-126.56982422 861.09310547 -126.56982422 861.75310547 -126.56982422 862.43310547 C-127.89794922 863.73779297 -127.89794922 863.73779297 -129.81982422 865.30810547 C-133.54138969 868.45863708 -136.97706562 871.82387163 -140.38232422 875.30810547 C-145.78274229 880.79043856 -151.50029875 885.69501902 -157.56982422 890.43310547 C-158.32908203 891.03638672 -159.08833984 891.63966797 -159.87060547 892.26123047 C-162.08659648 894.00883261 -164.32218451 895.72642312 -166.56982422 897.43310547 C-167.43349609 898.09310547 -168.29716797 898.75310547 -169.18701172 899.43310547 C-174.60142614 903.48241257 -180.06430448 906.98470787 -186.06201172 910.10888672 C-187.83122273 911.04309627 -189.56384202 912.04824402 -191.26513672 913.10107422 C-193.56982422 914.43310547 -193.56982422 914.43310547 -195.56982422 914.43310547 C-195.56982422 915.09310547 -195.56982422 915.75310547 -195.56982422 916.43310547 C-199.38192024 918.1839864 -203.19457485 919.93364779 -207.00732422 921.68310547 C-208.07660156 922.17423828 -209.14587891 922.66537109 -210.24755859 923.17138672 C-212.3710524 924.14546645 -214.49564261 925.11715965 -216.62133789 926.08642578 C-218.40602638 926.90155716 -220.18821724 927.72223083 -221.96557617 928.55322266 C-227.79622876 931.23797107 -233.76245527 933.2600718 -239.88232422 935.18310547 C-241.34508789 935.65683594 -241.34508789 935.65683594 -242.83740234 936.14013672 C-243.77648438 936.43791016 -244.71556641 936.73568359 -245.68310547 937.04248047 C-246.94828003 937.44418457 -246.94828003 937.44418457 -248.23901367 937.85400391 C-250.56982422 938.43310547 -250.56982422 938.43310547 -254.56982422 938.43310547 C-254.89982422 939.09310547 -255.22982422 939.75310547 -255.56982422 940.43310547 C-257.36401367 941.01147461 -257.36401367 941.01147461 -259.68310547 941.46826172 C-260.5190625 941.63777344 -261.35501953 941.80728516 -262.21630859 941.98193359 C-263.09609375 942.15144531 -263.97587891 942.32095703 -264.88232422 942.49560547 C-266.6076831 942.84016489 -268.33294697 943.18520042 -270.05810547 943.53076172 C-270.82678955 943.68037354 -271.59547363 943.82998535 -272.38745117 943.98413086 C-273.83247142 944.28141157 -275.27135538 944.61041643 -276.70166016 944.97192383 C-278.96821855 945.53145451 -281.18224103 945.73248196 -283.50732422 945.93310547 C-286.0432454 946.15259787 -288.475282 946.41339634 -290.96826172 946.93310547 C-294.06820874 947.52889108 -297.10711488 947.73555595 -300.25732422 947.93310547 C-304.30884186 948.19005336 -308.33590278 948.51046122 -312.37060547 948.95263672 C-317.61098378 949.48575847 -322.80469491 949.62487103 -328.06982422 949.62060547 C-329.01962158 949.6205249 -329.96941895 949.62044434 -330.94799805 949.62036133 C-338.59141668 949.55970434 -346.0656587 948.91817065 -353.64013672 947.93701172 C-356.97328921 947.50959952 -360.28286383 947.18825827 -363.63232422 946.93310547 C-367.61173715 946.5878596 -371.37726563 945.90363298 -375.25732422 944.96826172 C-377.84962641 944.36835395 -380.44955709 943.89529148 -383.06982422 943.43310547 C-396.7177828 940.97418556 -396.7177828 940.97418556 -402.54638672 938.29248047 C-407.66650765 936.11791173 -413.10298606 934.27690927 -418.50976562 932.9609375 C-437.44454276 928.10943381 -454.58284664 917.22346166 -470.99243164 907.04223633 C-472.40359253 906.1683728 -472.40359253 906.1683728 -473.84326172 905.27685547 C-474.6829248 904.75285156 -475.52258789 904.22884766 -476.38769531 903.68896484 C-478.62853615 902.30290457 -478.62853615 902.30290457 -481.56982422 901.43310547 C-482.55982422 899.94810547 -482.55982422 899.94810547 -483.56982422 898.43310547 C-484.55982422 898.10310547 -485.54982422 897.77310547 -486.56982422 897.43310547 C-486.56982422 896.77310547 -486.56982422 896.11310547 -486.56982422 895.43310547 C-488.21982422 894.77310547 -489.86982422 894.11310547 -491.56982422 893.43310547 C-491.56982422 892.77310547 -491.56982422 892.11310547 -491.56982422 891.43310547 C-492.08931641 891.22041016 -492.60880859 891.00771484 -493.14404297 890.78857422 C-496.59396834 888.86083814 -499.40929487 886.33357854 -502.38232422 883.74560547 C-503.00816406 883.20540771 -503.63400391 882.66520996 -504.27880859 882.10864258 C-508.03794895 878.83997401 -511.65627694 875.49192706 -515.10498047 871.89404297 C-516.65764429 870.34551958 -518.29491677 868.98894953 -520.00732422 867.62060547 C-520.85294922 866.89873047 -521.69857422 866.17685547 -522.56982422 865.43310547 C-522.56982422 864.77310547 -522.56982422 864.11310547 -522.56982422 863.43310547 C-523.22982422 863.43310547 -523.88982422 863.43310547 -524.56982422 863.43310547 C-526.15576172 861.60498047 -526.15576172 861.60498047 -527.94482422 859.18310547 C-530.30271861 856.00462228 -532.73742022 853.19614447 -535.56982422 850.43310547 C-539.56982422 845.7664388 -539.56982422 845.7664388 -539.56982422 843.43310547 C-540.22982422 843.43310547 -540.88982422 843.43310547 -541.56982422 843.43310547 C-542.94482422 841.55419922 -542.94482422 841.55419922 -544.56982422 838.87060547 C-548.01992489 833.26875068 -551.64719918 827.81132577 -555.36865234 822.38598633 C-558.56982422 817.65185017 -558.56982422 817.65185017 -558.56982422 815.43310547 C-559.22982422 815.43310547 -559.88982422 815.43310547 -560.56982422 815.43310547 C-564.77005002 807.22902805 -568.86093941 798.9978789 -572.56982422 790.55810547 C-572.87218994 789.87490234 -573.17455566 789.19169922 -573.48608398 788.48779297 C-575.56982422 783.68451241 -575.56982422 783.68451241 -575.56982422 781.43310547 C-576.22982422 781.10310547 -576.88982422 780.77310547 -577.56982422 780.43310547 C-577.90315755 778.09977214 -578.23649089 775.7664388 -578.56982422 773.43310547 C-579.22982422 773.10310547 -579.88982422 772.77310547 -580.56982422 772.43310547 C-581.34765625 770.53125 -581.34765625 770.53125 -582.07763672 768.06591797 C-582.34189453 767.18033203 -582.60615234 766.29474609 -582.87841797 765.38232422 C-583.28253906 763.98433594 -583.28253906 763.98433594 -583.69482422 762.55810547 C-583.97197266 761.63384766 -584.24912109 760.70958984 -584.53466797 759.75732422 C-586.56982422 752.84982345 -586.56982422 752.84982345 -586.56982422 749.43310547 C-587.22982422 749.10310547 -587.88982422 748.77310547 -588.56982422 748.43310547 C-589.13232422 745.92138672 -589.13232422 745.92138672 -589.56982422 742.74560547 C-590.01851676 739.52864016 -590.5024745 736.62775936 -591.56591797 733.55419922 C-592.78251813 729.77185085 -593.21764669 726.12073901 -593.63232422 722.18310547 C-594.01808394 717.15611276 -594.01808394 717.15611276 -595.56982422 712.43310547 C-596.28117453 707.70833427 -596.63437517 702.95987607 -596.56982422 698.18310547 C-596.45364193 694.60592663 -596.45364193 694.60592663 -597.06201172 691.83154297 C-597.73803778 687.30736855 -597.71476845 682.87533351 -597.69482422 678.30810547 C-597.69869141 677.41478516 -597.70255859 676.52146484 -597.70654297 675.60107422 C-597.70525391 674.73869141 -597.70396484 673.87630859 -597.70263672 672.98779297 C-597.70094482 671.81966064 -597.70094482 671.81966064 -597.69921875 670.62792969 C-597.56999331 668.43597367 -597.13421233 666.54895474 -596.56982422 664.43310547 C-596.35000192 662.18603306 -596.16498435 659.93539309 -596.00732422 657.68310547 C-595.92353516 656.51263672 -595.83974609 655.34216797 -595.75341797 654.13623047 C-595.69283203 653.24419922 -595.63224609 652.35216797 -595.56982422 651.43310547 C-595.23982422 651.43310547 -594.90982422 651.43310547 -594.56982422 651.43310547 C-594.56982422 655.06310547 -594.56982422 658.69310547 -594.56982422 662.43310547 C-568.37814856 662.41927228 -542.18665164 662.37691411 -515.99507904 662.3010149 C-503.83263665 662.26642803 -491.67030686 662.24101765 -479.5078125 662.23754883 C-468.90142555 662.23450017 -458.29523947 662.21388862 -447.68893003 662.1725809 C-442.07796435 662.15133111 -436.46728366 662.13860896 -430.85627747 662.14695168 C-425.56363831 662.15454268 -420.27157418 662.13846523 -414.97904015 662.10504532 C-413.04748414 662.09687255 -411.11587029 662.0969897 -409.18432045 662.10650826 C-392.45885024 662.18070061 -378.33934489 659.75446046 -364.56982422 649.43310547 C-363.91626953 648.96130859 -363.26271484 648.48951172 -362.58935547 648.00341797 C-353.49359415 640.89547204 -345.95900998 628.50093055 -344.00653839 617.16177082 C-343.58962204 613.60213929 -343.43425242 610.18076254 -343.41833496 606.59867859 C-343.41410574 605.94359279 -343.40987651 605.28850698 -343.40551913 604.61357009 C-343.39255662 602.42279755 -343.38647939 600.23206134 -343.38037109 598.04125977 C-343.37235406 596.44659434 -343.36391255 594.851931 -343.35508537 593.25726986 C-343.33201329 588.85926017 -343.31504933 584.4612452 -343.2992053 580.06320429 C-343.28103565 575.26765697 -343.25781952 570.47213354 -343.23526001 565.67660522 C-343.20142012 558.36710887 -343.16982263 551.05760726 -343.14031136 543.74809217 C-343.09067384 531.48660078 -343.02948875 519.22520816 -342.96228981 506.96380138 C-342.69233157 457.69229845 -342.53808277 408.42379875 -342.63159442 359.15176588 C-342.63303182 358.39358856 -342.63446922 357.63541124 -342.63595018 356.85425884 C-342.63886522 355.3197715 -342.64179717 353.78528419 -342.64474598 352.25079691 C-342.66656994 340.76835465 -342.67758511 329.28594454 -342.67950439 317.80348206 C-342.67964868 317.05003607 -342.67979297 316.29659009 -342.67994162 315.52031241 C-342.68116039 308.69443703 -342.68172501 301.86856196 -342.68030882 295.04268658 C-342.67673148 277.78344746 -342.69881072 260.52489185 -342.78030832 243.26583004 C-342.83697099 231.12282876 -342.8540879 218.98027509 -342.83235776 206.83715725 C-342.82170202 200.20213722 -342.83084265 193.56815795 -342.88762283 186.9332695 C-342.93971049 180.8130554 -342.9406905 174.69498116 -342.90214825 168.57468665 C-342.8971628 166.35755684 -342.91071827 164.14028887 -342.94499302 161.9234184 C-343.12825895 149.33337261 -342.45853947 140.69742667 -333.47881889 131.35483456 C-332.76323236 130.64627955 -332.76323236 130.64627955 -332.03318954 129.9234103 C-329.96313093 127.81524339 -328.11119297 125.54709356 -326.24027646 123.26268917 C-321.86869362 117.93228732 -317.26226741 112.80165324 -312.62060547 107.70654297 C-310.70726553 105.58546898 -308.85549369 103.42335821 -307.00732422 101.24560547 C-304.08761086 97.88759796 -300.91856614 95.01303887 -297.52685547 92.14013672 C-295.67001497 90.5204974 -293.9658493 88.83187256 -292.25732422 87.05810547 C-287.69994368 82.4392771 -282.62540804 78.48770904 -277.56982422 74.43310547 C-276.4670017 73.51795509 -275.36548242 72.60123239 -274.26513672 71.68310547 C-258.2602457 58.44091037 -240.69996575 47.50629355 -222.56982422 37.43310547 C-221.89097168 37.04848145 -221.21211914 36.66385742 -220.51269531 36.26757812 C-185.00535128 16.18762285 -144.85608555 3.99774612 -104.56982422 -1.56689453 C-103.49764648 -1.71787598 -102.42546875 -1.86885742 -101.32080078 -2.02441406 C-67.79363492 -6.57221663 -33.28045634 -6.26209842 0 0 Z " fill="#199AA0" transform="translate(1889.56982421875,718.56689453125)"/>
<path d="M0 0 C1.05799805 0.50289551 2.11599609 1.00579102 3.20605469 1.52392578 C17.29198131 8.27522949 30.89021157 15.50466148 44 24 C45.02222656 24.6496875 46.04445313 25.299375 47.09765625 25.96875 C64.32677731 37.15464428 80.33131176 49.89275294 95.49609375 63.71875 C97.22600469 65.29483111 98.96912038 66.85649664 100.72265625 68.40625 C113.19783504 79.55499659 124.70306077 91.81299548 135 105 C136.07627254 106.34679418 137.15314621 107.69310808 138.23046875 109.0390625 C146.40986422 119.32689923 153.95666109 129.90400821 161 141 C161.58442871 141.92014893 161.58442871 141.92014893 162.18066406 142.85888672 C164.89701833 147.17753101 167.47170085 151.56907199 170 156 C170.48049805 156.8367627 170.96099609 157.67352539 171.45605469 158.53564453 C196.30342739 202.12304506 211.74642589 250.26492556 218 300 C218.11714355 300.91587891 218.23428711 301.83175781 218.35498047 302.77539062 C220.36502153 319.15438793 220.21737225 335.52987154 220 352 C214.8966271 351.45789129 209.82245746 350.84938122 204.75 350.0625 C202.16743284 349.70055961 199.58464649 349.34621841 197 349 C196.32146973 348.90541504 195.64293945 348.81083008 194.94384766 348.71337891 C155.86476919 343.46900041 114.18269919 346.46559899 76 356 C74.95344238 356.25652344 73.90688477 356.51304687 72.82861328 356.77734375 C18.92328862 370.13979043 -31.50831029 395.97438324 -73 433 C-74.42119141 434.25490234 -74.42119141 434.25490234 -75.87109375 435.53515625 C-79.52148159 438.78416414 -83.09759545 442.05377031 -86.5 445.5625 C-89 448 -89 448 -91 448 C-91.22558594 448.55558594 -91.45117188 449.11117188 -91.68359375 449.68359375 C-93.38894414 452.68440319 -95.56706316 454.67937537 -98.0625 457.0625 C-103.50366734 462.37121612 -108.28784711 468.031273 -113 474 C-114.0392567 475.29646179 -115.07969291 476.59197864 -116.12109375 477.88671875 C-118.21622041 480.49395964 -120.31047598 483.10185954 -122.3984375 485.71484375 C-122.82817871 486.25230225 -123.25791992 486.78976074 -123.70068359 487.34350586 C-124.12945801 487.89014893 -124.55823242 488.43679199 -125 489 C-125.51371344 489.50441651 -126.02742687 490.00883303 -126.55670738 490.52853489 C-128.76402921 494.30830817 -128.41893147 497.89694605 -128.39199829 502.19993591 C-128.39793814 503.14469308 -128.40387798 504.08945024 -128.40999782 505.06283641 C-128.42636874 508.24830773 -128.42132067 511.43339178 -128.41650391 514.61889648 C-128.42391151 516.91148225 -128.43264139 519.20406406 -128.44258881 521.49664021 C-128.46615342 527.79284494 -128.47116865 534.08895037 -128.47328043 540.38519382 C-128.47825703 546.42901241 -128.49731104 552.47277417 -128.51626538 558.51656087 C-128.55431546 570.7806714 -128.57911848 583.04477359 -128.59643555 595.30892944 C-128.62111074 612.66624765 -128.6653438 630.02348131 -128.71430248 647.38074602 C-128.73357547 654.23619562 -128.75230656 661.09164673 -128.77105713 667.94709778 C-128.77313279 668.7033893 -128.77520844 669.45968083 -128.777347 670.23889028 C-128.80896208 681.78028205 -128.83750234 693.32167876 -128.86419678 704.86308289 C-128.9823291 755.75794638 -129.16209865 806.65230299 -129.40530586 857.54674625 C-129.46385447 869.80185901 -129.51892245 882.05697373 -129.56819975 894.31212747 C-129.60174981 902.60851439 -129.63869831 910.90488115 -129.67855203 919.20124018 C-129.70119022 923.93148961 -129.72236493 928.66173296 -129.73946762 933.39200592 C-129.75503525 937.67950114 -129.77507705 941.96695101 -129.79874492 946.25440896 C-129.80648527 947.79811997 -129.81258975 949.34184025 -129.81688809 950.88556468 C-129.82295474 952.97895139 -129.83499161 955.07222317 -129.84851074 957.16557312 C-129.85366447 958.32537532 -129.85881821 959.48517752 -129.86412811 960.68012524 C-130.06466398 965.57999061 -130.38810309 970.38170065 -132.56640625 974.83203125 C-133.04062012 975.80450806 -133.04062012 975.80450806 -133.52441406 976.79663086 C-133.86698242 977.46186768 -134.20955078 978.12710449 -134.5625 978.8125 C-134.92182617 979.51318604 -135.28115234 980.21387207 -135.65136719 980.93579102 C-143.74027382 996.26409248 -155.42239982 1005.80777051 -172 1011 C-173.04273858 1011.34510054 -174.08547716 1011.69020107 -175.15981388 1012.0457592 C-179.43014696 1013.10688643 -183.17674715 1013.2736072 -187.54844666 1013.24050903 C-188.38338876 1013.24221788 -189.21833086 1013.24392673 -190.07857424 1013.24568737 C-192.86228599 1013.24896845 -195.645754 1013.23800141 -198.42944336 1013.22705078 C-200.43045038 1013.22648637 -202.43145782 1013.22680381 -204.4324646 1013.22793579 C-209.85546725 1013.22850913 -215.27838126 1013.21675777 -220.70136333 1013.20278788 C-226.37215776 1013.19027745 -232.04295427 1013.18910977 -237.71376038 1013.18673706 C-248.44812652 1013.18052322 -259.18245189 1013.16411366 -269.91680008 1013.14403808 C-282.1392151 1013.12167613 -294.36163207 1013.1106849 -306.58406246 1013.10064721 C-331.72273091 1013.07974738 -356.86136317 1013.04457322 -382 1013 C-382.02932572 1009.81251971 -382.04690739 1006.62507472 -382.0625 1003.4375 C-382.07087891 1002.54224609 -382.07925781 1001.64699219 -382.08789062 1000.72460938 C-382.10629571 995.70002057 -381.86266398 990.95182709 -381 986 C-380.34 986 -379.68 986 -379 986 C-379 984.35 -379 982.7 -379 981 C-378.14523449 980.99761165 -377.29046898 980.99522329 -376.40980148 980.99276257 C-355.57588967 980.93353116 -334.74209275 980.8579291 -313.90830612 980.76428509 C-303.83308714 980.71939033 -293.75790301 980.67996116 -283.68261719 980.65356445 C-274.8972113 980.63053311 -266.11191627 980.59707794 -257.32659841 980.55129844 C-252.67827433 980.52743534 -248.03005958 980.50866137 -243.38167572 980.50238609 C-238.9985676 980.49630382 -234.61573898 980.47619157 -230.23273468 980.44572449 C-228.6316879 980.43699433 -227.03060451 980.43321116 -225.42953491 980.43499184 C-206.7908485 980.44916518 -191.20105368 976.30792041 -177.69921875 962.9296875 C-166.10662622 950.34727882 -161.66581918 935.29409322 -161.74552441 918.49229527 C-161.74231793 917.47778167 -161.73911145 916.46326807 -161.73580781 915.41801164 C-161.72752288 912.02695305 -161.73342689 908.63607177 -161.73930359 905.24501038 C-161.73628223 902.78583725 -161.73239283 900.32666505 -161.72771102 897.86749452 C-161.71956815 892.52505968 -161.71763096 887.18267643 -161.72121429 881.84024048 C-161.72652883 873.89571535 -161.72041848 865.95122724 -161.71213136 858.00670613 C-161.69689926 842.99184006 -161.69518544 827.97699087 -161.69765439 812.96211869 C-161.69948765 801.3677688 -161.69772675 789.77342444 -161.69342995 778.17907524 C-161.69282754 776.51282832 -161.69222635 774.84658141 -161.69162634 773.18033449 C-161.69071908 770.66941567 -161.68981042 768.15849685 -161.68889399 765.64757803 C-161.68046575 742.30584137 -161.67612793 718.96410678 -161.68030071 695.62236881 C-161.68045709 694.74262166 -161.68061346 693.86287451 -161.68077458 692.95646835 C-161.68158035 688.49764083 -161.68242612 684.03881332 -161.68328788 679.5799858 C-161.68345897 678.69446033 -161.68363006 677.80893486 -161.68380633 676.89657528 C-161.68415298 675.10582888 -161.68450151 673.31508249 -161.68485192 671.52433609 C-161.69020995 643.65594136 -161.68227582 615.78757828 -161.66381836 587.91918945 C-161.64310193 556.60342597 -161.63237488 525.28768209 -161.63639385 493.97191137 C-161.63678919 490.63285442 -161.63715074 487.29379748 -161.63749123 483.95474052 C-161.63762732 482.72151398 -161.63762732 482.72151398 -161.63776617 481.46337377 C-161.63893202 469.05362361 -161.63228488 456.64389324 -161.62167931 444.23414803 C-161.60963063 430.12148023 -161.6080646 416.00885605 -161.62046947 401.89618761 C-161.62709958 393.99996628 -161.6254635 386.1038492 -161.61188096 378.20763621 C-161.60266746 372.31053582 -161.60914998 366.41352034 -161.62172876 360.51642387 C-161.62438587 358.13161695 -161.62197749 355.74679789 -161.61399289 353.36200286 C-161.60388848 350.11899485 -161.61230798 346.87653214 -161.62526989 343.63354588 C-161.61796054 342.70911162 -161.6106512 341.78467736 -161.60312036 340.83222994 C-161.7270795 325.85537636 -167.99719773 310.6643865 -178.375 299.875 C-189.41729469 289.74403637 -202.69773932 283.90212638 -217.81393242 283.8613348 C-219.5300072 283.85312313 -219.5300072 283.85312313 -221.28075016 283.84474558 C-222.5278313 283.84376747 -223.77491245 283.84278936 -225.05978394 283.84178162 C-226.40552387 283.83721265 -227.7512624 283.83221214 -229.09699929 283.82681805 C-232.78895161 283.8132656 -236.48089474 283.80582698 -240.17286539 283.79939139 C-244.15644816 283.79137471 -248.14001189 283.7776813 -252.12358093 283.76467896 C-259.02339964 283.74293419 -265.92322028 283.72478239 -272.82305527 283.70907402 C-282.79904649 283.68635718 -292.77501662 283.65821686 -302.75098993 283.62875474 C-318.93652303 283.58110108 -335.12206476 283.53783086 -351.30761719 283.49731445 C-367.02995475 283.4579482 -382.75228464 283.41651927 -398.47460938 283.37231445 C-399.92840521 283.36822804 -399.92840521 283.36822804 -401.41157065 283.36405908 C-406.2737701 283.35037942 -411.13596943 283.33665918 -415.99816871 283.32291877 C-456.3320965 283.20898896 -496.66604082 283.10217187 -537 283 C-536.8465753 281.40231505 -536.69134478 279.80480345 -536.53535461 278.20736694 C-536.44910481 277.31773443 -536.36285501 276.42810192 -536.27399158 275.51151085 C-527.47110462 194.8209081 -474.34375134 110.57419094 -413 59 C-412.11828125 58.22914063 -411.2365625 57.45828125 -410.328125 56.6640625 C-389.9035932 38.90098993 -367.57016858 24.20261828 -344 11 C-342.9157373 10.38390869 -342.9157373 10.38390869 -341.80957031 9.75537109 C-309.45544557 -8.52758106 -273.33298153 -20.69798568 -237 -28 C-236.05850098 -28.19287598 -235.11700195 -28.38575195 -234.14697266 -28.58447266 C-156.18739453 -44.26937638 -71.81316821 -34.22517637 0 0 Z " fill="#036B6F" transform="translate(1677,368)"/>
<path d="M0 0 C5.18060782 -0.03125512 10.36115891 -0.053752 15.5418396 -0.06866455 C17.29864459 -0.07489144 19.05544327 -0.08337598 20.81222534 -0.09429932 C34.44903024 -0.17687302 47.55552962 0.5697348 61 3 C62.65098788 3.26986053 64.30202935 3.53939337 65.953125 3.80859375 C79.70404827 6.18465738 92.83831838 10.43244672 106 15 C106.92490234 15.31984863 107.84980469 15.63969727 108.80273438 15.96923828 C142.34663238 27.7389199 173.27666907 46.43862638 199 71 C200.42964416 72.2589773 201.86633393 73.51003631 203.3125 74.75 C209.751479 80.35084744 215.50639606 86.47823533 221 93 C221.45648926 93.53737793 221.91297852 94.07475586 222.38330078 94.62841797 C231.08495406 104.91623766 238.77526849 115.63225053 246 127 C246.4017041 127.62165039 246.8034082 128.24330078 247.21728516 128.88378906 C266.74431539 159.21849389 278.60499332 194.46253272 284 230 C284.18393311 231.01602295 284.36786621 232.0320459 284.55737305 233.07885742 C286.54284524 245.24371644 286.30154197 257.47722076 286.26074219 269.77050781 C286.250005 273.62320627 286.26069325 277.47544054 286.2734375 281.328125 C286.27211603 283.81510518 286.26955391 286.30208507 286.265625 288.7890625 C286.26967346 289.92171539 286.27372192 291.05436829 286.27789307 292.22134399 C286.21929768 302.36892285 284.832358 312.15256521 282.44921875 322.015625 C282.16522217 323.19632568 281.88122559 324.37702637 281.58862305 325.59350586 C281.29125244 326.80014893 280.99388184 328.00679199 280.6875 329.25 C280.37917236 330.51400635 280.07084473 331.7780127 279.75317383 333.08032227 C277.43653364 342.47374807 274.92786147 351.77778465 272 361 C271.49919922 362.67255859 271.49919922 362.67255859 270.98828125 364.37890625 C270 367 270 367 268 368 C267.38567131 370.31850007 267.38567131 370.31850007 267 373 C266.66666667 374.66666667 266.33333333 376.33333333 266 378 C265.34 378 264.68 378 264 378 C264 379.32 264 380.64 264 382 C263.34 382 262.68 382 262 382 C261.48179687 383.80984375 261.48179687 383.80984375 260.953125 385.65625 C258.92770402 391.71828281 255.87583366 397.16452171 252.74951172 402.72021484 C251.75508735 404.49094119 250.77727451 406.27011706 249.80078125 408.05078125 C246.00782385 414.85063043 241.92357472 420.98092217 237 427 C234.90856694 429.85642032 232.85065742 432.73367698 230.796875 435.6171875 C229 438 229 438 227.328125 439.6328125 C225.73322061 441.07666268 225.73322061 441.07666268 225 444 C223.3545622 445.68762851 221.68711423 447.3540349 220 449 C219.34 449.99 218.68 450.98 218 452 C217.34 452 216.68 452 216 452 C216 452.66 216 453.32 216 454 C214.671875 455.3046875 214.671875 455.3046875 212.75 456.875 C209.02843453 460.02553161 205.5927586 463.39076616 202.1875 466.875 C196.78708193 472.35733309 191.06952547 477.26191355 185 482 C184.24074219 482.60328125 183.48148438 483.2065625 182.69921875 483.828125 C180.48322774 485.57572714 178.24763971 487.29331765 176 489 C175.13632813 489.66 174.27265625 490.32 173.3828125 491 C167.96839808 495.0493071 162.50551974 498.5516024 156.5078125 501.67578125 C154.73860149 502.6099908 153.0059822 503.61513855 151.3046875 504.66796875 C149 506 149 506 147 506 C147 506.66 147 507.32 147 508 C143.18790397 509.75088093 139.37524937 511.50054232 135.5625 513.25 C134.49322266 513.74113281 133.42394531 514.23226562 132.32226562 514.73828125 C130.19877182 515.71236098 128.07418161 516.68405418 125.94848633 517.65332031 C124.16379784 518.4684517 122.38160698 519.28912536 120.60424805 520.12011719 C114.77359546 522.8048656 108.80736895 524.82696633 102.6875 526.75 C101.22473633 527.22373047 101.22473633 527.22373047 99.73242188 527.70703125 C98.79333984 528.00480469 97.85425781 528.30257812 96.88671875 528.609375 C95.62154419 529.0110791 95.62154419 529.0110791 94.33081055 529.42089844 C92 530 92 530 88 530 C87.67 530.66 87.34 531.32 87 532 C85.20581055 532.57836914 85.20581055 532.57836914 82.88671875 533.03515625 C82.05076172 533.20466797 81.21480469 533.37417969 80.35351562 533.54882812 C79.47373047 533.71833984 78.59394531 533.88785156 77.6875 534.0625 C75.96214112 534.40705942 74.23687725 534.75209495 72.51171875 535.09765625 C71.74303467 535.24726807 70.97435059 535.39687988 70.18237305 535.55102539 C68.7373528 535.8483061 67.29846884 536.17731096 65.86816406 536.53881836 C63.60160567 537.09834904 61.38758319 537.29937649 59.0625 537.5 C56.52657882 537.71949241 54.09454222 537.98029087 51.6015625 538.5 C48.50161548 539.09578561 45.46270934 539.30245048 42.3125 539.5 C38.26098236 539.75694789 34.23392144 540.07735575 30.19921875 540.51953125 C24.95884044 541.052653 19.76512931 541.19176557 14.5 541.1875 C13.55020264 541.18741943 12.60040527 541.18733887 11.62182617 541.18725586 C3.97840754 541.12659887 -3.49583448 540.48506518 -11.0703125 539.50390625 C-14.40346499 539.07649405 -17.71303961 538.7551528 -21.0625 538.5 C-25.04191293 538.15475413 -28.80744142 537.47052752 -32.6875 536.53515625 C-35.27980219 535.93524848 -37.87973287 535.46218601 -40.5 535 C-54.14795859 532.54108009 -54.14795859 532.54108009 -59.9765625 529.859375 C-65.09668343 527.68480627 -70.53316184 525.8438038 -75.93994141 524.52783203 C-94.87471855 519.67632834 -112.01302242 508.79035619 -128.42260742 498.60913086 C-129.83376831 497.73526733 -129.83376831 497.73526733 -131.2734375 496.84375 C-132.11310059 496.31974609 -132.95276367 495.79574219 -133.81787109 495.25585938 C-136.05871193 493.8697991 -136.05871193 493.8697991 -139 493 C-139.99 491.515 -139.99 491.515 -141 490 C-141.99 489.67 -142.98 489.34 -144 489 C-144 488.34 -144 487.68 -144 487 C-145.65 486.34 -147.3 485.68 -149 485 C-149 484.34 -149 483.68 -149 483 C-149.51949219 482.78730469 -150.03898437 482.57460937 -150.57421875 482.35546875 C-154.02414412 480.42773267 -156.83947065 477.90047307 -159.8125 475.3125 C-160.43833984 474.77230225 -161.06417969 474.23210449 -161.70898438 473.67553711 C-165.46812473 470.40686854 -169.08645272 467.05882159 -172.53515625 463.4609375 C-174.08782007 461.91241411 -175.72509255 460.55584406 -177.4375 459.1875 C-178.7059375 458.1046875 -178.7059375 458.1046875 -180 457 C-180 456.34 -180 455.68 -180 455 C-180.66 455 -181.32 455 -182 455 C-183.5859375 453.171875 -183.5859375 453.171875 -185.375 450.75 C-187.73289439 447.57151681 -190.167596 444.763039 -193 442 C-197 437.33333333 -197 437.33333333 -197 435 C-197.66 435 -198.32 435 -199 435 C-200.375 433.12109375 -200.375 433.12109375 -202 430.4375 C-205.45010067 424.83564521 -209.07737497 419.3782203 -212.79882812 413.95288086 C-216 409.2187447 -216 409.2187447 -216 407 C-216.66 407 -217.32 407 -218 407 C-222.2002258 398.79592258 -226.29111519 390.56477343 -230 382.125 C-230.30236572 381.44179687 -230.60473145 380.75859375 -230.91625977 380.0546875 C-233 375.25140694 -233 375.25140694 -233 373 C-233.66 372.67 -234.32 372.34 -235 372 C-235.33333333 369.66666667 -235.66666667 367.33333333 -236 365 C-236.66 364.67 -237.32 364.34 -238 364 C-238.77783203 362.09814453 -238.77783203 362.09814453 -239.5078125 359.6328125 C-239.77207031 358.74722656 -240.03632812 357.86164063 -240.30859375 356.94921875 C-240.71271484 355.55123047 -240.71271484 355.55123047 -241.125 354.125 C-241.40214844 353.20074219 -241.67929688 352.27648438 -241.96484375 351.32421875 C-244 344.41671798 -244 344.41671798 -244 341 C-244.66 340.67 -245.32 340.34 -246 340 C-246.5625 337.48828125 -246.5625 337.48828125 -247 334.3125 C-247.44869255 331.09553469 -247.93265028 328.19465389 -248.99609375 325.12109375 C-250.21269391 321.33874539 -250.64782247 317.68763354 -251.0625 313.75 C-251.44825973 308.72300729 -251.44825973 308.72300729 -253 304 C-253.71135031 299.2752288 -254.06455095 294.5267706 -254 289.75 C-253.88381771 286.17282116 -253.88381771 286.17282116 -254.4921875 283.3984375 C-255.16821356 278.87426308 -255.14494423 274.44222804 -255.125 269.875 C-255.12886719 268.98167969 -255.13273437 268.08835937 -255.13671875 267.16796875 C-255.13542969 266.30558594 -255.13414063 265.44320313 -255.1328125 264.5546875 C-255.13112061 263.38655518 -255.13112061 263.38655518 -255.12939453 262.19482422 C-255.00016909 260.0028682 -254.56438811 258.11584927 -254 256 C-253.7801777 253.75292759 -253.59516013 251.50228762 -253.4375 249.25 C-253.35371094 248.07953125 -253.26992187 246.9090625 -253.18359375 245.703125 C-253.12300781 244.81109375 -253.06242187 243.9190625 -253 243 C-252.67 243 -252.34 243 -252 243 C-252 246.63 -252 250.26 -252 254 C-225.80832434 253.98616681 -199.61682742 253.94380864 -173.42525482 253.86790943 C-161.26281243 253.83332256 -149.10048264 253.80791218 -136.93798828 253.80444336 C-126.33160133 253.8013947 -115.72541525 253.78078315 -105.11910582 253.73947543 C-99.50814013 253.71822564 -93.89745944 253.70550349 -88.28645325 253.71384621 C-82.99381409 253.72143722 -77.70174996 253.70535977 -72.40921593 253.67193985 C-70.47765992 253.66376709 -68.54604607 253.66388423 -66.61449623 253.67340279 C-49.88902602 253.74759514 -35.76952067 251.32135499 -22 241 C-21.34644531 240.52820312 -20.69289063 240.05640625 -20.01953125 239.5703125 C-10.94547271 232.47932636 -3.45009885 220.13966306 -1.43713474 208.84053707 C-0.9608218 204.65579187 -0.84707505 200.58206151 -0.84178162 196.37562561 C-0.83684364 195.5325164 -0.83190566 194.68940719 -0.82681805 193.82074922 C-0.81151993 191.009489 -0.80310337 188.19825147 -0.79467773 185.38696289 C-0.78509316 183.36624962 -0.77508274 181.34553832 -0.76467896 179.3248291 C-0.73768659 173.84815826 -0.71664638 168.37147884 -0.69667697 162.89477849 C-0.6747824 157.16790923 -0.64741071 151.44106621 -0.62062073 145.71421814 C-0.57074075 134.87363804 -0.52578451 124.03304334 -0.48259836 113.19243473 C-0.43318585 100.84907998 -0.37828261 88.50575156 -0.32291877 76.1624223 C-0.2091708 50.77497278 -0.10231614 25.38749799 0 0 Z " fill="#36C5CF" transform="translate(1547,1127)"/>
<path d="M0 0 C2.00775209 0.00389831 4.01532884 0.00001517 6.02307129 -0.00683594 C20.85426679 -0.05408641 35.45509198 0.02187732 50.13684082 2.25390625 C51.37998047 2.44146484 52.62312012 2.62902344 53.90393066 2.82226562 C57.40711122 3.38307663 60.89678446 3.99181468 64.38684082 4.62890625 C65.59122803 4.84659668 66.79561523 5.06428711 68.03649902 5.28857422 C76.24685467 6.81129682 84.21171753 8.59474995 92.13684082 11.25390625 C95.10684082 12.24390625 98.07684082 13.23390625 101.13684082 14.25390625 C101.13684082 38.34390625 101.13684082 62.43390625 101.13684082 87.25390625 C94.86684082 84.28390625 88.59684082 81.31390625 82.13684082 78.25390625 C75.82325901 75.78513388 69.56017469 73.39063301 63.13684082 71.25390625 C61.96766113 70.86460937 60.79848145 70.4753125 59.59387207 70.07421875 C40.09637071 64.28554746 19.91945403 62.87603407 -0.30065918 62.87890625 C-1.1296875 62.87709351 -1.95871582 62.87528076 -2.81286621 62.87341309 C-24.64990771 62.87883009 -50.94936075 66.15026371 -67.98815918 81.50390625 C-75.15978405 89.67578406 -78.26605593 99.38579331 -78.13659668 110.02734375 C-77.1643232 121.50017082 -70.88002086 130.07536864 -62.30065918 137.31640625 C-40.9202176 153.56040541 -13.97629272 162.57302042 10.65441895 172.70019531 C50.57667709 189.11475324 93.8122208 207.19556802 112.04699707 249.375 C117.35787006 263.40408025 119.51424133 277.06644293 119.44934082 292.00390625 C119.4466066 292.99935959 119.4466066 292.99935959 119.44381714 294.0149231 C119.39848342 303.81040179 118.97008645 312.82879478 116.13684082 322.25390625 C115.79652832 323.47207031 115.45621582 324.69023438 115.10559082 325.9453125 C110.80041149 340.12622415 104.15773623 352.28275352 94.13684082 363.25390625 C93.45105957 364.02089844 92.76527832 364.78789063 92.05871582 365.578125 C64.43308685 394.89198686 19.7569329 403.86017239 -18.86315918 405.25390625 C-37.6110298 405.78605617 -56.23001247 405.54021912 -74.86315918 403.25390625 C-76.66744385 403.04459473 -76.66744385 403.04459473 -78.50817871 402.83105469 C-101.59389349 400.14461326 -122.75950079 395.9532108 -144.80847168 388.47265625 C-145.78316406 388.14201172 -146.75785645 387.81136719 -147.76208496 387.47070312 C-151.5681613 385.97727811 -155.2062167 384.08237749 -158.86315918 382.25390625 C-158.86315918 357.17390625 -158.86315918 332.09390625 -158.86315918 306.25390625 C-155.22982945 307.70723814 -152.32256163 309.12022468 -149.05871582 311.17211914 C-109.20085831 336.22425514 -52.80258616 350.48428508 -6.16052246 339.84912109 C7.28184761 336.36639014 22.84063657 331.38215476 30.92590332 319.37109375 C37.00855691 308.7362607 39.13938741 297.38600123 36.48840332 285.296875 C27.98424027 262.21933852 0.84280135 251.22566987 -19.73962402 241.69506836 C-32.69095073 235.76608203 -45.8145666 230.22116162 -58.94274902 224.69750977 C-95.77775654 209.14309049 -136.82822941 189.52993957 -152.86315918 150.25390625 C-157.3210064 138.00396133 -159.08685054 126.55338673 -159.1583252 113.50561523 C-159.1697544 112.06215542 -159.19005974 110.61873477 -159.21984863 109.17553711 C-159.72792154 84.45026837 -150.46734233 62.56579811 -133.86315918 44.25390625 C-119.14124615 29.32752221 -101.72506683 18.80972472 -81.86315918 12.25390625 C-80.2795459 11.67382812 -80.2795459 11.67382812 -78.66394043 11.08203125 C-71.02449735 8.35906144 -63.34564168 6.31530446 -55.42565918 4.56640625 C-54.5217041 4.364104 -53.61774902 4.16180176 -52.68640137 3.95336914 C-49.75321629 3.32969066 -46.81597683 2.77686847 -43.86315918 2.25390625 C-42.79549316 2.0626416 -41.72782715 1.87137695 -40.62780762 1.67431641 C-27.16320368 -0.36880194 -13.58656004 -0.04620437 0 0 Z " fill="#FDFEFE" transform="translate(1191.8631591796875,797.74609375)"/>
<path d="M0 0 C42.85205797 -1.08117759 42.85205797 -1.08117759 59.94140625 13.51171875 C71.55277348 24.58596151 79.49149869 37.87901067 80.12534916 54.23441654 C80.12551152 55.41206245 80.12567387 56.58970836 80.12584114 57.8030405 C80.12729458 58.46610511 80.12874802 59.12916971 80.13024551 59.81232718 C80.13389363 62.03380795 80.13042372 64.25521956 80.12698364 66.47669983 C80.12813633 68.08881666 80.12972485 69.70093323 80.13171089 71.31304926 C80.13589273 75.7493932 80.13381768 80.18571567 80.13072467 84.6220597 C80.12846251 89.41733246 80.13195673 94.21260151 80.13470459 99.00787354 C80.13917267 108.46059834 80.13817544 117.91331523 80.13529195 127.36604036 C80.13301554 135.16543398 80.13273509 142.96482542 80.13381577 150.76421928 C80.133969 151.88374667 80.13412223 153.00327406 80.13428011 154.15672652 C80.13460001 156.43502741 80.13492423 158.71332829 80.1352527 160.99162918 C80.13811706 182.47760686 80.13481905 203.96358031 80.12945233 225.4495573 C80.12510427 243.39467784 80.12570528 261.33979172 80.13037109 279.28491211 C80.15581864 380.13136946 80.07036255 480.97640084 79.6020667 581.82192636 C79.57030795 588.66807619 79.53978924 595.51422992 79.51036522 602.36039017 C79.4599885 614.07703808 79.40426316 625.79364416 79.3421998 637.51023602 C79.32180442 641.38654857 79.30350812 645.26286186 79.28710318 649.1391933 C79.2681116 653.59407892 79.24452629 658.04891579 79.21722196 662.50375801 C79.2081108 664.11342779 79.20061593 665.72310771 79.19489874 667.33279312 C79.18686631 669.51833405 79.17287132 671.70375942 79.15737724 673.88925838 C79.15108704 675.10239332 79.14479685 676.31552826 79.13831604 677.56542486 C78.93939864 682.50481425 78.63004404 687.34462558 76.43359375 691.83203125 C76.11745117 692.48034912 75.80130859 693.12866699 75.47558594 693.79663086 C75.13301758 694.46186768 74.79044922 695.12710449 74.4375 695.8125 C74.07817383 696.51318604 73.71884766 697.21387207 73.34863281 697.93579102 C65.25972618 713.26409248 53.57760018 722.80777051 37 728 C35.43589213 728.5176508 35.43589213 728.5176508 33.84018612 729.0457592 C29.56985304 730.10688643 25.82325285 730.2736072 21.45155334 730.24050903 C20.61661124 730.24221788 19.78166914 730.24392673 18.92142576 730.24568737 C16.13771401 730.24896845 13.354246 730.23800141 10.57055664 730.22705078 C8.56954962 730.22648637 6.56854218 730.22680381 4.5675354 730.22793579 C-0.85546725 730.22850913 -6.27838126 730.21675777 -11.70136333 730.20278788 C-17.37215776 730.19027745 -23.04295427 730.18910977 -28.71376038 730.18673706 C-39.44812652 730.18052322 -50.18245189 730.16411366 -60.91680008 730.14403808 C-73.1392151 730.12167613 -85.36163207 730.1106849 -97.58406246 730.10064721 C-122.72273091 730.07974738 -147.86136317 730.04457322 -173 730 C-173.02932572 726.81251971 -173.04690739 723.62507472 -173.0625 720.4375 C-173.07087891 719.54224609 -173.07925781 718.64699219 -173.08789062 717.72460938 C-173.10629571 712.70002057 -172.86266398 707.95182709 -172 703 C-171.34 703 -170.68 703 -170 703 C-170 701.35 -170 699.7 -170 698 C-169.14523449 697.99761165 -168.29046898 697.99522329 -167.40980148 697.99276257 C-146.57588967 697.93353116 -125.74209275 697.8579291 -104.90830612 697.76428509 C-94.83308714 697.71939033 -84.75790301 697.67996116 -74.68261719 697.65356445 C-65.8972113 697.63053311 -57.11191627 697.59707794 -48.32659841 697.55129844 C-43.67827433 697.52743534 -39.03005958 697.50866137 -34.38167572 697.50238609 C-29.9985676 697.49630382 -25.61573898 697.47619157 -21.23273468 697.44572449 C-19.6316879 697.43699433 -18.03060451 697.43321116 -16.42953491 697.43499184 C2.2091515 697.44916518 17.79894632 693.30792041 31.30078125 679.9296875 C42.89337378 667.34727882 47.33418082 652.29409322 47.25447559 635.49229527 C47.25768207 634.47778167 47.26088855 633.46326807 47.26419219 632.41801164 C47.27247712 629.02695305 47.26657311 625.63607177 47.26069641 622.24501038 C47.26371777 619.78583725 47.26760717 617.32666505 47.27228898 614.86749452 C47.28043185 609.52505968 47.28236904 604.18267643 47.27878571 598.84024048 C47.27347117 590.89571535 47.27958152 582.95122724 47.28786864 575.00670613 C47.30310074 559.99184006 47.30481456 544.97699087 47.30234561 529.96211869 C47.30051235 518.3677688 47.30227325 506.77342444 47.30657005 495.17907524 C47.30717246 493.51282832 47.30777365 491.84658141 47.30837366 490.18033449 C47.30928092 487.66941567 47.31018958 485.15849685 47.31110601 482.64757803 C47.31953425 459.30584137 47.32387207 435.96410678 47.31969929 412.62236881 C47.31946472 411.30274808 47.31946472 411.30274808 47.31922542 409.95646835 C47.31841965 405.49764083 47.31757388 401.03881332 47.31671212 396.5799858 C47.31654103 395.69446033 47.31636994 394.80893486 47.31619367 393.89657528 C47.31584702 392.10582888 47.31549849 390.31508249 47.31514808 388.52433609 C47.30979005 360.65594136 47.31772418 332.78757828 47.33618164 304.91918945 C47.35689807 273.60342597 47.36762512 242.28768209 47.36360615 210.97191137 C47.36321081 207.63285442 47.36284926 204.29379748 47.36250877 200.95474052 C47.36237268 199.72151398 47.36237268 199.72151398 47.36223383 198.46337377 C47.36106798 186.05362361 47.36771512 173.64389324 47.37832069 161.23414803 C47.39036937 147.12148023 47.3919354 133.00885605 47.37953053 118.89618761 C47.37290042 110.99996628 47.3745365 103.1038492 47.38811904 95.20763621 C47.39733254 89.31053582 47.39085002 83.41352034 47.37827124 77.51642387 C47.37561413 75.13161695 47.37802251 72.74679789 47.38600711 70.36200286 C47.39611152 67.11899485 47.38769202 63.87653214 47.37473011 60.63354588 C47.38203946 59.70911162 47.3893488 58.78467736 47.39687964 57.83222994 C47.2729205 42.85537636 41.00280227 27.6643865 30.625 16.875 C21.38540447 8.42013724 11.78092383 4.54998505 0 1 C0 0.67 0 0.34 0 0 Z " fill="#0E5A5D" transform="translate(1468,651)"/>
<path d="M0 0 C0.33 0 0.66 0 1 0 C1.09168543 33.50408511 1.16210453 67.00813885 1.20426132 100.51232168 C1.20926376 104.47362807 1.21444108 108.43493421 1.21972656 112.39624023 C1.2207758 113.18481849 1.22182505 113.97339675 1.22290608 114.78587132 C1.24028053 127.53099982 1.27180177 140.27605568 1.30861118 153.02114118 C1.34610323 166.11240274 1.36825326 179.20362642 1.37635398 192.29493946 C1.38182468 200.36389747 1.3990623 208.43265008 1.43166587 216.50154483 C1.45543897 222.70340235 1.4577991 228.9051054 1.45243073 235.10700226 C1.45352625 237.64049221 1.46141687 240.17399034 1.4768219 242.7074337 C1.60697802 265.2272632 -0.67009614 284.60973393 -17.1953125 301.3671875 C-20.87098015 304.81760532 -24.59713061 307.56211491 -29 310 C-29.98226563 310.56267578 -29.98226563 310.56267578 -30.984375 311.13671875 C-42.64340037 317.4092744 -53.75853398 317.41765214 -66.67822266 317.34057617 C-68.66982002 317.339729 -70.66141832 317.3402068 -72.65301514 317.34190369 C-78.03663173 317.34276154 -83.42004625 317.32516979 -88.80361605 317.30418181 C-94.43835191 317.28537995 -100.07309283 317.28366181 -105.70785522 317.28010559 C-116.36777284 317.27079543 -127.02759775 317.24619556 -137.68747461 317.21605712 C-149.82772848 317.18248107 -161.96798688 317.16601904 -174.10827565 317.15097082 C-199.07223509 317.11964512 -224.03611234 317.06690463 -249 317 C-250.9835169 313.35418351 -251.46655823 310.11512225 -252 306 C-252.33 305.34 -252.66 304.68 -253 304 C-253.71135031 299.2752288 -254.06455095 294.5267706 -254 289.75 C-253.88381771 286.17282116 -253.88381771 286.17282116 -254.4921875 283.3984375 C-255.16821356 278.87426308 -255.14494423 274.44222804 -255.125 269.875 C-255.12886719 268.98167969 -255.13273437 268.08835937 -255.13671875 267.16796875 C-255.13542969 266.30558594 -255.13414063 265.44320313 -255.1328125 264.5546875 C-255.13112061 263.38655518 -255.13112061 263.38655518 -255.12939453 262.19482422 C-255.00016909 260.0028682 -254.56438811 258.11584927 -254 256 C-253.7801777 253.75292759 -253.59516013 251.50228762 -253.4375 249.25 C-253.35371094 248.07953125 -253.26992187 246.9090625 -253.18359375 245.703125 C-253.12300781 244.81109375 -253.06242187 243.9190625 -253 243 C-252.67 243 -252.34 243 -252 243 C-252 246.63 -252 250.26 -252 254 C-225.80832434 253.98616681 -199.61682742 253.94380864 -173.42525482 253.86790943 C-161.26281243 253.83332256 -149.10048264 253.80791218 -136.93798828 253.80444336 C-126.33160133 253.8013947 -115.72541525 253.78078315 -105.11910582 253.73947543 C-99.50814013 253.71822564 -93.89745944 253.70550349 -88.28645325 253.71384621 C-82.99381409 253.72143722 -77.70174996 253.70535977 -72.40921593 253.67193985 C-70.47765992 253.66376709 -68.54604607 253.66388423 -66.61449623 253.67340279 C-49.88902602 253.74759514 -35.76952067 251.32135499 -22 241 C-21.34644531 240.52820312 -20.69289063 240.05640625 -20.01953125 239.5703125 C-10.94547271 232.47932636 -3.45009885 220.13966306 -1.43713474 208.84053707 C-0.9608218 204.65579187 -0.84707505 200.58206151 -0.84178162 196.37562561 C-0.83684364 195.5325164 -0.83190566 194.68940719 -0.82681805 193.82074922 C-0.81151993 191.009489 -0.80310337 188.19825147 -0.79467773 185.38696289 C-0.78509316 183.36624962 -0.77508274 181.34553832 -0.76467896 179.3248291 C-0.73768659 173.84815826 -0.71664638 168.37147884 -0.69667697 162.89477849 C-0.6747824 157.16790923 -0.64741071 151.44106621 -0.62062073 145.71421814 C-0.57074075 134.87363804 -0.52578451 124.03304334 -0.48259836 113.19243473 C-0.43318585 100.84907998 -0.37828261 88.50575156 -0.32291877 76.1624223 C-0.2091708 50.77497278 -0.10231614 25.38749799 0 0 Z " fill="#278F96" transform="translate(1547,1127)"/>
<path d="M0 0 C0.02335771 26.47739982 0.04099331 52.9547981 0.05181217 79.43220615 C0.05696901 91.72604784 0.06400009 104.01988313 0.07543945 116.3137207 C0.08540495 127.02869974 0.09185788 137.74367414 0.09408849 148.45865768 C0.09539242 154.13241807 0.09845825 159.8061652 0.10573006 165.47992134 C0.11251966 170.82073642 0.11461095 176.16153278 0.11310768 181.50235176 C0.11338268 183.46189475 0.11537036 185.42143837 0.11920547 187.38097763 C0.12418862 190.05853785 0.12298122 192.73602759 0.12025452 195.41358948 C0.12462378 196.57363482 0.12462378 196.57363482 0.12908131 197.75711542 C0.11308924 203.57668801 0.03774582 209.51168015 -2.56640625 214.83203125 C-2.88254883 215.48034912 -3.19869141 216.12866699 -3.52441406 216.79663086 C-3.86698242 217.46186768 -4.20955078 218.12710449 -4.5625 218.8125 C-4.92182617 219.51318604 -5.28115234 220.21387207 -5.65136719 220.93579102 C-13.74027382 236.26409248 -25.42239982 245.80777051 -42 251 C-43.04273858 251.34510054 -44.08547716 251.69020107 -45.15981388 252.0457592 C-49.43014696 253.10688643 -53.17674715 253.2736072 -57.54844666 253.24050903 C-58.38338876 253.24221788 -59.21833086 253.24392673 -60.07857424 253.24568737 C-62.86228599 253.24896845 -65.645754 253.23800141 -68.42944336 253.22705078 C-70.43045038 253.22648637 -72.43145782 253.22680381 -74.4324646 253.22793579 C-79.85546725 253.22850913 -85.27838126 253.21675777 -90.70136333 253.20278788 C-96.37215776 253.19027745 -102.04295427 253.18910977 -107.71376038 253.18673706 C-118.44812652 253.18052322 -129.18245189 253.16411366 -139.91680008 253.14403808 C-152.1392151 253.12167613 -164.36163207 253.1106849 -176.58406246 253.10064721 C-201.72273091 253.07974738 -226.86136317 253.04457322 -252 253 C-252.02932572 249.81251971 -252.04690739 246.62507472 -252.0625 243.4375 C-252.07087891 242.54224609 -252.07925781 241.64699219 -252.08789062 240.72460938 C-252.10629571 235.70002057 -251.86266398 230.95182709 -251 226 C-250.34 226 -249.68 226 -249 226 C-249 224.35 -249 222.7 -249 221 C-248.14523449 220.99761165 -247.29046898 220.99522329 -246.40980148 220.99276257 C-225.57588967 220.93353116 -204.74209275 220.8579291 -183.90830612 220.76428509 C-173.83308714 220.71939033 -163.75790301 220.67996116 -153.68261719 220.65356445 C-144.8972113 220.63053311 -136.11191627 220.59707794 -127.32659841 220.55129844 C-122.67827433 220.52743534 -118.03005958 220.50866137 -113.38167572 220.50238609 C-108.9985676 220.49630382 -104.61573898 220.47619157 -100.23273468 220.44572449 C-98.6316879 220.43699433 -97.03060451 220.43321116 -95.42953491 220.43499184 C-76.7908485 220.44916518 -61.20105368 216.30792041 -47.69921875 202.9296875 C-34.21499612 188.29413472 -31.7062374 171.77778975 -31.68115234 152.62646484 C-31.67183937 150.98953769 -31.66166868 149.35261522 -31.65071106 147.71569824 C-31.6235513 143.2990858 -31.60830352 138.882505 -31.59528303 134.46583128 C-31.57959074 129.84002802 -31.55282013 125.21428881 -31.5272522 120.58853149 C-31.48057196 111.84114481 -31.44377597 103.09374593 -31.41057932 94.34629881 C-31.37228171 84.38249247 -31.32289168 74.41875061 -31.27259517 64.45499873 C-31.16943537 43.97004685 -31.08012336 23.48505409 -31 3 C-28.2728745 2.48579452 -25.54422577 1.98867294 -22.8125 1.5 C-22.06291016 1.35691406 -21.31332031 1.21382812 -20.54101562 1.06640625 C-13.68040666 -0.13922378 -6.95171177 -0.14670931 0 0 Z " fill="#1F7278" transform="translate(1547,1128)"/>
<path d="M0 0 C0.33 0 0.66 0 1 0 C1 99.66 1 199.32 1 302 C-9.23 302 -19.46 302 -30 302 C-30.24896266 268.35160038 -30.44576207 234.70354604 -30.56171862 201.05443072 C-30.57547547 197.07681295 -30.58971311 193.09919703 -30.60424805 189.12158203 C-30.60713346 188.32975085 -30.61001888 187.53791966 -30.61299173 186.7220936 C-30.66078343 173.92107257 -30.74747232 161.12059805 -30.84868076 148.31990062 C-30.95175278 135.17330286 -31.01268947 122.0269902 -31.03497344 108.880005 C-31.05002532 100.77514415 -31.09746082 92.67182821 -31.18708114 84.56744327 C-31.2524131 78.34010336 -31.25895642 72.11392725 -31.24418449 65.8862915 C-31.24719949 63.34101 -31.26893201 60.79566755 -31.31126022 58.25073624 C-31.67430028 35.28828942 -31.67430028 35.28828942 -23.34934777 26.24986064 C-22.40315733 25.30048633 -21.44334456 24.36447644 -20.46982253 23.44314981 C-18.3496165 21.36141894 -16.49905912 19.08292455 -14.6194126 16.78509605 C-9.93612895 11.06015664 -5.13975325 5.31840777 0 0 Z " fill="#168B90" transform="translate(1578,825)"/>
<path d="M0 0 C12.21 0 24.42 0 37 0 C37 0.33 37 0.66 37 1 C35.02 1 33.04 1 31 1 C31.00368717 2.20337572 31.00737434 3.40675144 31.01117325 4.64659309 C31.09793707 33.25772907 31.16382818 61.86886323 31.20426132 90.48010118 C31.20926372 94.0070794 31.21444105 97.53405735 31.21972656 101.06103516 C31.2207758 101.7631479 31.22182505 102.46526064 31.22290608 103.18864952 C31.24027779 114.53445539 31.27179749 125.8801796 31.30861118 137.22593714 C31.34611093 148.88094929 31.36795577 160.53591402 31.37635398 172.19098365 C31.38155765 178.73191761 31.39374362 185.27266681 31.42292023 191.81354141 C31.450192 197.97767995 31.45842119 204.14155866 31.45243073 210.3057518 C31.4535257 212.56069097 31.46140895 214.81563937 31.4768219 217.07052612 C31.60731964 237.15763224 29.23615135 253.55751427 14.8125 268.8125 C9.5030351 273.87928853 3.77979907 278.08348933 -3 281 C-3.66 280.67 -4.32 280.34 -5 280 C-4.71758327 279.21916518 -4.43516655 278.43833036 -4.14419174 277.63383389 C-0.10294835 264.86646403 -0.42459472 252.25611378 -0.45410156 238.97094727 C-0.44535503 236.35792428 -0.4348655 233.74490663 -0.42277527 231.13189697 C-0.39959453 225.53361346 -0.39070885 219.935459 -0.39188385 214.33712959 C-0.39356143 206.24318856 -0.37313404 198.14941828 -0.34752855 190.05552303 C-0.30656335 176.9197548 -0.28316419 163.78401754 -0.27099609 150.64819336 C-0.25914674 137.89751209 -0.2389099 125.14688901 -0.20751953 112.39624023 C-0.20558343 111.60862726 -0.20364733 110.82101428 -0.20165256 110.00953425 C-0.19188716 106.05781453 -0.1819582 102.10609525 -0.17194796 98.15437615 C-0.08927969 65.43627272 -0.036292 32.71818788 0 0 Z " fill="#31B2BB" transform="translate(1548,1127)"/>
<path d="M0 0 C42.85205797 -1.08117759 42.85205797 -1.08117759 59.94140625 13.51171875 C71.60309269 24.63395303 79.35597545 37.82724175 80.15656757 54.20240402 C80.1712316 55.36076389 80.18589563 56.51912376 80.20100403 57.71258545 C80.21498585 58.68740289 80.21498585 58.68740289 80.22925013 59.68191361 C80.25884695 61.84617853 80.28153355 64.01045438 80.30395508 66.17480469 C80.32333266 67.73267411 80.34295678 69.29054048 80.36280823 70.84840393 C80.53621772 85.07683335 80.629833 99.30629395 80.70387745 113.53554916 C80.75966145 124.03332849 80.8542241 134.529254 80.99953538 145.02618289 C81.09852675 152.42945425 81.15070159 159.8322207 81.16973227 167.23612332 C81.18241824 171.6463653 81.21515035 176.05420177 81.29932594 180.46370697 C81.92887146 214.88475056 81.92887146 214.88475056 69.43371201 228.35257149 C67.1634504 230.96125 65.6125698 233.81703934 63.94140625 236.83984375 C63.37099609 237.86013672 62.80058594 238.88042969 62.21289062 239.93164062 C61.66826172 240.92357422 61.12363281 241.91550781 60.5625 242.9375 C59.99080078 243.95650391 59.41910156 244.97550781 58.83007812 246.02539062 C55.21111617 252.54450809 51.97633715 259.16410713 49 266 C48.67 266 48.34 266 48 266 C47.99761165 264.89693355 47.99522329 263.79386709 47.99276257 262.65737438 C47.93392852 235.7985954 47.85802145 208.93990585 47.76428509 182.0812254 C47.71934852 169.0924886 47.67992884 156.1037791 47.65356445 143.11499023 C47.63056714 131.79197236 47.59714958 120.469041 47.55129844 109.14609176 C47.52738978 103.15249817 47.50864549 97.15899013 47.50238609 91.16534996 C47.49632468 85.51909875 47.47628629 79.87306638 47.44572449 74.22689629 C47.43696126 72.15939607 47.43321811 70.09186724 47.43499184 68.02434921 C47.55443038 53.24959599 47.55443038 53.24959599 44 39 C43.56890442 37.88520531 43.56890442 37.88520531 43.12909985 36.74788952 C37.63806394 23.2159669 28.5517258 12.12254278 15 6 C10.0705022 4.1124311 5.05227804 2.52241978 0 1 C0 0.67 0 0.34 0 0 Z " fill="#023E41" transform="translate(1468,651)"/>
<path d="M0 0 C1 3 1 3 -0.1171875 5.3828125 C-9.20060329 19.55294114 -21.49269796 30.32987496 -38.12619305 34.53789425 C-41.84792553 35.13634571 -45.51199669 35.13444467 -49.26997375 35.12025452 C-50.51369831 35.12153615 -50.51369831 35.12153615 -51.78254861 35.12284368 C-54.55858634 35.12448972 -57.33456354 35.11899144 -60.1105957 35.11352539 C-62.10145567 35.1132433 -64.09231575 35.11340167 -66.08317566 35.1139679 C-71.48767499 35.11425503 -76.89215217 35.10837178 -82.29664636 35.10139394 C-87.94476729 35.09514651 -93.59288872 35.0945555 -99.24101257 35.09336853 C-109.93647309 35.09025932 -120.63192339 35.08205144 -131.32737941 35.07201904 C-143.50380403 35.06084518 -155.68022915 35.05534424 -167.85665762 35.05032361 C-192.90444408 35.03986851 -217.95222147 35.02227698 -243 35 C-244.9835169 31.35418351 -245.46655823 28.11512225 -246 24 C-246.33 23.34 -246.66 22.68 -247 22 C-247.02172852 20.12060547 -247.02172852 20.12060547 -246.87890625 17.8671875 C-246.83056641 17.06152344 -246.78222656 16.25585938 -246.73242188 15.42578125 C-246.67634766 14.58402344 -246.62027344 13.74226563 -246.5625 12.875 C-246.51029297 12.02550781 -246.45808594 11.17601562 -246.40429688 10.30078125 C-246.27448622 8.20020876 -246.1378826 6.10005809 -246 4 C-244.81116368 3.99761165 -243.62232737 3.99522329 -242.39746571 3.99276257 C-214.136718 3.93532424 -185.87603803 3.86253815 -157.61538031 3.77101372 C-154.13217772 3.75974641 -150.64897474 3.74860782 -147.16577148 3.73754883 C-146.47236828 3.73534514 -145.77896507 3.73314146 -145.06454965 3.730871 C-133.85715347 3.69555962 -122.64975736 3.67066079 -111.44232628 3.64965298 C-99.93078044 3.62784172 -88.41931537 3.59452091 -76.90782899 3.55129844 C-70.4469209 3.5274006 -63.98609201 3.50864923 -57.52514076 3.50238609 C-51.43731335 3.49631978 -45.34968849 3.47626375 -39.26193619 3.44572449 C-37.03401918 3.43696909 -34.80607567 3.43321647 -32.57814217 3.43499184 C-21.33533228 3.44111927 -10.82474352 3.40169991 0 0 Z " fill="#2B9EA6" transform="translate(1541,1409)"/>
<path d="M0 0 C0.33 0 0.66 0 1 0 C2.32912599 46.22495696 2.32912599 46.22495696 -13.3203125 64.74609375 C-23.90697148 75.91352556 -37.55069443 82.952999 -53 84 C-58.4508745 84.13828431 -63.8997319 84.12666276 -69.35180664 84.11352539 C-70.99843341 84.11324295 -72.64506031 84.11340237 -74.29168701 84.1139679 C-78.73937047 84.11425363 -83.18702671 84.10839312 -87.63470387 84.10139394 C-92.2911714 84.0951231 -96.94763962 84.09455366 -101.60411072 84.09336853 C-110.41176805 84.09026619 -119.2194129 84.08206763 -128.02706474 84.07201904 C-138.05851982 84.06082378 -148.08997551 84.05533886 -158.12143528 84.05032361 C-178.74763048 84.03988407 -199.37381445 84.02230594 -220 84 C-220.02932572 80.81251971 -220.04690739 77.62507472 -220.0625 74.4375 C-220.07087891 73.54224609 -220.07925781 72.64699219 -220.08789062 71.72460938 C-220.10629571 66.70002057 -219.86266398 61.95182709 -219 57 C-218.34 57 -217.68 57 -217 57 C-217 55.35 -217 53.7 -217 52 C-216.14523449 51.99761165 -215.29046898 51.99522329 -214.40980148 51.99276257 C-193.57588967 51.93353116 -172.74209275 51.8579291 -151.90830612 51.76428509 C-141.83308714 51.71939033 -131.75790301 51.67996116 -121.68261719 51.65356445 C-112.8972113 51.63053311 -104.11191627 51.59707794 -95.32659841 51.55129844 C-90.67827433 51.52743534 -86.03005958 51.50866137 -81.38167572 51.50238609 C-76.9985676 51.49630382 -72.61573898 51.47619157 -68.23273468 51.44572449 C-66.6316879 51.43699433 -65.03060451 51.43321116 -63.42953491 51.43499184 C-44.7908485 51.44916518 -29.20105368 47.30792041 -15.69921875 33.9296875 C-6.74434132 24.21021127 -2.08789646 12.91199124 0 0 Z " fill="#195B60" transform="translate(1515,1297)"/>
<path d="" fill="#1A999E" transform="translate(0,0)"/>
<path d="" fill="#1A999E" transform="translate(0,0)"/>
</svg>
