<?xml version="1.0" standalone="no"?>
<!DOCTYPE svg PUBLIC "-//W3C//DTD SVG 20010904//EN"
 "http://www.w3.org/TR/2001/REC-SVG-20010904/DTD/svg10.dtd">
<svg version="1.0" xmlns="http://www.w3.org/2000/svg"
 width="226.000000pt" height="223.000000pt" viewBox="0 0 226.000000 223.000000"
 preserveAspectRatio="xMidYMid meet">
<metadata>
Created by potrace 1.16, written by Peter Selinger 2001-2019
</metadata>
<g transform="translate(0.000000,223.000000) scale(0.100000,-0.100000)"
fill="#000000" stroke="none">
<path d="M106 2220 c-15 -5 -37 -17 -48 -27 -49 -43 -48 -16 -48 -1083 0
-1086 -2 -1043 55 -1088 l28 -22 1037 0 c1017 0 1038 0 1062 20 61 47 58 -7
58 1092 0 935 -1 1005 -18 1037 -9 19 -30 44 -45 55 -28 21 -34 21 -1040 23
-557 1 -1025 -2 -1041 -7z m1214 -360 c18 -18 20 -33 20 -190 0 -157 -2 -172
-20 -190 -18 -18 -33 -20 -190 -20 -225 0 -210 -15 -210 210 0 157 2 172 20
190 18 18 33 20 190 20 157 0 172 -2 190 -20z m560 0 c18 -18 20 -33 20 -190
0 -225 15 -210 -210 -210 -224 0 -210 -14 -210 212 0 222 -15 208 210 208 157
0 172 -2 190 -20z m-1120 -560 c18 -18 20 -33 20 -181 0 -155 -6 -193 -34
-211 -6 -4 -86 -8 -178 -8 -222 0 -208 -15 -208 210 0 225 -15 210 210 210
157 0 172 -2 190 -20z m560 0 c18 -18 20 -33 20 -190 0 -225 15 -210 -210
-210 -224 0 -210 -14 -210 212 0 222 -15 208 210 208 157 0 172 -2 190 -20z
m560 0 c18 -18 20 -33 20 -190 0 -225 15 -210 -210 -210 -225 0 -210 -15 -210
210 0 157 2 172 20 190 18 18 33 20 190 20 157 0 172 -2 190 -20z m-1120 -560
c18 -18 20 -33 20 -177 0 -87 -3 -168 -6 -179 -10 -37 -46 -44 -214 -44 -213
0 -200 -14 -200 210 0 225 -15 210 210 210 157 0 172 -2 190 -20z m560 0 c18
-18 20 -33 20 -190 0 -224 14 -210 -211 -210 -222 0 -209 -14 -209 212 0 222
-15 208 210 208 157 0 172 -2 190 -20z m704 -3 c68 -39 94 -121 61 -192 -9
-17 -27 -38 -40 -45 -32 -17 -31 -22 4 -38 35 -15 71 -82 71 -131 0 -90 -79
-156 -185 -156 -118 1 -191 69 -183 169 5 59 38 113 75 122 28 7 30 21 3 29
-31 10 -60 67 -60 117 0 118 143 189 254 125z m-354 -272 l0 -285 -30 0 -30 0
-2 255 -3 254 -62 -40 -63 -39 0 28 c0 25 10 36 63 70 40 27 74 41 95 42 l32
0 0 -285z"/>
<path d="M1871 696 c-31 -17 -50 -53 -51 -94 0 -39 41 -87 85 -98 43 -11 103
13 125 49 30 48 26 83 -14 123 -28 28 -41 34 -77 34 -24 -1 -55 -7 -68 -14z"/>
<path d="M1854 431 c-84 -51 -60 -175 38 -202 113 -30 208 59 163 154 -30 64
-135 88 -201 48z"/>
</g>
</svg>
